<svg width="50" height="59" viewBox="0 0 50 59" fill="none" xmlns="http://www.w3.org/2000/svg">
<path d="M13.3827 17.9782C13.026 18.1163 12.6617 18.2334 12.2916 18.3288C11.8028 18.4499 11.5269 18.506 11.0551 18.3199C11.0385 18.3134 11.0227 18.3069 11.0078 18.3006C10.1136 17.9143 9.34919 17.2722 8.80765 16.4525C8.26611 15.6328 7.97079 14.6707 7.95763 13.6836C7.95527 13.6497 7.95527 13.6141 7.95527 13.5794C7.95481 13.4121 7.96268 13.2448 7.97885 13.0783C7.99953 12.8515 8.03524 12.6264 8.08574 12.4045L8.08102 12.4036C7.69906 12.0068 7.5521 11.4632 7.60082 10.917C7.6342 10.5467 7.74987 10.1889 7.9391 9.87067C8.12833 9.55239 8.38619 9.2819 8.69325 9.07958C9.17448 8.77217 9.71708 8.57758 10.2816 8.50994C10.4332 8.49218 10.5856 8.48319 10.7382 8.48302H12.1718C12.4678 8.41259 12.7686 8.36441 13.0716 8.33887H13.074C15.9591 8.09574 18.2344 10.0391 18.0222 12.4036C18.0206 12.4062 18.0182 12.4088 18.0167 12.4114C17.9554 12.513 17.9011 12.6094 17.8532 12.7015C17.8068 12.7874 17.7675 12.8699 17.7337 12.9481C17.4705 13.5525 18.7217 22.9293 18.2729 23.0717C18.0175 23.1524 16.9879 16.1749 17.1726 17.5017C17.4052 19.1663 14.7119 17.479 13.3827 17.9782Z" fill="#2F2E41"/>
<path d="M17.729 34.9288L21.7284 43.5857L6.34375 42.0025L9.55521 33.6921L17.729 34.9288Z" fill="#FFB6B6"/>
<path d="M25.7562 52.2855C23.0809 53.1902 20.2616 53.5739 17.4462 53.4163L16.222 51.3991C16.222 51.3991 16.1707 52.1504 16.0943 53.2989C14.7541 53.1411 13.4314 52.8562 12.1435 52.4479C9.70107 51.6719 7.41158 50.4695 5.09081 49.3607C4.62075 46.5136 4.44436 42.1234 7.04318 39.5677L21.0312 42.172C21.0312 42.172 23.2755 43.8775 22.6752 44.4885C22.0748 45.0985 21.9818 45.004 22.3763 45.4048C22.7707 45.8056 23.6231 46.3415 23.6318 46.6919C23.6353 46.8288 24.5919 49.3104 25.7562 52.2855Z" fill="#2F2E41"/>
<path d="M15.2856 18.2006L11.9062 18.4402L9.72189 20.5847L8.95691 20.7235C8.26929 20.848 7.65056 21.2247 7.21805 21.7819C6.78554 22.3391 6.56933 23.0383 6.61041 23.7467C6.76776 26.4554 7.12008 30.5027 7.85645 31.8158C8.99825 33.8518 9.94136 33.213 8.99825 33.8518C8.05514 34.4906 7.42197 33.9887 7.85645 34.9982C8.29092 36.0078 7.26922 37.3028 7.26922 37.3028L6.8625 37.716L7.29388 37.8957L21.0392 39.7129C21.0392 39.7129 19.8507 34.2835 20.594 32.9497C21.3373 31.6159 23.1394 27.5842 21.531 26.0067L19.9584 20.3837L17.2532 19.5731L15.2856 18.2006Z" fill="#5F27CD"/>
<path d="M35.7442 40.4848C35.518 40.4775 35.2961 40.4204 35.0938 40.3174C34.8915 40.2144 34.7137 40.068 34.5725 39.8883C34.4314 39.7086 34.3304 39.4999 34.2764 39.2766C34.2225 39.0533 34.2169 38.8208 34.2601 38.5951L27.8125 34.1585L28.5818 32.0447L36.2019 37.3711C36.5703 37.4732 36.8891 37.7092 37.0978 38.0342C37.3065 38.3592 37.3906 38.7507 37.3342 39.1345C37.2778 39.5183 37.0848 39.8677 36.7917 40.1166C36.4987 40.3655 36.126 40.4965 35.7442 40.4848Z" fill="#FFB6B6"/>
<path d="M17.5326 20.1181L16.5957 20.4951L21.5936 30.4129L31.9402 37.5786L33.4316 35.0174L25.5557 28.1055L22.4025 21.9612C21.9588 21.0966 21.2154 20.4296 20.316 20.0892C19.4166 19.7488 18.425 19.7591 17.5326 20.1181Z" fill="#5F27CD"/>
<path d="M13.4208 17.3284C15.295 17.3284 16.8143 15.7847 16.8143 13.8805C16.8143 11.9763 15.295 10.4326 13.4208 10.4326C11.5467 10.4326 10.0273 11.9763 10.0273 13.8805C10.0273 15.7847 11.5467 17.3284 13.4208 17.3284Z" fill="#FFB6B6"/>
<path d="M16.3707 12.4225C16.3141 12.4528 16.2583 12.4808 16.2017 12.5087C16.1428 12.5375 16.0838 12.5662 16.0241 12.5934C14.8884 13.1164 13.9634 13.1747 13.4023 12.4225C13.3869 12.0268 13.2992 11.6374 13.1437 11.2742C13.1712 11.68 13.0659 12.0837 12.8443 12.4225H11.7141C10.5501 13.2074 9.95284 13.9285 10.7608 16.5054C10.8134 16.6747 11.1742 22.6892 11.2771 23.1515C9.51508 22.4648 7.9951 15.1734 7.95659 13.2522C7.95423 13.221 7.95423 13.1883 7.95423 13.1563C7.95377 13.0024 7.96164 12.8486 7.97781 12.6956C7.99855 12.4867 8.03427 12.2796 8.0847 12.0759L8.07998 12.0751C7.9007 11.901 7.76393 11.6867 7.68056 11.4494C7.59719 11.212 7.56953 10.9582 7.59978 10.708C7.89537 10.3148 8.26117 9.98161 8.67807 9.72586C9.05716 9.53935 9.4523 9.38859 9.85852 9.27549C9.86874 9.2731 9.87739 9.2707 9.8876 9.26831C10.0118 9.23396 10.1391 9.20282 10.2664 9.17567C10.5288 9.11977 10.7941 9.07898 11.061 9.0535C11.0806 9.0527 11.0995 9.0511 11.1168 9.0511C11.2236 9.05117 11.3283 9.08041 11.4202 9.13575C11.4209 9.13575 11.4209 9.13655 11.4225 9.13655C11.5107 9.19011 11.5839 9.26585 11.635 9.35648C11.686 9.44711 11.7133 9.54956 11.7141 9.65399H12.9731C13.0195 9.65399 13.0659 9.65559 13.1123 9.65798C14.8656 9.72905 16.2748 10.4909 16.3652 12.242C16.3691 12.3027 16.3707 12.3618 16.3707 12.4225Z" fill="#2F2E41"/>
<path d="M8.92704 12.5611C10.1618 12.5611 11.1627 11.5441 11.1627 10.2896C11.1627 9.03509 10.1618 8.01811 8.92704 8.01811C7.69234 8.01811 6.69141 9.03509 6.69141 10.2896C6.69141 11.5441 7.69234 12.5611 8.92704 12.5611Z" fill="#2F2E41"/>
<path d="M11.9961 9.23897C11.7421 10.4667 10.489 11.2009 9.29023 10.9006C8.71455 10.7563 8.21883 10.3856 7.91214 9.87004C7.60546 9.35445 7.51291 8.7362 7.65487 8.15128C7.95049 6.93326 9.40538 7.2844 10.3607 6.4897C11.7123 5.36547 12.3386 7.58334 11.9961 9.23897Z" fill="#2F2E41"/>
<path d="M7.02925 43.4129C8.93464 35.5181 12.71 28.7324 18.9625 23.4159C19.2045 23.0115 19.5945 22.721 20.0469 22.6084C20.4994 22.4957 20.9774 22.57 21.376 22.8149L36.2397 31.9717C36.6378 32.2176 36.9237 32.6138 37.0345 33.0735C37.1454 33.5332 37.0723 34.0189 36.8312 34.4239C34.4447 42.5248 30.8703 49.5542 24.898 54.4209C24.656 54.8253 24.266 55.1157 23.8136 55.2284C23.3611 55.3411 22.8831 55.2668 22.4845 55.0218L7.62077 45.8651C7.22269 45.6192 6.93685 45.223 6.82596 44.7632C6.71507 44.3035 6.78818 43.8179 7.02925 43.4129Z" fill="#F2F2F2"/>
<path opacity="0.2" d="M9.67113 46.0735C9.27306 45.8276 8.98722 45.4314 8.87633 44.9717C8.76545 44.512 8.83856 44.0263 9.07964 43.6213C10.985 35.7265 14.7604 28.9408 21.0128 23.6243C21.173 23.3596 21.3992 23.1425 21.6685 22.9951L21.376 22.8149C20.9774 22.57 20.4994 22.4957 20.0469 22.6084C19.5945 22.721 19.2045 23.0114 18.9625 23.4159C12.71 28.7324 8.93465 35.5181 7.02926 43.4128C6.78818 43.8179 6.71507 44.3035 6.82596 44.7632C6.93685 45.2229 7.22268 45.6192 7.62076 45.865L22.4845 55.0218C22.749 55.1836 23.051 55.2714 23.3597 55.2763C23.6684 55.2813 23.9729 55.2032 24.2424 55.0501L9.67113 46.0735Z" fill="black"/>
<path d="M27.1037 41.6627L17.1265 35.5546C16.968 35.4573 16.854 35.3 16.8095 35.1174C16.765 34.9347 16.7937 34.7415 16.8893 34.5804C16.9849 34.4192 17.1396 34.3031 17.3193 34.2577C17.499 34.2123 17.6891 34.2412 17.8479 34.3381L27.8251 40.4462C27.9833 40.5437 28.0969 40.7009 28.1411 40.8834C28.1854 41.0659 28.1566 41.2588 28.0611 41.4197C27.9657 41.5807 27.8113 41.6967 27.6318 41.7422C27.4524 41.7877 27.2625 41.7592 27.1037 41.6627Z" fill="white"/>
<path d="M21.2988 33.5628L19.1038 32.219C18.9447 32.1223 18.83 31.9654 18.7848 31.7827C18.7396 31.6001 18.7676 31.4067 18.8628 31.245C18.958 31.0834 19.1124 30.9668 19.2922 30.9209C19.472 30.875 19.6623 30.9035 19.8214 31.0002L19.8252 31.0025L22.0202 32.3463C22.1783 32.4438 22.292 32.601 22.3363 32.7835C22.3805 32.966 22.3518 33.1589 22.2563 33.3199C22.1608 33.4809 22.0064 33.5969 21.8269 33.6424C21.6474 33.6879 21.4575 33.6593 21.2988 33.5628Z" fill="white"/>
<path d="M25.5168 44.3366L15.5395 38.2286C15.3808 38.1315 15.2666 37.9743 15.2218 37.7917C15.1771 37.609 15.2056 37.4158 15.301 37.2545C15.3964 37.0932 15.551 36.9769 15.7307 36.9313C15.9104 36.8857 16.1006 36.9144 16.2595 37.0112L16.2609 37.0121L26.2381 43.1202C26.3963 43.2177 26.5099 43.3749 26.5541 43.5574C26.5984 43.7399 26.5696 43.9327 26.4741 44.0937C26.3787 44.2547 26.2243 44.3706 26.0448 44.4162C25.8654 44.4617 25.6755 44.4331 25.5168 44.3366Z" fill="white"/>
<path d="M28.3692 30.1457C29.9787 30.1457 31.2834 28.8201 31.2834 27.1849C31.2834 25.5496 29.9787 24.224 28.3692 24.224C26.7598 24.224 25.4551 25.5496 25.4551 27.1849C25.4551 28.8201 26.7598 30.1457 28.3692 30.1457Z" fill="#3F3D56"/>
<path d="M23.3457 58.9117C26.7857 58.9117 29.5743 56.0784 29.5743 52.5833C29.5743 49.0882 26.7857 46.2548 23.3457 46.2548C19.9058 46.2548 17.1172 49.0882 17.1172 52.5833C17.1172 56.0784 19.9058 58.9117 23.3457 58.9117Z" fill="white"/>
<path d="M23.3467 59C22.0976 59 20.8766 58.6237 19.838 57.9186C18.7995 57.2135 17.99 56.2114 17.512 55.0389C17.034 53.8664 16.9089 52.5762 17.1526 51.3315C17.3963 50.0867 17.9978 48.9434 18.881 48.046C19.7642 47.1486 20.8895 46.5374 22.1146 46.2899C23.3397 46.0423 24.6095 46.1693 25.7635 46.655C26.9175 47.1406 27.9038 47.9631 28.5978 49.0183C29.2917 50.0735 29.6621 51.3141 29.6621 52.5832C29.6603 54.2845 28.9943 55.9155 27.8103 57.1184C26.6263 58.3214 25.0211 58.9981 23.3467 59ZM23.3467 46.3431C22.132 46.3431 20.9446 46.7091 19.9346 47.3948C18.9246 48.0805 18.1374 49.055 17.6725 50.1953C17.2077 51.3355 17.0861 52.5902 17.323 53.8007C17.56 55.0112 18.145 56.1231 19.0039 56.9958C19.8628 57.8685 20.9572 58.4628 22.1485 58.7035C23.3399 58.9443 24.5748 58.8207 25.697 58.3484C26.8193 57.8761 27.7785 57.0763 28.4533 56.0501C29.1282 55.0239 29.4884 53.8174 29.4884 52.5832C29.4865 50.9288 28.8389 49.3427 27.6875 48.1729C26.5361 47.003 24.975 46.345 23.3467 46.3431Z" fill="#3F3D56"/>
<path d="M22.4978 55.8769C22.3903 55.8769 22.2842 55.8515 22.188 55.8026C22.0918 55.7537 22.0081 55.6827 21.9436 55.5953L20.2444 53.2932C20.1897 53.2193 20.1499 53.1351 20.1273 53.0455C20.1046 52.9559 20.0996 52.8627 20.1124 52.7711C20.1252 52.6796 20.1557 52.5915 20.2021 52.5119C20.2484 52.4323 20.3098 52.3627 20.3826 52.3072C20.4554 52.2518 20.5383 52.2114 20.6265 52.1884C20.7147 52.1655 20.8065 52.1605 20.8966 52.1736C20.9867 52.1867 21.0734 52.2178 21.1517 52.2649C21.23 52.3121 21.2984 52.3745 21.3529 52.4486L22.4646 53.9545L25.3199 49.603C25.3704 49.526 25.4353 49.46 25.5109 49.4085C25.5865 49.3571 25.6713 49.3213 25.7605 49.3031C25.8497 49.285 25.9416 49.2849 26.0308 49.3029C26.1201 49.3208 26.205 49.3564 26.2807 49.4077C26.3564 49.459 26.4214 49.5249 26.4721 49.6017C26.5227 49.6785 26.5579 49.7647 26.5758 49.8554C26.5936 49.946 26.5937 50.0394 26.5761 50.1301C26.5584 50.2207 26.5233 50.307 26.4729 50.3839L23.0744 55.5634C23.0129 55.6571 22.9302 55.7344 22.8333 55.7889C22.7363 55.8434 22.6279 55.8735 22.5171 55.8767C22.5107 55.8768 22.5043 55.8769 22.4978 55.8769Z" fill="#5F27CD"/>
<path d="M43.4624 20.5136C43.7099 20.4921 43.8986 20.3328 43.8839 20.1579C43.8692 19.983 43.6566 19.8586 43.4091 19.8801C43.1616 19.9016 42.9729 20.0608 42.9876 20.2358C43.0023 20.4107 43.2149 20.5351 43.4624 20.5136Z" fill="white"/>
<path d="M31.9645 7.43267C32.0069 7.26247 31.8462 7.07424 31.6054 7.01223C31.3646 6.95023 31.1349 7.03794 31.0925 7.20814C31.05 7.37834 31.2108 7.56657 31.4516 7.62858C31.6924 7.69058 31.922 7.60287 31.9645 7.43267Z" fill="white"/>
<path d="M7.95585 43.4965C7.73376 43.404 7.53409 43.2636 7.37064 43.0851C7.2072 42.9065 7.08388 42.694 7.00922 42.4622C6.93456 42.2304 6.91035 41.985 6.93824 41.7428C6.96614 41.5006 7.04549 41.2674 7.17079 41.0594L2.38281 34.2211L3.91883 32.4104L9.54714 40.5747C9.87602 40.815 10.1067 41.1696 10.1955 41.5712C10.2842 41.9728 10.2249 42.3936 10.0288 42.7537C9.83264 43.1139 9.51328 43.3884 9.13122 43.5253C8.74917 43.6622 8.33096 43.6519 7.95585 43.4965Z" fill="#FFB6B6"/>
<path d="M8.06538 21.826C7.82316 21.6811 7.53806 21.6288 7.26127 21.6783C6.98448 21.7278 6.73412 21.876 6.55513 22.0961L0.0859375 31.2887L6.08119 39.9403L8.42716 37.3801L4.77788 31.5536L9.6278 26.8618C10.0264 25.9747 10.0872 24.969 9.79867 24.039C9.51012 23.1089 8.8926 22.3205 8.06538 21.826Z" fill="#5F27CD"/>
</svg>
