<svg width="70" height="50" viewBox="0 0 70 50" fill="none" xmlns="http://www.w3.org/2000/svg">
<g clip-path="url(#clip0_431_263)">
<path d="M44.6067 37.4835V49.5364H13.963C10.4715 49.5364 7.63086 46.8329 7.63086 43.5099C7.63086 40.187 10.4715 37.4835 13.963 37.4835H44.6067Z" fill="#F2F2F2"/>
<path d="M45.3598 49.4437C45.3597 49.5666 45.3101 49.6845 45.2219 49.7715C45.1337 49.8584 45.0141 49.9072 44.8893 49.9073H13.4175C11.7083 49.9073 10.069 49.2382 8.86032 48.0471C7.65167 46.8561 6.97266 45.2407 6.97266 43.5563C6.97266 41.8719 7.65167 40.2565 8.86032 39.0655C10.069 37.8744 11.7083 37.2053 13.4175 37.2053H44.8893C45.0141 37.2053 45.1337 37.2541 45.222 37.3411C45.3102 37.428 45.3598 37.5459 45.3598 37.6689C45.3598 37.7918 45.3102 37.9097 45.222 37.9967C45.1337 38.0836 45.0141 38.1325 44.8893 38.1325H13.4175C11.9578 38.1325 10.5578 38.7039 9.52561 39.7211C8.4934 40.7382 7.91352 42.1178 7.91352 43.5563C7.91352 44.9948 8.4934 46.3744 9.52561 47.3915C10.5578 48.4087 11.9578 48.9801 13.4175 48.9801H44.8893C45.0141 48.9802 45.1337 49.029 45.2219 49.116C45.3101 49.2029 45.3597 49.3208 45.3598 49.4437Z" fill="#5F27CD"/>
<path d="M44.6082 40.2649H11.6781C11.6531 40.2649 11.6292 40.2551 11.6115 40.2378C11.5939 40.2204 11.584 40.1968 11.584 40.1722C11.584 40.1476 11.5939 40.124 11.6115 40.1066C11.6292 40.0893 11.6531 40.0795 11.6781 40.0795H44.6082C44.6331 40.0795 44.6571 40.0893 44.6747 40.1066C44.6924 40.124 44.7023 40.1476 44.7023 40.1722C44.7023 40.1968 44.6924 40.2204 44.6747 40.2378C44.6571 40.2551 44.6331 40.2649 44.6082 40.2649Z" fill="#CCCCCC"/>
<path d="M44.6082 42.4901H11.6781C11.6531 42.4901 11.6292 42.4803 11.6115 42.4629C11.5939 42.4455 11.584 42.4219 11.584 42.3974C11.584 42.3728 11.5939 42.3492 11.6115 42.3318C11.6292 42.3144 11.6531 42.3046 11.6781 42.3046H44.6082C44.6331 42.3046 44.6571 42.3144 44.6747 42.3318C44.6924 42.3492 44.7023 42.3728 44.7023 42.3974C44.7023 42.4219 44.6924 42.4455 44.6747 42.4629C44.6571 42.4803 44.6331 42.4901 44.6082 42.4901Z" fill="#CCCCCC"/>
<path d="M44.6082 44.7152H11.6781C11.6531 44.7152 11.6292 44.7055 11.6115 44.6881C11.5939 44.6707 11.584 44.6471 11.584 44.6225C11.584 44.5979 11.5939 44.5744 11.6115 44.557C11.6292 44.5396 11.6531 44.5298 11.6781 44.5298H44.6082C44.6331 44.5298 44.6571 44.5396 44.6747 44.557C44.6924 44.5744 44.7023 44.5979 44.7023 44.6225C44.7023 44.6471 44.6924 44.6707 44.6747 44.6881C44.6571 44.7055 44.6331 44.7152 44.6082 44.7152Z" fill="#CCCCCC"/>
<path d="M44.6082 46.9404H11.6781C11.6531 46.9404 11.6292 46.9306 11.6115 46.9132C11.5939 46.8959 11.584 46.8723 11.584 46.8477C11.584 46.8231 11.5939 46.7995 11.6115 46.7821C11.6292 46.7647 11.6531 46.755 11.6781 46.755H44.6082C44.6331 46.755 44.6571 46.7647 44.6747 46.7821C44.6924 46.7995 44.7023 46.8231 44.7023 46.8477C44.7023 46.8723 44.6924 46.8959 44.6747 46.9132C44.6571 46.9306 44.6331 46.9404 44.6082 46.9404Z" fill="#CCCCCC"/>
<path d="M68.2896 39.7523L60.6155 49.1377L36.7539 30.1913C34.0352 28.0326 33.5446 24.1711 35.6603 21.5836C37.776 18.9961 41.7093 18.6472 44.428 20.8059L68.2896 39.7523Z" fill="#F2F2F2"/>
<path d="M61.2625 49.5309C61.1842 49.6266 61.0706 49.6877 60.9465 49.7008C60.8225 49.714 60.6982 49.6781 60.6011 49.601L36.0946 30.1426C34.7636 29.0858 33.9132 27.5512 33.7304 25.8765C33.5475 24.2018 34.0473 22.5241 35.1198 21.2125C36.1922 19.9009 37.7495 19.0628 39.449 18.8827C41.1484 18.7025 42.8509 19.195 44.1819 20.2518L68.6884 39.7102C68.7365 39.7484 68.7766 39.7955 68.8062 39.849C68.8359 39.9024 68.8545 39.9611 68.8612 40.0216C68.8678 40.0822 68.8622 40.1434 68.8448 40.2019C68.8274 40.2603 68.7985 40.3148 68.7598 40.3622C68.721 40.4096 68.6731 40.4491 68.6189 40.4782C68.5646 40.5074 68.5051 40.5258 68.4436 40.5323C68.3822 40.5388 68.32 40.5333 68.2607 40.5161C68.2014 40.4989 68.1462 40.4704 68.0981 40.4322L43.5916 20.9738C43.0288 20.5266 42.3821 20.193 41.6885 19.9921C40.9948 19.7912 40.2678 19.727 39.549 19.8031C38.8301 19.8791 38.1335 20.094 37.499 20.4354C36.8644 20.7768 36.3043 21.2381 35.8507 21.7929C35.3971 22.3476 35.0588 22.985 34.8553 23.6687C34.6517 24.3523 34.5868 25.0687 34.6642 25.7771C34.7417 26.4854 34.96 27.1718 35.3068 27.797C35.6535 28.4221 36.1218 28.9739 36.6849 29.4207L61.1914 48.879C61.2885 48.9562 61.3505 49.0682 61.3639 49.1904C61.3772 49.3127 61.3408 49.4351 61.2625 49.5309Z" fill="#CCCCCC"/>
<path d="M66.5189 41.9181L40.8769 21.5581C40.8672 21.5505 40.8592 21.5411 40.8533 21.5304C40.8474 21.5197 40.8437 21.508 40.8423 21.4958C40.841 21.4837 40.8421 21.4715 40.8456 21.4598C40.8491 21.4481 40.8549 21.4372 40.8626 21.4278C40.8704 21.4183 40.8799 21.4104 40.8908 21.4046C40.9016 21.3987 40.9135 21.3951 40.9258 21.3938C40.9381 21.3924 40.9505 21.3935 40.9624 21.397C40.9742 21.4004 40.9853 21.4061 40.9949 21.4137L66.6369 41.7737C66.6466 41.7814 66.6546 41.7908 66.6605 41.8015C66.6665 41.8122 66.6702 41.8239 66.6715 41.836C66.6729 41.8482 66.6718 41.8604 66.6683 41.8721C66.6648 41.8838 66.659 41.8947 66.6513 41.9042C66.6435 41.9137 66.6339 41.9216 66.6231 41.9274C66.6122 41.9332 66.6003 41.9369 66.588 41.9382C66.5757 41.9395 66.5633 41.9384 66.5514 41.9349C66.5396 41.9315 66.5285 41.9258 66.5189 41.9181Z" fill="#CCCCCC"/>
<path d="M65.1028 43.6508L39.4607 23.2908C39.4414 23.2754 39.429 23.253 39.4263 23.2286C39.4237 23.2041 39.431 23.1797 39.4466 23.1605C39.4623 23.1414 39.485 23.1292 39.5097 23.1265C39.5345 23.1239 39.5594 23.131 39.5788 23.1464L65.2208 43.5064C65.2305 43.5141 65.2385 43.5235 65.2444 43.5342C65.2504 43.5449 65.2541 43.5566 65.2554 43.5687C65.2568 43.5809 65.2557 43.5931 65.2522 43.6048C65.2487 43.6165 65.2429 43.6274 65.2352 43.6369C65.2274 43.6464 65.2178 43.6543 65.207 43.6601C65.1961 43.6659 65.1842 43.6696 65.1719 43.6709C65.1596 43.6722 65.1472 43.6711 65.1353 43.6677C65.1234 43.6642 65.1124 43.6585 65.1028 43.6508Z" fill="#CCCCCC"/>
<path d="M63.6868 45.3835L38.0448 25.0235C38.0254 25.0081 38.013 24.9857 38.0103 24.9612C38.0076 24.9368 38.0149 24.9123 38.0306 24.8931C38.0462 24.874 38.069 24.8618 38.0938 24.8591C38.1186 24.8565 38.1435 24.8637 38.1629 24.8791L63.8049 45.2391C63.8145 45.2468 63.8225 45.2562 63.8285 45.2669C63.8344 45.2776 63.8381 45.2893 63.8394 45.3014C63.8407 45.3135 63.8396 45.3258 63.8362 45.3374C63.8327 45.3491 63.8269 45.36 63.8191 45.3695C63.8114 45.379 63.8018 45.3869 63.791 45.3927C63.7801 45.3985 63.7682 45.4022 63.7559 45.4035C63.7437 45.4048 63.7312 45.4037 63.7194 45.4003C63.7075 45.3969 63.6965 45.3912 63.6868 45.3835Z" fill="#CCCCCC"/>
<path d="M62.2689 47.1162L36.6269 26.7562C36.6172 26.7486 36.6092 26.7391 36.6033 26.7285C36.5974 26.7178 36.5937 26.706 36.5923 26.6939C36.591 26.6818 36.5921 26.6696 36.5956 26.6579C36.5991 26.6462 36.6049 26.6353 36.6126 26.6259C36.6204 26.6164 36.6299 26.6085 36.6408 26.6027C36.6516 26.5968 36.6635 26.5931 36.6758 26.5918C36.6881 26.5905 36.7005 26.5916 36.7124 26.5951C36.7242 26.5985 36.7353 26.6042 36.7449 26.6118L62.3869 46.9718C62.3966 46.9795 62.4046 46.9889 62.4105 46.9996C62.4165 47.0103 62.4202 47.022 62.4215 47.0341C62.4229 47.0462 62.4218 47.0585 62.4183 47.0702C62.4148 47.0819 62.409 47.0928 62.4013 47.1023C62.3935 47.1118 62.3839 47.1196 62.3731 47.1255C62.3622 47.1313 62.3503 47.135 62.338 47.1363C62.3257 47.1376 62.3133 47.1365 62.3014 47.133C62.2896 47.1296 62.2785 47.1239 62.2689 47.1162Z" fill="#CCCCCC"/>
<path d="M69.9059 50H0.094086C0.0691329 50 0.0452016 49.9902 0.0275571 49.9728C0.00991253 49.9554 0 49.9319 0 49.9073C0 49.8827 0.00991253 49.8591 0.0275571 49.8417C0.0452016 49.8243 0.0691329 49.8146 0.094086 49.8146H69.9059C69.9309 49.8146 69.9548 49.8243 69.9724 49.8417C69.9901 49.8591 70 49.8827 70 49.9073C70 49.9319 69.9901 49.9554 69.9724 49.9728C69.9548 49.9902 69.9309 50 69.9059 50Z" fill="#CCCCCC"/>
<path d="M31.8078 36.2166L30.7322 36.2165L30.2207 32.1281L31.8082 32.1283L31.8078 36.2166Z" fill="#FFB8B8"/>
<path d="M29.9643 35.9137H32.0387V37.2007H28.6582C28.6582 37.0317 28.692 36.8643 28.7576 36.7082C28.8233 36.552 28.9195 36.4101 29.0407 36.2906C29.162 36.1711 29.306 36.0763 29.4645 36.0116C29.6229 35.9469 29.7928 35.9137 29.9643 35.9137Z" fill="#2F2E41"/>
<path d="M20.8196 36.2166L19.744 36.2165L19.2324 32.1281L20.8199 32.1283L20.8196 36.2166Z" fill="#FFB8B8"/>
<path d="M18.976 35.9137H21.0504V37.2007H17.6699C17.6699 37.0317 17.7037 36.8643 17.7693 36.7082C17.835 36.552 17.9312 36.4101 18.0525 36.2906C18.1738 36.1711 18.3177 36.0763 18.4762 36.0116C18.6347 35.9469 18.8045 35.9137 18.976 35.9137Z" fill="#2F2E41"/>
<path d="M24.4121 5.89048V5.42689C24.4121 4.63388 24.7318 3.87335 25.3008 3.3126C25.8699 2.75185 26.6416 2.43683 27.4464 2.43683C28.2511 2.43683 29.0229 2.75185 29.5919 3.3126C30.161 3.87335 30.4807 4.63388 30.4807 5.42689V5.89048C30.4807 6.46218 30.2502 7.01048 29.84 7.41474C29.4297 7.81899 28.8733 8.0461 28.2932 8.0461H26.5996C26.3123 8.0461 26.0279 7.99035 25.7625 7.88202C25.4971 7.77369 25.2559 7.6149 25.0528 7.41474C24.8497 7.21457 24.6886 6.97693 24.5786 6.7154C24.4687 6.45387 24.4121 6.17356 24.4121 5.89048Z" fill="#2F2E41"/>
<path d="M27.4476 8.20562C28.7238 8.20562 29.7584 7.18609 29.7584 5.92844C29.7584 4.67079 28.7238 3.65126 27.4476 3.65126C26.1713 3.65126 25.1367 4.67079 25.1367 5.92844C25.1367 7.18609 26.1713 8.20562 27.4476 8.20562Z" fill="#FFB8B8"/>
<path d="M14.8779 13.7548C14.9717 13.6675 15.0838 13.6016 15.2062 13.5616C15.3286 13.5217 15.4585 13.5086 15.5866 13.5235C15.7146 13.5383 15.8379 13.5806 15.9476 13.6475C16.0573 13.7143 16.1508 13.804 16.2215 13.9103L18.2024 13.5411L18.7238 14.6726L15.9189 15.1554C15.7298 15.2606 15.5081 15.2938 15.2958 15.2487C15.0835 15.2036 14.8954 15.0833 14.7671 14.9107C14.6388 14.7381 14.5792 14.525 14.5996 14.312C14.6201 14.099 14.7191 13.9007 14.8779 13.7548Z" fill="#FFB8B8"/>
<path d="M25.6717 9.6784L22.4233 11.7871L16.942 13.512C16.8693 13.535 16.807 13.5821 16.7656 13.6453C16.7242 13.7085 16.7064 13.7838 16.715 13.8586L16.8346 14.8735C16.8399 14.9184 16.8547 14.9617 16.878 15.0007C16.9013 15.0396 16.9326 15.0734 16.9699 15.0997C17.0071 15.1261 17.0496 15.1445 17.0945 15.1537C17.1395 15.1629 17.1859 15.1628 17.2307 15.1533L22.3894 14.0637C22.6391 14.0112 22.8752 13.9088 23.083 13.7628L26.7324 11.2041C26.8647 11.1108 26.9703 10.9854 27.0388 10.8401C27.1074 10.6947 27.1366 10.5343 27.1236 10.3745C27.1102 10.2145 27.0548 10.0607 26.9628 9.92822C26.8708 9.79573 26.7454 9.68911 26.5989 9.61887C26.4524 9.54863 26.2898 9.51718 26.1273 9.52762C25.9647 9.53806 25.8077 9.59002 25.6717 9.6784Z" fill="#CCCCCC"/>
<path d="M30.7529 35.0564C30.6703 35.0564 30.5895 35.0327 30.5204 34.9883C30.4513 34.9438 30.3968 34.8805 30.3636 34.806L25.4325 22.7993C25.421 22.7732 25.4017 22.7513 25.3771 22.7364C25.3526 22.7215 25.324 22.7144 25.2952 22.716C25.2664 22.7176 25.2389 22.7278 25.2162 22.7453C25.1935 22.7628 25.1768 22.7868 25.1683 22.8139L21.1453 34.5029C21.1283 34.5573 21.1002 34.6077 21.0628 34.651C21.0253 34.6943 20.9792 34.7296 20.9274 34.7547C20.8756 34.7798 20.8191 34.7942 20.7614 34.797C20.7037 34.7998 20.646 34.7909 20.5919 34.7709L19.2429 34.2724C19.1697 34.2456 19.1054 34.1993 19.0573 34.1387C19.0092 34.078 18.9791 34.0054 18.9703 33.9289C18.3634 28.719 23.6558 15.5686 23.7094 15.4364L23.7242 15.3997L28.5486 16.4514L28.5587 16.4622C30.4835 18.5314 32.0656 31.5824 32.3632 34.1776C32.3743 34.2714 32.3527 34.366 32.3018 34.446C32.251 34.526 32.1741 34.5866 32.0837 34.6177L30.8929 35.0327C30.8479 35.0484 30.8006 35.0564 30.7529 35.0564Z" fill="#2F2E41"/>
<path d="M26.5956 16.8747C25.4267 16.8747 24.1236 16.645 23.7224 15.6971L23.7132 15.6754L23.7257 15.6552C24.0423 15.1433 24.4608 14.27 24.2359 14.1061C23.7928 13.7832 23.5778 13.2521 23.5969 12.5275C23.6383 10.9545 24.7259 9.55798 26.3033 9.05235C26.7436 8.9135 27.1917 8.79981 27.6453 8.71186C27.976 8.64611 28.3173 8.65334 28.6448 8.73304C28.9724 8.81274 29.2779 8.96293 29.5395 9.17281C29.8044 9.38408 30.0185 9.65053 30.1665 9.95304C30.3145 10.2555 30.3926 10.5866 30.3953 10.9224C30.4118 12.6034 30.1492 14.9447 28.8041 16.5521C28.7411 16.6267 28.6533 16.6769 28.5564 16.6941C27.9092 16.8094 27.2533 16.8698 26.5956 16.8747Z" fill="#CCCCCC"/>
<path d="M26.1607 16.8117C26.2243 16.5869 26.3754 16.3959 26.5811 16.2802C26.7869 16.1645 27.0306 16.1335 27.2595 16.1939C27.3062 16.2067 27.3517 16.2234 27.3957 16.2436L28.8998 14.8947L29.9458 15.5892L27.7949 17.4649C27.6977 17.6374 27.5448 17.773 27.3605 17.8501C27.1761 17.9272 26.9709 17.9412 26.7775 17.8901C26.6648 17.8597 26.5594 17.8076 26.4673 17.7369C26.3752 17.6661 26.2982 17.578 26.2408 17.4777C26.1835 17.3774 26.1469 17.2669 26.1331 17.1526C26.1193 17.0383 26.1287 16.9225 26.1607 16.8117Z" fill="#FFB8B8"/>
<path d="M28.6609 16.8289C28.5633 16.8289 28.4687 16.7957 28.3932 16.7348L27.8 16.2571C27.7506 16.2173 27.7109 16.167 27.684 16.1099C27.6571 16.0528 27.6436 15.9905 27.6446 15.9276C27.6456 15.8647 27.661 15.8028 27.6897 15.7466C27.7184 15.6904 27.7596 15.6413 27.8103 15.603L30.2981 13.7227C30.3275 13.7003 30.3469 13.6674 30.3519 13.631C30.3569 13.5947 30.3471 13.5578 30.3247 13.5285L28.7892 11.5281C28.6108 11.2965 28.5213 11.0101 28.5366 10.7197C28.5519 10.4293 28.671 10.1536 28.8727 9.94134C29.0852 9.71519 29.3762 9.57603 29.6879 9.55146C29.9997 9.52689 30.3094 9.6187 30.5557 9.80869L30.5654 9.81879L32.1688 12.0813C32.3422 12.2152 32.4818 12.3869 32.5768 12.5828C32.6717 12.7787 32.7194 12.9936 32.7161 13.2107C32.7128 13.4278 32.6587 13.6412 32.5578 13.8343C32.457 14.0273 32.3123 14.1948 32.1349 14.3236L28.9129 16.7471C28.8399 16.8002 28.7516 16.8289 28.6609 16.8289Z" fill="#CCCCCC"/>
<path d="M25.4004 5.28783V4.15799L27.4473 3.27719L29.399 4.15799V5.28783C29.399 5.33701 29.3792 5.38417 29.3439 5.41895C29.3086 5.45372 29.2608 5.47326 29.2109 5.47326H25.5886C25.5387 5.47326 25.4908 5.45372 25.4555 5.41895C25.4202 5.38417 25.4004 5.33701 25.4004 5.28783Z" fill="#2F2E41"/>
<path d="M27.353 2.58672C27.0521 1.63745 27.6842 0.549549 28.6186 0.173805C29.553 -0.201939 30.6709 0.0607175 31.4594 0.681503C32.2478 1.30229 32.737 2.23211 32.9962 3.19327C33.2554 4.15442 33.3046 5.15668 33.3525 6.15008C34.5006 6.35789 35.2815 7.69975 34.8838 8.78118C34.4861 9.86262 33.0141 10.3999 31.9975 9.83464C30.9809 9.2694 30.6864 7.74998 31.4201 6.85536C31.7673 6.43205 31.9612 5.90669 31.9712 5.36251C31.9812 4.81832 31.8066 4.28641 31.4752 3.85102C31.1438 3.41563 30.6744 3.10165 30.1414 2.9588C29.6085 2.81596 29.0424 2.85242 28.5328 3.06241C27.967 3.29558 27.2571 2.68975 27.353 2.58672Z" fill="#2F2E41"/>
<path d="M14.4526 9.37191C13.0781 9.36302 11.7207 9.07007 10.4683 8.51199C10.3937 8.47924 10.3304 8.42584 10.2861 8.35828C10.2418 8.29072 10.2184 8.21192 10.2188 8.13148V4.75499C10.2189 4.64437 10.2635 4.53832 10.3429 4.4601C10.4223 4.38189 10.5299 4.33789 10.6421 4.33777H18.2631C18.3754 4.33789 18.483 4.38189 18.5623 4.46011C18.6417 4.53832 18.6864 4.64437 18.6865 4.75499V8.13149C18.6868 8.21192 18.6634 8.29072 18.6191 8.35828C18.5748 8.42584 18.5115 8.47925 18.437 8.51199C17.1845 9.07007 15.8272 9.36302 14.4526 9.37191Z" fill="#5F27CD"/>
<path d="M14.451 6.63655C14.3945 6.63659 14.3386 6.62551 14.2865 6.60395L8.24318 4.0914C8.16525 4.05901 8.09895 4.00435 8.05283 3.93447C8.00672 3.8646 7.9829 3.78272 7.98445 3.69938C7.986 3.61604 8.01285 3.53507 8.06153 3.46691C8.11021 3.39875 8.1785 3.34652 8.25758 3.31695L14.301 1.0577C14.3983 1.02114 14.5059 1.02136 14.6031 1.05833L20.5656 3.31758C20.6442 3.34738 20.712 3.39963 20.7604 3.46763C20.8087 3.53562 20.8353 3.61629 20.8369 3.6993C20.8385 3.78231 20.8148 3.86389 20.7691 3.9336C20.7233 4.00331 20.6575 4.05799 20.58 4.09063L14.6176 6.60314C14.5649 6.62523 14.5083 6.6366 14.451 6.63655Z" fill="#5F27CD"/>
<path d="M10.9239 8.74173C11.2357 8.74173 11.4884 8.49267 11.4884 8.18544C11.4884 7.87821 11.2357 7.62915 10.9239 7.62915C10.6121 7.62915 10.3594 7.87821 10.3594 8.18544C10.3594 8.49267 10.6121 8.74173 10.9239 8.74173Z" fill="#3F3D56"/>
<path opacity="0.2" d="M20.6006 3.73399L14.6381 6.2465C14.5916 6.26608 14.5416 6.27624 14.4911 6.27636C14.4405 6.27648 14.3905 6.26656 14.3439 6.2472L8.30055 3.73473C8.22466 3.70392 8.16134 3.64908 8.1206 3.57886C8.09395 3.6244 8.07744 3.675 8.07216 3.7273C8.06688 3.77961 8.07295 3.83242 8.08997 3.88224C8.10699 3.93206 8.13457 3.97773 8.17087 4.01624C8.20718 4.05475 8.25138 4.0852 8.30055 4.10559L14.3439 6.61806C14.3905 6.63742 14.4405 6.64734 14.4911 6.64722C14.5416 6.6471 14.5916 6.63694 14.6381 6.61736L20.6006 4.10485C20.6496 4.08429 20.6935 4.05374 20.7296 4.01521C20.7656 3.97669 20.793 3.93106 20.8098 3.88136C20.8266 3.83165 20.8326 3.77898 20.8273 3.72684C20.8219 3.6747 20.8055 3.62426 20.7789 3.57886C20.7385 3.64851 20.6758 3.70305 20.6006 3.73399Z" fill="black"/>
<path d="M10.973 8.18328C10.9979 8.18328 11.0219 8.17351 11.0395 8.15613C11.0572 8.13874 11.0671 8.11515 11.0671 8.09056V4.98818L14.1701 3.8742C14.1951 3.87456 14.2192 3.86515 14.2371 3.84802C14.255 3.83089 14.2653 3.80745 14.2656 3.78286C14.266 3.75827 14.2565 3.73454 14.2391 3.7169C14.2217 3.69925 14.1979 3.68913 14.173 3.68877L11.0699 4.80275C11.0449 4.80219 11.0201 4.80662 10.9969 4.81579C10.9737 4.82495 10.9527 4.83866 10.935 4.85608C10.9172 4.87329 10.903 4.89385 10.8934 4.91654C10.8838 4.93922 10.8788 4.96359 10.8789 4.98818V8.09056C10.8789 8.11515 10.8888 8.13873 10.9065 8.15612C10.9241 8.17351 10.948 8.18328 10.973 8.18328Z" fill="#3F3D56"/>
</g>
<defs>
<clipPath id="clip0_431_263">
<rect width="70" height="50" fill="white"/>
</clipPath>
</defs>
</svg>
