<svg width="153" height="18" viewBox="0 0 153 18" fill="none" xmlns="http://www.w3.org/2000/svg">
<path d="M2.024 11.528H5.784V13H0.2V1.88H2.024V11.528ZM11.1334 13.144C10.3014 13.144 9.54938 12.9573 8.87738 12.584C8.20538 12.2 7.67738 11.6667 7.29338 10.984C6.90938 10.2907 6.71738 9.49067 6.71738 8.584C6.71738 7.688 6.91471 6.89333 7.30938 6.2C7.70404 5.50667 8.24271 4.97333 8.92538 4.6C9.60804 4.22667 10.3707 4.04 11.2134 4.04C12.056 4.04 12.8187 4.22667 13.5014 4.6C14.184 4.97333 14.7227 5.50667 15.1174 6.2C15.512 6.89333 15.7094 7.688 15.7094 8.584C15.7094 9.48 15.5067 10.2747 15.1014 10.968C14.696 11.6613 14.1414 12.2 13.4374 12.584C12.744 12.9573 11.976 13.144 11.1334 13.144ZM11.1334 11.56C11.6027 11.56 12.04 11.448 12.4454 11.224C12.8614 11 13.1974 10.664 13.4534 10.216C13.7094 9.768 13.8374 9.224 13.8374 8.584C13.8374 7.944 13.7147 7.40533 13.4694 6.968C13.224 6.52 12.8987 6.184 12.4934 5.96C12.088 5.736 11.6507 5.624 11.1814 5.624C10.712 5.624 10.2747 5.736 9.86938 5.96C9.47471 6.184 9.16004 6.52 8.92538 6.968C8.69071 7.40533 8.57338 7.944 8.57338 8.584C8.57338 9.53333 8.81338 10.2693 9.29338 10.792C9.78404 11.304 10.3974 11.56 11.1334 11.56ZM21.0645 4.04C21.7472 4.04 22.3498 4.17867 22.8725 4.456C23.4058 4.72267 23.8218 5.05867 24.1205 5.464V4.184H25.9605V13.144C25.9605 13.9547 25.7898 14.6747 25.4485 15.304C25.1072 15.944 24.6112 16.4453 23.9605 16.808C23.3205 17.1707 22.5525 17.352 21.6565 17.352C20.4618 17.352 19.4698 17.0693 18.6805 16.504C17.8912 15.9493 17.4432 15.192 17.3365 14.232H19.1445C19.2832 14.6907 19.5765 15.0587 20.0245 15.336C20.4832 15.624 21.0272 15.768 21.6565 15.768C22.3925 15.768 22.9845 15.544 23.4325 15.096C23.8912 14.648 24.1205 13.9973 24.1205 13.144V11.672C23.8112 12.088 23.3898 12.44 22.8565 12.728C22.3338 13.0053 21.7365 13.144 21.0645 13.144C20.2965 13.144 19.5925 12.952 18.9525 12.568C18.3232 12.1733 17.8218 11.6293 17.4485 10.936C17.0858 10.232 16.9045 9.43733 16.9045 8.552C16.9045 7.66667 17.0858 6.88267 17.4485 6.2C17.8218 5.51733 18.3232 4.98933 18.9525 4.616C19.5925 4.232 20.2965 4.04 21.0645 4.04ZM24.1205 8.584C24.1205 7.976 23.9925 7.448 23.7365 7C23.4912 6.552 23.1658 6.21067 22.7605 5.976C22.3552 5.74133 21.9178 5.624 21.4485 5.624C20.9792 5.624 20.5418 5.74133 20.1365 5.976C19.7312 6.2 19.4005 6.536 19.1445 6.984C18.8992 7.42133 18.7765 7.944 18.7765 8.552C18.7765 9.16 18.8992 9.69333 19.1445 10.152C19.4005 10.6107 19.7312 10.9627 20.1365 11.208C20.5525 11.4427 20.9898 11.56 21.4485 11.56C21.9178 11.56 22.3552 11.4427 22.7605 11.208C23.1658 10.9733 23.4912 10.632 23.7365 10.184C23.9925 9.72533 24.1205 9.192 24.1205 8.584ZM29.2843 3.016C28.9536 3.016 28.6763 2.904 28.4523 2.68C28.2283 2.456 28.1163 2.17867 28.1163 1.848C28.1163 1.51733 28.2283 1.24 28.4523 1.016C28.6763 0.791999 28.9536 0.679999 29.2843 0.679999C29.6043 0.679999 29.8763 0.791999 30.1003 1.016C30.3243 1.24 30.4363 1.51733 30.4363 1.848C30.4363 2.17867 30.3243 2.456 30.1003 2.68C29.8763 2.904 29.6043 3.016 29.2843 3.016ZM30.1803 4.184V13H28.3563V4.184H30.1803ZM37.023 4.04C37.7163 4.04 38.335 4.184 38.879 4.472C39.4337 4.76 39.8657 5.18667 40.175 5.752C40.4843 6.31733 40.639 7 40.639 7.8V13H38.831V8.072C38.831 7.28267 38.6337 6.68 38.239 6.264C37.8443 5.83733 37.3057 5.624 36.623 5.624C35.9403 5.624 35.3963 5.83733 34.991 6.264C34.5963 6.68 34.399 7.28267 34.399 8.072V13H32.575V4.184H34.399V5.192C34.6977 4.82933 35.0763 4.54667 35.535 4.344C36.0043 4.14133 36.5003 4.04 37.023 4.04ZM55.0579 4.184L49.6499 17.144H47.7619L49.5539 12.856L46.0819 4.184H48.1139L50.5939 10.904L53.1699 4.184H55.0579ZM60.2584 13.144C59.4264 13.144 58.6744 12.9573 58.0024 12.584C57.3304 12.2 56.8024 11.6667 56.4184 10.984C56.0344 10.2907 55.8424 9.49067 55.8424 8.584C55.8424 7.688 56.0397 6.89333 56.4344 6.2C56.829 5.50667 57.3677 4.97333 58.0504 4.6C58.733 4.22667 59.4957 4.04 60.3384 4.04C61.181 4.04 61.9437 4.22667 62.6264 4.6C63.309 4.97333 63.8477 5.50667 64.2424 6.2C64.637 6.89333 64.8344 7.688 64.8344 8.584C64.8344 9.48 64.6317 10.2747 64.2264 10.968C63.821 11.6613 63.2664 12.2 62.5624 12.584C61.869 12.9573 61.101 13.144 60.2584 13.144ZM60.2584 11.56C60.7277 11.56 61.165 11.448 61.5704 11.224C61.9864 11 62.3224 10.664 62.5784 10.216C62.8344 9.768 62.9624 9.224 62.9624 8.584C62.9624 7.944 62.8397 7.40533 62.5944 6.968C62.349 6.52 62.0237 6.184 61.6184 5.96C61.213 5.736 60.7757 5.624 60.3064 5.624C59.837 5.624 59.3997 5.736 58.9944 5.96C58.5997 6.184 58.285 6.52 58.0504 6.968C57.8157 7.40533 57.6984 7.944 57.6984 8.584C57.6984 9.53333 57.9384 10.2693 58.4184 10.792C58.909 11.304 59.5224 11.56 60.2584 11.56ZM74.6215 4.184V13H72.7975V11.96C72.5095 12.3227 72.1308 12.6107 71.6615 12.824C71.2028 13.0267 70.7122 13.128 70.1895 13.128C69.4962 13.128 68.8722 12.984 68.3175 12.696C67.7735 12.408 67.3415 11.9813 67.0215 11.416C66.7122 10.8507 66.5575 10.168 66.5575 9.368V4.184H68.3655V9.096C68.3655 9.88533 68.5628 10.4933 68.9575 10.92C69.3522 11.336 69.8908 11.544 70.5735 11.544C71.2562 11.544 71.7948 11.336 72.1895 10.92C72.5948 10.4933 72.7975 9.88533 72.7975 9.096V4.184H74.6215ZM78.8521 5.464C79.1188 5.016 79.4708 4.66933 79.9081 4.424C80.3561 4.168 80.8841 4.04 81.4921 4.04V5.928H81.0281C80.3135 5.928 79.7695 6.10933 79.3961 6.472C79.0335 6.83467 78.8521 7.464 78.8521 8.36V13H77.0281V4.184H78.8521V5.464ZM86.717 8.552C86.717 7.66667 86.8983 6.88267 87.261 6.2C87.6343 5.51733 88.1357 4.98933 88.765 4.616C89.405 4.232 90.109 4.04 90.877 4.04C91.5703 4.04 92.173 4.17867 92.685 4.456C93.2077 4.72267 93.6237 5.05867 93.933 5.464V4.184H95.773V13H93.933V11.688C93.6237 12.104 93.2023 12.4507 92.669 12.728C92.1357 13.0053 91.5277 13.144 90.845 13.144C90.0877 13.144 89.3943 12.952 88.765 12.568C88.1357 12.1733 87.6343 11.6293 87.261 10.936C86.8983 10.232 86.717 9.43733 86.717 8.552ZM93.933 8.584C93.933 7.976 93.805 7.448 93.549 7C93.3037 6.552 92.9783 6.21067 92.573 5.976C92.1677 5.74133 91.7303 5.624 91.261 5.624C90.7917 5.624 90.3543 5.74133 89.949 5.976C89.5437 6.2 89.213 6.536 88.957 6.984C88.7117 7.42133 88.589 7.944 88.589 8.552C88.589 9.16 88.7117 9.69333 88.957 10.152C89.213 10.6107 89.5437 10.9627 89.949 11.208C90.365 11.4427 90.8023 11.56 91.261 11.56C91.7303 11.56 92.1677 11.4427 92.573 11.208C92.9783 10.9733 93.3037 10.632 93.549 10.184C93.805 9.72533 93.933 9.192 93.933 8.584ZM97.5608 8.584C97.5608 7.67733 97.7421 6.88267 98.1048 6.2C98.4781 5.50667 98.9901 4.97333 99.6408 4.6C100.291 4.22667 101.038 4.04 101.881 4.04C102.947 4.04 103.827 4.296 104.521 4.808C105.225 5.30933 105.699 6.02933 105.945 6.968H103.977C103.817 6.53067 103.561 6.18933 103.209 5.944C102.857 5.69867 102.414 5.576 101.881 5.576C101.134 5.576 100.537 5.84267 100.089 6.376C99.6514 6.89867 99.4328 7.63467 99.4328 8.584C99.4328 9.53333 99.6514 10.2747 100.089 10.808C100.537 11.3413 101.134 11.608 101.881 11.608C102.937 11.608 103.635 11.144 103.977 10.216H105.945C105.689 11.112 105.209 11.8267 104.505 12.36C103.801 12.8827 102.926 13.144 101.881 13.144C101.038 13.144 100.291 12.9573 99.6408 12.584C98.9901 12.2 98.4781 11.6667 98.1048 10.984C97.7421 10.2907 97.5608 9.49067 97.5608 8.584ZM107.155 8.584C107.155 7.67733 107.336 6.88267 107.699 6.2C108.072 5.50667 108.584 4.97333 109.235 4.6C109.885 4.22667 110.632 4.04 111.475 4.04C112.541 4.04 113.421 4.296 114.115 4.808C114.819 5.30933 115.293 6.02933 115.539 6.968H113.571C113.411 6.53067 113.155 6.18933 112.803 5.944C112.451 5.69867 112.008 5.576 111.475 5.576C110.728 5.576 110.131 5.84267 109.683 6.376C109.245 6.89867 109.027 7.63467 109.027 8.584C109.027 9.53333 109.245 10.2747 109.683 10.808C110.131 11.3413 110.728 11.608 111.475 11.608C112.531 11.608 113.229 11.144 113.571 10.216H115.539C115.283 11.112 114.803 11.8267 114.099 12.36C113.395 12.8827 112.52 13.144 111.475 13.144C110.632 13.144 109.885 12.9573 109.235 12.584C108.584 12.2 108.072 11.6667 107.699 10.984C107.336 10.2907 107.155 9.49067 107.155 8.584ZM121.18 13.144C120.348 13.144 119.596 12.9573 118.924 12.584C118.252 12.2 117.724 11.6667 117.34 10.984C116.956 10.2907 116.764 9.49067 116.764 8.584C116.764 7.688 116.962 6.89333 117.356 6.2C117.751 5.50667 118.29 4.97333 118.972 4.6C119.655 4.22667 120.418 4.04 121.26 4.04C122.103 4.04 122.866 4.22667 123.548 4.6C124.231 4.97333 124.77 5.50667 125.164 6.2C125.559 6.89333 125.756 7.688 125.756 8.584C125.756 9.48 125.554 10.2747 125.148 10.968C124.743 11.6613 124.188 12.2 123.484 12.584C122.791 12.9573 122.023 13.144 121.18 13.144ZM121.18 11.56C121.65 11.56 122.087 11.448 122.492 11.224C122.908 11 123.244 10.664 123.5 10.216C123.756 9.768 123.884 9.224 123.884 8.584C123.884 7.944 123.762 7.40533 123.516 6.968C123.271 6.52 122.946 6.184 122.54 5.96C122.135 5.736 121.698 5.624 121.228 5.624C120.759 5.624 120.322 5.736 119.916 5.96C119.522 6.184 119.207 6.52 118.972 6.968C118.738 7.40533 118.62 7.944 118.62 8.584C118.62 9.53333 118.86 10.2693 119.34 10.792C119.831 11.304 120.444 11.56 121.18 11.56ZM135.543 4.184V13H133.719V11.96C133.431 12.3227 133.053 12.6107 132.583 12.824C132.125 13.0267 131.634 13.128 131.111 13.128C130.418 13.128 129.794 12.984 129.239 12.696C128.695 12.408 128.263 11.9813 127.943 11.416C127.634 10.8507 127.479 10.168 127.479 9.368V4.184H129.287V9.096C129.287 9.88533 129.485 10.4933 129.879 10.92C130.274 11.336 130.813 11.544 131.495 11.544C132.178 11.544 132.717 11.336 133.111 10.92C133.517 10.4933 133.719 9.88533 133.719 9.096V4.184H135.543ZM142.398 4.04C143.091 4.04 143.71 4.184 144.254 4.472C144.809 4.76 145.241 5.18667 145.55 5.752C145.859 6.31733 146.014 7 146.014 7.8V13H144.206V8.072C144.206 7.28267 144.009 6.68 143.614 6.264C143.219 5.83733 142.681 5.624 141.998 5.624C141.315 5.624 140.771 5.83733 140.366 6.264C139.971 6.68 139.774 7.28267 139.774 8.072V13H137.95V4.184H139.774V5.192C140.073 4.82933 140.451 4.54667 140.91 4.344C141.379 4.14133 141.875 4.04 142.398 4.04ZM150.469 5.672V10.552C150.469 10.8827 150.543 11.1227 150.693 11.272C150.853 11.4107 151.119 11.48 151.493 11.48H152.613V13H151.173C150.351 13 149.722 12.808 149.285 12.424C148.847 12.04 148.629 11.416 148.629 10.552V5.672H147.589V4.184H148.629V1.992H150.469V4.184H152.613V5.672H150.469Z" fill="black"/>
</svg>
