<svg width="44" height="51" viewBox="0 0 44 51" fill="none" xmlns="http://www.w3.org/2000/svg">
<g clip-path="url(#clip0_430_165)">
<path d="M0.314674 24.3926C0.476345 24.6524 0.69525 24.8749 0.955969 25.0445C1.21669 25.214 1.51288 25.3265 1.82368 25.3741C2.13449 25.4216 2.45234 25.403 2.75485 25.3195C3.05736 25.236 3.33718 25.0898 3.57459 24.891L10.2104 28.5527L9.9631 24.7356L3.69952 21.8436C3.32605 21.482 2.82769 21.2647 2.29887 21.233C1.77006 21.2014 1.24753 21.3574 0.830301 21.6716C0.413075 21.9858 0.130137 22.4363 0.0351038 22.9378C-0.0599295 23.4393 0.0395438 23.957 0.314674 24.3926Z" fill="#FFB8B8"/>
<path d="M19.5267 39.0612C17.5583 41.7119 17.6288 46.1465 18.1779 51H27.4846L27.8893 50.0916L28.4288 51H37.196C37.196 51 36.5216 38.6719 35.3076 38.2826C34.0937 37.8933 19.5267 39.0612 19.5267 39.0612Z" fill="#2F2E41"/>
<path d="M27.4845 11.3676C30.0917 11.3676 32.2052 9.33408 32.2052 6.82565C32.2052 4.31722 30.0917 2.28374 27.4845 2.28374C24.8772 2.28374 22.7637 4.31722 22.7637 6.82565C22.7637 9.33408 24.8772 11.3676 27.4845 11.3676Z" fill="#FFB8B8"/>
<path d="M30.8964 12.546L31.8196 14.2483L38.2049 16.9869L36.5264 32.6144L35.82 34.2327L36.2017 35.6381L35.2815 36.6753C36.2052 37.4794 36.3225 38.3211 35.82 39.1918L32.8796 39.8399C32.8796 39.8399 16.5301 41.2386 17.908 38.8017C19.4135 36.1391 19.7969 28.2755 16.4733 24.0734C13.6516 20.5059 15.8179 15.8767 15.8179 15.8767L22.5109 13.9523L24.9727 12.546L30.8964 12.546Z" fill="#3F3D56"/>
<path d="M29.5792 0.172467C29.6013 0.127308 29.6371 0.0895601 29.6817 0.0640697C29.7263 0.0385794 29.7779 0.0265107 29.8297 0.0294142C27.6685 -0.0949679 25.392 0.147389 23.5839 1.29326C23.1458 1.57087 22.7328 1.902 22.2561 2.10338C22.2336 2.1131 22.2141 2.12826 22.1995 2.14738C22.1849 2.1665 22.1757 2.18893 22.1728 2.21249C22.1698 2.23605 22.1733 2.25994 22.1828 2.28185C22.1923 2.30375 22.2075 2.32292 22.2269 2.33749L22.2793 2.37699C22.2999 2.39258 22.3158 2.41331 22.325 2.43694C22.3343 2.46058 22.3366 2.4862 22.3318 2.51102C22.327 2.53585 22.3152 2.55893 22.2977 2.57776C22.2802 2.59658 22.2577 2.61043 22.2326 2.61779C22.2064 2.62547 22.183 2.64018 22.1653 2.6602C22.1475 2.68022 22.136 2.70471 22.1322 2.73078C22.1285 2.75685 22.1325 2.78342 22.1439 2.80737C22.1553 2.83131 22.1735 2.85162 22.1965 2.86591L22.5977 3.1154C22.6179 3.12774 22.6346 3.14477 22.6462 3.16492C22.6578 3.18507 22.6639 3.2077 22.664 3.23073C22.6642 3.25376 22.6583 3.27645 22.6469 3.29672C22.6356 3.31699 22.6191 3.3342 22.599 3.34675C22.565 3.36695 22.5294 3.38436 22.4923 3.3988C22.4693 3.40712 22.4489 3.42102 22.4331 3.43914C22.4172 3.45726 22.4065 3.479 22.4019 3.50226C22.3974 3.52552 22.3991 3.54952 22.407 3.57195C22.4149 3.59437 22.4286 3.61446 22.4469 3.63029C22.6207 3.7791 22.754 3.96654 22.8351 4.17627C22.9689 4.51081 22.9929 4.87515 23.0155 5.23291C23.1537 4.7167 23.7392 4.41283 24.2924 4.38196C24.8455 4.35108 25.3849 4.52667 25.9232 4.65289C27.0957 4.92701 28.3134 4.97208 29.5042 4.78543C29.0998 5.56621 29.4409 6.49751 29.7842 7.30493L30.8953 6.84672C32.4213 6.01797 31.3584 9.52372 30.7879 10.005C31.9527 10.3935 35.0016 6.08112 34.0208 4.44532C33.5106 3.5944 33.8727 2.49692 32.8697 1.68988C32.3781 1.19196 31.3965 1.41327 30.8953 0.99944C30.6981 0.836564 30.9987 0.400811 30.7277 0.305846C30.6376 0.274304 29.5941 0.140677 29.5792 0.172467Z" fill="#2F2E41"/>
<path d="M21.5829 14.3919C20.7167 18.092 18.4949 26.7312 16.2408 28.5379C16.0978 28.6678 15.9264 28.7652 15.7392 28.8229C7.81607 30.6799 5.27734 25.9429 5.27734 25.9429C5.27734 25.9429 7.40064 24.9474 7.4545 23.0015L11.7365 24.2798L15.4692 16.1979L16.0185 15.705L16.0215 15.702L21.5829 14.3919Z" fill="#3F3D56"/>
<path d="M38.477 48.5603C38.7039 48.3504 38.8802 48.0953 38.9935 47.8128C39.1068 47.5303 39.1543 47.2274 39.1328 46.9253C39.1112 46.6233 39.0211 46.3294 38.8688 46.0645C38.7164 45.7996 38.5055 45.57 38.251 45.392L40.4721 38.3491L36.6611 39.4369L35.1361 45.9581C34.8536 46.3894 34.7453 46.9053 34.8318 47.4083C34.9182 47.9112 35.1934 48.3662 35.6053 48.6869C36.0171 49.0076 36.5369 49.1719 37.0661 49.1486C37.5954 49.1252 38.0974 48.9159 38.477 48.5603Z" fill="#FFB8B8"/>
<path d="M36.4443 16.5929L38.2047 16.9869C38.2047 16.9869 45.4812 30.608 43.7278 33.2034C41.9743 35.7988 39.8262 44.3914 39.8262 44.3914C39.8262 44.3914 36.6491 43.7837 35.4352 42.2265L37.6582 32.0355L35.3652 23.4707L36.4443 16.5929Z" fill="#3F3D56"/>
<path d="M3.04492 36.8198L3.10814 14.8822C3.10994 14.4382 3.29473 14.013 3.62197 13.6999C3.9492 13.3868 4.39216 13.2114 4.85366 13.2121L22.0739 13.258C22.5354 13.2598 22.9773 13.4376 23.3027 13.7524C23.6282 14.0672 23.8105 14.4934 23.8097 14.9374L23.7465 36.875C23.7447 37.319 23.5599 37.7442 23.2327 38.0573C22.9055 38.3704 22.4625 38.5458 22.001 38.5451L4.7808 38.4992C4.3193 38.4974 3.87735 38.3197 3.55193 38.0048C3.2265 37.69 3.04417 37.2638 3.04492 36.8198Z" fill="#E6E6E6"/>
<path d="M4.38478 30.1973L4.42541 16.0938C4.42709 15.678 4.60015 15.2797 4.90662 14.9865C5.21309 14.6933 5.62794 14.529 6.06015 14.5297L20.8595 14.5692C21.2917 14.5708 21.7056 14.7373 22.0104 15.0321C22.3152 15.327 22.4859 15.7261 22.4852 16.142L22.429 35.6634C22.4273 36.0793 22.2542 36.4775 21.9477 36.7707C21.6413 37.0639 21.2264 37.2282 20.7942 37.2275L11.6263 37.2031C9.70108 37.1959 7.85744 36.4542 6.49986 35.1408C5.14227 33.8274 4.38162 32.0495 4.38478 30.1973Z" fill="white"/>
<path d="M19.1637 20.7248H7.62402C7.44039 20.7248 7.26428 20.6546 7.13443 20.5297C7.00459 20.4047 6.93164 20.2353 6.93164 20.0586C6.93164 19.8819 7.00459 19.7125 7.13443 19.5876C7.26428 19.4627 7.44039 19.3925 7.62402 19.3925H19.1637C19.3473 19.3925 19.5234 19.4627 19.6533 19.5876C19.7831 19.7125 19.8561 19.8819 19.8561 20.0586C19.8561 20.2353 19.7831 20.4047 19.6533 20.5297C19.5234 20.6546 19.3473 20.7248 19.1637 20.7248Z" fill="#5F27CD"/>
<path d="M10.1627 17.6531H7.62402C7.44039 17.6531 7.26428 17.5829 7.13443 17.458C7.00459 17.3331 6.93164 17.1636 6.93164 16.9869C6.93164 16.8103 7.00459 16.6408 7.13443 16.5159C7.26428 16.391 7.44039 16.3208 7.62402 16.3208H10.1627C10.3464 16.3208 10.5225 16.391 10.6523 16.5159C10.7822 16.6408 10.8551 16.8103 10.8551 16.9869C10.8551 17.1636 10.7822 17.3331 10.6523 17.458C10.5225 17.5829 10.3464 17.6531 10.1627 17.6531Z" fill="#5F27CD"/>
<path d="M19.1637 23.7964H7.62402C7.44039 23.7964 7.26428 23.7263 7.13443 23.6013C7.00459 23.4764 6.93164 23.307 6.93164 23.1303C6.93164 22.9536 7.00459 22.7842 7.13443 22.6593C7.26428 22.5343 7.44039 22.4641 7.62402 22.4641H19.1637C19.3473 22.4641 19.5234 22.5343 19.6533 22.6593C19.7831 22.7842 19.8561 22.9536 19.8561 23.1303C19.8561 23.307 19.7831 23.4764 19.6533 23.6013C19.5234 23.7263 19.3473 23.7964 19.1637 23.7964Z" fill="#5F27CD"/>
<path d="M19.1637 26.8681H7.62402C7.44039 26.8681 7.26428 26.7979 7.13443 26.673C7.00459 26.5481 6.93164 26.3786 6.93164 26.202C6.93164 26.0253 7.00459 25.8558 7.13443 25.7309C7.26428 25.606 7.44039 25.5358 7.62402 25.5358H19.1637C19.3473 25.5358 19.5234 25.606 19.6533 25.7309C19.7831 25.8558 19.8561 26.0253 19.8561 26.202C19.8561 26.3786 19.7831 26.5481 19.6533 26.673C19.5234 26.7979 19.3473 26.8681 19.1637 26.8681Z" fill="#5F27CD"/>
<path d="M18.2296 34.9618C19.7511 34.9618 20.9846 33.7751 20.9846 32.3112C20.9846 30.8474 19.7511 29.6606 18.2296 29.6606C16.7081 29.6606 15.4746 30.8474 15.4746 32.3112C15.4746 33.7751 16.7081 34.9618 18.2296 34.9618Z" fill="#5F27CD"/>
<path d="M17.8551 33.6907C17.8075 33.6907 17.7606 33.6801 17.7181 33.6596C17.6755 33.6391 17.6385 33.6094 17.61 33.5728L16.8584 32.6086C16.8342 32.5776 16.8166 32.5424 16.8065 32.5048C16.7965 32.4673 16.7943 32.4283 16.7999 32.3899C16.8056 32.3515 16.8191 32.3146 16.8396 32.2813C16.8601 32.2479 16.8872 32.2188 16.9195 32.1955C16.9517 32.1723 16.9883 32.1554 17.0274 32.1458C17.0664 32.1362 17.107 32.1341 17.1469 32.1396C17.1867 32.1451 17.2251 32.1581 17.2597 32.1779C17.2943 32.1976 17.3246 32.2238 17.3487 32.2548L17.8404 32.8856L19.1034 31.063C19.1256 31.0306 19.1543 31.0028 19.1878 30.9812C19.2212 30.9595 19.2588 30.9444 19.2983 30.9367C19.3378 30.9291 19.3786 30.929 19.4181 30.9365C19.4577 30.944 19.4953 30.9589 19.5289 30.9804C19.5624 31.0019 19.5912 31.0296 19.6136 31.0619C19.6361 31.0941 19.6516 31.1303 19.6595 31.1684C19.6673 31.2064 19.6673 31.2456 19.6594 31.2837C19.6515 31.3217 19.6358 31.3579 19.6133 31.3901L18.1101 33.5594C18.0829 33.5987 18.0464 33.6311 18.0035 33.6539C17.9606 33.6767 17.9126 33.6893 17.8637 33.6906C17.8608 33.6907 17.858 33.6907 17.8551 33.6907Z" fill="white"/>
<path d="M12.3547 8.10499C13.077 8.10499 13.6625 7.54164 13.6625 6.84672C13.6625 6.15179 13.077 5.58844 12.3547 5.58844C11.6324 5.58844 11.0469 6.15179 11.0469 6.84672C11.0469 7.54164 11.6324 8.10499 12.3547 8.10499Z" fill="#F2F2F2"/>
<path d="M7.58517 44.2989C8.30747 44.2989 8.893 43.7356 8.893 43.0407C8.893 42.3457 8.30747 41.7824 7.58517 41.7824C6.86288 41.7824 6.27734 42.3457 6.27734 43.0407C6.27734 43.7356 6.86288 44.2989 7.58517 44.2989Z" fill="#F2F2F2"/>
<path d="M37.6653 12.9901C38.3875 12.9901 38.9731 12.4267 38.9731 11.7318C38.9731 11.0369 38.3875 10.4735 37.6653 10.4735C36.943 10.4735 36.3574 11.0369 36.3574 11.7318C36.3574 12.4267 36.943 12.9901 37.6653 12.9901Z" fill="#F2F2F2"/>
</g>
<defs>
<clipPath id="clip0_430_165">
<rect width="44" height="51" fill="white"/>
</clipPath>
</defs>
</svg>
