<svg width="183" height="89" viewBox="0 0 183 89" fill="none" xmlns="http://www.w3.org/2000/svg">
<g clip-path="url(#clip0_365_240)">
<path d="M142.948 13.3713H98.0746V12.4308H77.7271V13.3713H32.6684C31.8633 13.3713 31.0912 13.6966 30.5219 14.2755C29.9526 14.8545 29.6328 15.6397 29.6328 16.4585V78.9465C29.6328 79.7653 29.9526 80.5505 30.5219 81.1294C31.0912 81.7084 31.8633 82.0336 32.6684 82.0336H142.948C143.754 82.0336 144.526 81.7084 145.095 81.1294C145.664 80.5505 145.984 79.7653 145.984 78.9465V16.4581C145.984 15.6394 145.664 14.8543 145.095 14.2754C144.526 13.6965 143.754 13.3713 142.948 13.3713Z" fill="#3F3D56"/>
<path d="M141.915 18.8266H33.7031V80.9047H141.915V18.8266Z" fill="#E6E6E6"/>
<path d="M137.363 22.1095H38.293V75.7682H137.363V22.1095Z" fill="white"/>
<path d="M87.7173 17.1338C88.3303 17.1338 88.8272 16.6284 88.8272 16.005C88.8272 15.3817 88.3303 14.8763 87.7173 14.8763C87.1043 14.8763 86.6074 15.3817 86.6074 16.005C86.6074 16.6284 87.1043 17.1338 87.7173 17.1338Z" fill="#6C63FF"/>
<path d="M149.023 79.776H138.463V79.0021C138.463 78.9614 138.447 78.9224 138.418 78.8936C138.39 78.8648 138.352 78.8486 138.312 78.8486H134.691C134.651 78.8486 134.612 78.8648 134.584 78.8936C134.556 78.9224 134.54 78.9614 134.54 79.0021V79.776H132.277V79.0021C132.277 78.9614 132.261 78.9224 132.233 78.8936C132.204 78.8648 132.166 78.8486 132.126 78.8486H128.505C128.465 78.8486 128.427 78.8648 128.398 78.8936C128.37 78.9224 128.354 78.9614 128.354 79.0021V79.776H126.091V79.0021C126.091 78.9614 126.075 78.9224 126.047 78.8936C126.019 78.8648 125.98 78.8486 125.94 78.8486H122.32C122.28 78.8486 122.241 78.8648 122.213 78.8936C122.185 78.9224 122.169 78.9614 122.169 79.0021V79.776H119.906V79.0021C119.906 78.9614 119.89 78.9224 119.862 78.8936C119.833 78.8648 119.795 78.8486 119.755 78.8486H116.134C116.094 78.8486 116.056 78.8648 116.027 78.8936C115.999 78.9224 115.983 78.9614 115.983 79.0021V79.776H113.72V79.0021C113.72 78.9614 113.704 78.9224 113.676 78.8936C113.648 78.8648 113.609 78.8486 113.569 78.8486H109.949C109.908 78.8486 109.87 78.8648 109.842 78.8936C109.813 78.9224 109.798 78.9614 109.798 79.0021V79.776H107.534V79.0021C107.534 78.9614 107.519 78.9224 107.49 78.8936C107.462 78.8648 107.424 78.8486 107.384 78.8486H103.764C103.724 78.8486 103.685 78.8648 103.657 78.8936C103.629 78.9224 103.613 78.9614 103.613 79.0021V79.776H101.349V79.0021C101.349 78.9614 101.333 78.9224 101.305 78.8936C101.276 78.8648 101.238 78.8486 101.198 78.8486H72.8349C72.7948 78.8486 72.7564 78.8648 72.7281 78.8936C72.6998 78.9224 72.6839 78.9614 72.6839 79.0021V79.776H70.421V79.0021C70.421 78.9614 70.4051 78.9224 70.3768 78.8936C70.3485 78.8648 70.3101 78.8486 70.2701 78.8486H66.6493C66.6092 78.8486 66.5708 78.8648 66.5425 78.8936C66.5142 78.9224 66.4983 78.9614 66.4983 79.0021V79.776H64.2354V79.0021C64.2354 78.9614 64.2195 78.9224 64.1912 78.8936C64.1629 78.8648 64.1245 78.8486 64.0845 78.8486H60.4638C60.4238 78.8486 60.3854 78.8648 60.3571 78.8936C60.3288 78.9224 60.3129 78.9614 60.3129 79.0021V79.776H58.0498V79.0021C58.0498 78.9614 58.0339 78.9224 58.0056 78.8936C57.9773 78.8648 57.9389 78.8486 57.8989 78.8486H54.2782C54.2382 78.8486 54.1998 78.8648 54.1715 78.8936C54.1432 78.9224 54.1273 78.9614 54.1273 79.0021V79.776H51.8647V79.0021C51.8647 78.9614 51.8488 78.9224 51.8205 78.8936C51.7922 78.8648 51.7538 78.8486 51.7138 78.8486H48.0926C48.0526 78.8486 48.0142 78.8648 47.9859 78.8936C47.9576 78.9224 47.9417 78.9614 47.9417 79.0021V79.776H45.6788V79.0021C45.6788 78.9614 45.6629 78.9224 45.6346 78.8936C45.6063 78.8648 45.5679 78.8486 45.5278 78.8486H41.907C41.867 78.8486 41.8286 78.8648 41.8003 78.8936C41.772 78.9224 41.7561 78.9614 41.7561 79.0021V79.776H39.4932V79.0021C39.4932 78.9614 39.4773 78.9224 39.449 78.8936C39.4207 78.8648 39.3823 78.8486 39.3422 78.8486H35.7207C35.6807 78.8486 35.6423 78.8648 35.614 78.8936C35.5857 78.9224 35.5698 78.9614 35.5698 79.0021V79.776H28.6306C27.6703 79.776 26.7493 80.1639 26.0703 80.8545C25.3912 81.5451 25.0098 82.4817 25.0098 83.4583V85.1232C25.0098 86.0998 25.3912 87.0364 26.0703 87.727C26.7493 88.4175 27.6703 88.8055 28.6306 88.8055H149.023C149.984 88.8055 150.904 88.4176 151.583 87.727C152.263 87.0365 152.644 86.1 152.644 85.1234V83.4584C152.644 82.4818 152.263 81.5452 151.584 80.8547C150.905 80.1641 149.984 79.7762 149.023 79.7762V79.776Z" fill="#3F3D56"/>
<path d="M109.733 25.873H65.9238V72.7061H109.733V25.873Z" fill="#E6E6E6"/>
<path d="M183 88.6492H0V89H183V88.6492Z" fill="#E6E6E6"/>
<path d="M165.227 76.3945C167.707 79.1003 167.835 83.0775 167.835 83.0775C167.835 83.0775 163.943 82.6673 161.463 79.9616C158.984 77.2558 158.855 73.2786 158.855 73.2786C158.855 73.2786 162.747 73.6887 165.227 76.3945Z" fill="#6C63FF"/>
<path d="M173.032 80.6181C170.372 83.1397 166.461 83.2701 166.461 83.2701C166.461 83.2701 166.864 79.312 169.525 76.7904C172.186 74.2688 176.096 74.1385 176.096 74.1385C176.096 74.1385 175.693 78.0965 173.032 80.6181Z" fill="#6C63FF"/>
<path d="M172.371 88.649H162.585C162.397 88.6491 162.213 88.5954 162.054 88.4941C161.895 88.3929 161.767 88.2481 161.685 88.0763L159.554 83.6223C159.48 83.4671 159.446 83.2952 159.455 83.1228C159.463 82.9504 159.515 82.7832 159.605 82.6368C159.695 82.4904 159.821 82.3698 159.969 82.2862C160.118 82.2026 160.285 82.1589 160.454 82.159H174.502C174.672 82.1589 174.839 82.2026 174.988 82.2862C175.136 82.3698 175.261 82.4905 175.351 82.6368C175.441 82.7832 175.493 82.9504 175.502 83.1228C175.511 83.2952 175.477 83.4671 175.402 83.6223L173.272 88.0765C173.19 88.2483 173.062 88.3931 172.903 88.4943C172.743 88.5956 172.559 88.6493 172.372 88.6492L172.371 88.649Z" fill="#E5E5E5"/>
<path d="M10.5141 76.3945C12.9937 79.1003 13.1218 83.0775 13.1218 83.0775C13.1218 83.0775 9.22984 82.6673 6.75029 79.9616C4.27073 77.2558 4.14258 73.2786 4.14258 73.2786C4.14258 73.2786 8.03456 73.6887 10.5141 76.3945Z" fill="#E5E5E5"/>
<path d="M16.1058 88.649H6.3195C6.13172 88.6491 5.94772 88.5954 5.78853 88.4941C5.62934 88.3929 5.5014 88.2481 5.41933 88.0763L3.2887 83.6223C3.2143 83.4671 3.17995 83.2952 3.18889 83.1228C3.19783 82.9504 3.24976 82.7832 3.3398 82.6368C3.42984 82.4904 3.55502 82.3698 3.70356 82.2862C3.85209 82.2026 4.01911 82.1589 4.18887 82.159H18.2366C18.4063 82.1589 18.5733 82.2026 18.7219 82.2862C18.8704 82.3698 18.9956 82.4904 19.0856 82.6368C19.1757 82.7832 19.2276 82.9504 19.2365 83.1228C19.2455 83.2952 19.2111 83.4671 19.1367 83.6223L17.0061 88.0765C16.924 88.2483 16.7961 88.3931 16.6369 88.4943C16.4777 88.5956 16.2937 88.6493 16.1059 88.6492L16.1058 88.649Z" fill="#E5E5E5"/>
<path d="M93.1134 39.1306C96.329 39.1306 98.9357 36.4796 98.9357 33.2095C98.9357 29.9393 96.329 27.2883 93.1134 27.2883C89.8978 27.2883 87.291 29.9393 87.291 33.2095C87.291 36.4796 89.8978 39.1306 93.1134 39.1306Z" fill="#A0616A"/>
<path d="M79.7168 72.8026L83.4768 48.7305C83.6768 47.4507 84.1424 46.2288 84.8428 45.1462C85.5432 44.0635 86.4622 43.145 87.5388 42.4517C88.6154 41.7584 89.8248 41.3062 91.0866 41.1252C92.3484 40.9442 93.6337 41.0385 94.8568 41.4019C96.9954 42.031 98.8266 43.4482 99.9927 45.3768C101.159 47.3054 101.576 49.6068 101.163 51.8315L97.2303 73.329L79.7168 72.8026Z" fill="#6C63FF"/>
<path d="M94.7207 77.1097C95.0115 76.9143 95.2566 76.6566 95.4389 76.3545C95.6211 76.0524 95.736 75.7134 95.7755 75.3613C95.8149 75.0091 95.778 74.6525 95.6673 74.3165C95.5566 73.9804 95.3747 73.6732 95.1346 73.4163L99.0214 65.7618L94.6443 66.2368L91.6243 73.433C91.2284 73.8722 91.0044 74.4436 90.9945 75.0393C90.9846 75.6351 91.1895 76.2139 91.5706 76.6664C91.9517 77.119 92.4825 77.4139 93.0629 77.4956C93.6432 77.5773 94.2329 77.4401 94.7205 77.1098L94.7207 77.1097Z" fill="#A0616A"/>
<path d="M95.5527 72.0662C95.3377 72.0353 95.1371 71.9385 94.9775 71.7887L93.4904 70.3913C93.3298 70.2396 93.2188 70.0414 93.1726 69.8235C93.1263 69.6056 93.1469 69.3785 93.2317 69.1729L96.2038 62.0085L95.7821 47.8524C95.9053 46.9341 96.3822 46.1031 97.1079 45.5423C97.8335 44.9815 98.7485 44.7368 99.6516 44.8621C100.555 44.9873 101.372 45.4723 101.923 46.2103C102.475 46.9483 102.715 47.8788 102.592 48.7972L103.313 57.696C103.532 60.3968 102.779 63.0866 101.194 65.2651L96.5593 71.6374C96.4701 71.7598 96.3566 71.8618 96.2261 71.9367C96.0957 72.0117 95.9511 72.0578 95.802 72.0722C95.7189 72.0802 95.6353 72.0782 95.5527 72.0662Z" fill="#6C63FF"/>
<path d="M59.5844 29.9834C59.6478 30.3319 59.7856 30.662 59.9881 30.9504C60.1905 31.2389 60.4527 31.4787 60.7562 31.653C61.0596 31.8272 61.3969 31.9317 61.7444 31.9591C62.0918 31.9864 62.4409 31.936 62.7671 31.8113L68.183 38.4356L69.4593 34.1512L64.1208 28.5174C63.8772 27.9757 63.4471 27.5435 62.9117 27.3022C62.3762 27.0609 61.7725 27.0273 61.2143 27.2077C60.6562 27.3881 60.1823 27.77 59.882 28.2813C59.5818 28.7927 59.4758 29.3981 59.5844 29.9834Z" fill="#A0616A"/>
<path d="M63.8273 32.7292C63.9391 32.5399 64.105 32.3898 64.3028 32.2988L66.1483 31.451C66.3483 31.3597 66.5711 31.3331 66.7865 31.3747C67.0018 31.4163 67.1995 31.5242 67.3526 31.6838L72.6811 37.2604L85.664 42.3849C86.0523 42.6192 86.3914 42.9289 86.6619 43.2965C86.9324 43.6641 87.1291 44.0823 87.2406 44.5272C87.3521 44.9721 87.3764 45.435 87.3119 45.8895C87.2475 46.3439 87.0956 46.781 86.865 47.1757C86.6344 47.5704 86.3296 47.9151 85.9679 48.1899C85.6063 48.4648 85.1949 48.6645 84.7574 48.7776C84.3198 48.8908 83.8646 48.9151 83.4178 48.8493C82.971 48.7834 82.5413 48.6287 82.1533 48.3939L73.8145 45.5994C71.2834 44.7516 69.1414 42.9977 67.7867 40.664L63.8238 33.839C63.7477 33.7077 63.6996 33.5617 63.6827 33.4103C63.6657 33.2589 63.6802 33.1055 63.7253 32.9602C63.7504 32.8794 63.7848 32.8019 63.8278 32.7294L63.8273 32.7292Z" fill="#6C63FF"/>
<path opacity="0.1" d="M97.8364 53.7411L97.5994 61.4556L93.2324 69.1734L96.8788 60.5733L97.8364 53.7411Z" fill="black"/>
<path d="M89.1711 30.2416C89.7717 30.9645 90.7879 31.1683 91.7255 31.2519C93.6295 31.4217 96.3982 31.1467 98.2589 30.7094C98.3917 32.0185 98.0296 33.4298 98.7877 34.5066C99.1431 33.2029 99.3498 31.862 99.4036 30.5103C99.4265 29.9315 99.4176 29.3309 99.1859 28.7987C98.9543 28.2665 98.4491 27.8149 97.8673 27.8101C98.2996 27.4767 98.8058 27.2566 99.3415 27.1692L97.4994 26.2278L97.9726 25.7339L94.6375 25.5264L95.6034 24.9023C94.1496 24.6993 92.6788 24.6523 91.2153 24.762C90.5358 24.8128 89.8252 24.9102 89.2746 25.3106C88.7241 25.7111 88.4058 26.5069 88.7477 27.0948C88.3197 27.1663 87.9168 27.3477 87.577 27.6218C87.2373 27.896 86.972 28.2538 86.8063 28.6614C86.5608 29.2942 86.5833 29.9973 86.659 30.6717C86.7846 31.7503 87.0312 32.8108 87.3937 33.8325" fill="#2F2E41"/>
<path d="M114.062 15.4083L61.0076 27.8646C60.7471 27.9254 60.4734 27.8787 60.2467 27.7346C60.02 27.5906 59.8588 27.3609 59.7983 27.0961L56.76 13.7124C56.7002 13.4474 56.7461 13.1691 56.8878 12.9386C57.0294 12.7081 57.2552 12.5441 57.5156 12.4826L110.57 0.0262701C110.83 -0.0345685 111.104 0.0121709 111.331 0.156234C111.557 0.300297 111.719 0.52992 111.779 0.794738L114.817 14.1785C114.877 14.4435 114.831 14.7217 114.69 14.9523C114.548 15.1828 114.322 15.3468 114.062 15.4083Z" fill="white"/>
<path d="M114.062 15.4083L61.0076 27.8646C60.7471 27.9254 60.4734 27.8787 60.2467 27.7346C60.02 27.5906 59.8588 27.3609 59.7983 27.0961L56.76 13.7124C56.7002 13.4474 56.7461 13.1691 56.8878 12.9386C57.0294 12.7081 57.2552 12.5441 57.5156 12.4826L110.57 0.0262701C110.83 -0.0345685 111.104 0.0121709 111.331 0.156234C111.557 0.300297 111.719 0.52992 111.779 0.794738L114.817 14.1785C114.877 14.4435 114.831 14.7217 114.69 14.9523C114.548 15.1828 114.322 15.3468 114.062 15.4083ZM57.6064 12.8823C57.4501 12.9192 57.3146 13.0176 57.2296 13.156C57.1446 13.2943 57.117 13.4613 57.1529 13.6203L60.1913 27.004C60.2275 27.163 60.3243 27.3008 60.4603 27.3873C60.5964 27.4737 60.7606 27.5017 60.9169 27.4652L113.971 15.0089C114.127 14.972 114.263 14.8736 114.348 14.7353C114.433 14.5969 114.46 14.4299 114.424 14.2709L111.386 0.886982C111.35 0.728043 111.253 0.590215 111.117 0.503757C110.981 0.417299 110.817 0.389278 110.66 0.425843L57.6064 12.8823Z" fill="#E6E6E6"/>
<path d="M76.0144 12.8409C75.9267 12.8613 75.8439 12.8991 75.7706 12.952C75.6973 13.005 75.6349 13.0721 75.5871 13.1496C75.5393 13.227 75.507 13.3133 75.492 13.4035C75.477 13.4936 75.4796 13.5859 75.4997 13.675C75.5198 13.7642 75.5569 13.8484 75.609 13.923C75.6611 13.9975 75.7271 14.0609 75.8033 14.1094C75.8795 14.158 75.9643 14.1909 76.053 14.2061C76.1417 14.2213 76.2324 14.2186 76.3201 14.1982L76.3224 14.1976L107.767 6.81481C107.944 6.77303 108.097 6.66167 108.193 6.50517C108.289 6.34867 108.32 6.15983 108.279 5.9801C108.239 5.80038 108.129 5.64447 107.976 5.54661C107.822 5.44874 107.636 5.41692 107.459 5.45813L76.0144 12.8409Z" fill="#E6E6E6"/>
<path d="M76.9382 16.9112C76.8506 16.9315 76.7677 16.9693 76.6944 17.0223C76.6211 17.0752 76.5588 17.1423 76.511 17.2198C76.4632 17.2972 76.4308 17.3835 76.4158 17.4737C76.4008 17.5638 76.4035 17.6561 76.4235 17.7453C76.4436 17.8344 76.4807 17.9186 76.5328 17.9932C76.5849 18.0677 76.651 18.1311 76.7271 18.1796C76.8033 18.2282 76.8882 18.2611 76.9768 18.2763C77.0655 18.2915 77.1562 18.2888 77.2439 18.2684L77.2462 18.2678L90.7771 15.091C90.954 15.0497 91.1076 14.9387 91.204 14.7823C91.3004 14.6259 91.3318 14.4369 91.2913 14.257C91.2508 14.0771 91.1416 13.9209 90.9879 13.8227C90.8341 13.7246 90.6484 13.6926 90.4714 13.7338L90.4691 13.7343L76.9382 16.9112Z" fill="#E6E6E6"/>
<path d="M67.418 21.8619C69.6864 21.8619 71.5254 19.9918 71.5254 17.6848C71.5254 15.3779 69.6864 13.5077 67.418 13.5077C65.1495 13.5077 63.3105 15.3779 63.3105 17.6848C63.3105 19.9918 65.1495 21.8619 67.418 21.8619Z" fill="#6C63FF"/>
<path d="M67.3019 20.0945C67.1674 20.1263 67.0265 20.1127 66.9003 20.0559L66.8924 20.0524L65.2397 19.2894C65.163 19.254 65.0938 19.2036 65.0363 19.1411C64.9787 19.0785 64.9338 19.005 64.9042 18.9248C64.8746 18.8446 64.8608 18.7593 64.8636 18.6736C64.8665 18.588 64.8859 18.5038 64.9208 18.4258C64.9557 18.3478 65.0053 18.2776 65.0669 18.2191C65.1285 18.1606 65.2008 18.1151 65.2797 18.0851C65.3586 18.0551 65.4426 18.0412 65.5268 18.0442C65.611 18.0472 65.6938 18.0671 65.7704 18.1027L66.8413 18.5985L68.3437 15.2412C68.4141 15.0841 68.543 14.9617 68.702 14.9012C68.861 14.8406 69.0372 14.8468 69.1918 14.9183L69.1828 14.9402L69.1923 14.9182C69.3467 14.9899 69.4669 15.121 69.5264 15.2827C69.5859 15.4444 69.5799 15.6236 69.5097 15.7808L67.7428 19.7302C67.7018 19.8211 67.6408 19.9013 67.5644 19.9644C67.4881 20.0276 67.3984 20.072 67.3025 20.0942L67.3019 20.0945Z" fill="white"/>
</g>
<defs>
<clipPath id="clip0_365_240">
<rect width="183" height="89" fill="white"/>
</clipPath>
</defs>
</svg>
