<svg width="75" height="75" viewBox="0 0 75 75" fill="none" xmlns="http://www.w3.org/2000/svg">
<mask id="mask0_440_229" style="mask-type:alpha" maskUnits="userSpaceOnUse" x="0" y="0" width="75" height="75">
<rect width="75" height="75" fill="#D9D9D9"/>
</mask>
<g mask="url(#mask0_440_229)">
<path d="M18.0312 53.1875C20.6875 51.1562 23.6562 49.5547 26.9375 48.3828C30.2188 47.2109 33.6562 46.625 37.25 46.625C40.8438 46.625 44.2812 47.2109 47.5625 48.3828C50.8438 49.5547 53.8125 51.1562 56.4688 53.1875C58.2917 51.0521 59.7109 48.6302 60.7266 45.9219C61.7422 43.2135 62.25 40.3229 62.25 37.25C62.25 30.3229 59.8151 24.4245 54.9453 19.5547C50.0755 14.6849 44.1771 12.25 37.25 12.25C30.3229 12.25 24.4245 14.6849 19.5547 19.5547C14.6849 24.4245 12.25 30.3229 12.25 37.25C12.25 40.3229 12.7578 43.2135 13.7734 45.9219C14.7891 48.6302 16.2083 51.0521 18.0312 53.1875ZM37.25 40.375C34.1771 40.375 31.5859 39.3203 29.4766 37.2109C27.3672 35.1016 26.3125 32.5104 26.3125 29.4375C26.3125 26.3646 27.3672 23.7734 29.4766 21.6641C31.5859 19.5547 34.1771 18.5 37.25 18.5C40.3229 18.5 42.9141 19.5547 45.0234 21.6641C47.1328 23.7734 48.1875 26.3646 48.1875 29.4375C48.1875 32.5104 47.1328 35.1016 45.0234 37.2109C42.9141 39.3203 40.3229 40.375 37.25 40.375ZM37.25 68.5C32.9271 68.5 28.8646 67.6797 25.0625 66.0391C21.2604 64.3984 17.9531 62.1719 15.1406 59.3594C12.3281 56.5469 10.1016 53.2396 8.46094 49.4375C6.82031 45.6354 6 41.5729 6 37.25C6 32.9271 6.82031 28.8646 8.46094 25.0625C10.1016 21.2604 12.3281 17.9531 15.1406 15.1406C17.9531 12.3281 21.2604 10.1016 25.0625 8.46094C28.8646 6.82031 32.9271 6 37.25 6C41.5729 6 45.6354 6.82031 49.4375 8.46094C53.2396 10.1016 56.5469 12.3281 59.3594 15.1406C62.1719 17.9531 64.3984 21.2604 66.0391 25.0625C67.6797 28.8646 68.5 32.9271 68.5 37.25C68.5 41.5729 67.6797 45.6354 66.0391 49.4375C64.3984 53.2396 62.1719 56.5469 59.3594 59.3594C56.5469 62.1719 53.2396 64.3984 49.4375 66.0391C45.6354 67.6797 41.5729 68.5 37.25 68.5ZM37.25 62.25C40.0104 62.25 42.6146 61.8464 45.0625 61.0391C47.5104 60.2318 49.75 59.0729 51.7812 57.5625C49.75 56.0521 47.5104 54.8932 45.0625 54.0859C42.6146 53.2786 40.0104 52.875 37.25 52.875C34.4896 52.875 31.8854 53.2786 29.4375 54.0859C26.9896 54.8932 24.75 56.0521 22.7188 57.5625C24.75 59.0729 26.9896 60.2318 29.4375 61.0391C31.8854 61.8464 34.4896 62.25 37.25 62.25ZM37.25 34.125C38.6042 34.125 39.724 33.6823 40.6094 32.7969C41.4948 31.9115 41.9375 30.7917 41.9375 29.4375C41.9375 28.0833 41.4948 26.9635 40.6094 26.0781C39.724 25.1927 38.6042 24.75 37.25 24.75C35.8958 24.75 34.776 25.1927 33.8906 26.0781C33.0052 26.9635 32.5625 28.0833 32.5625 29.4375C32.5625 30.7917 33.0052 31.9115 33.8906 32.7969C34.776 33.6823 35.8958 34.125 37.25 34.125Z" fill="#5F27CD"/>
</g>
</svg>
