<svg id="Layer_1" data-name="Layer 1" xmlns="http://www.w3.org/2000/svg" viewBox="0 0 1000 1000"><defs><style>.cls-1,.cls-2{fill:#ffa31a;}.cls-1,.cls-3{fill-rule:evenodd;}.cls-3{fill:#1a53e2;}.cls-4{font-size:103.03px;font-family:GrandesignNeueRoman, Grandesign Neue Roman;}</style></defs><path class="cls-1" d="M455.28,557.42c-.57-.23-1.13-.46-1.69-.67a76.58,76.58,0,0,1-9.57-5H433.23a52.15,52.15,0,0,0,10.14,3.8,51.42,51.42,0,0,0,11.91,1.85ZM432,542.11a59.55,59.55,0,0,1-8.38-11c-.34-.56-.68-1.18-1-1.8H409.05a69.54,69.54,0,0,0,10.41,12.83Zm-14-22.5a54,54,0,0,1-4-12.75h-15a100.76,100.76,0,0,0,4.79,12.75Zm-5.55-22.43-.1-.9a29.12,29.12,0,0,1-.8-4.57c0-.82-.09-1.69-.09-2.53l-.28-4.74H395.05l.22,4.18c.09.51.12,1.09.24,1.57a32.3,32.3,0,0,1,.55,4.25l.57,2.74Zm-1.16-22.48.06-3.13v-.16c.17-3.2.38-6.33.7-9.47H395.51a6.4,6.4,0,0,0-.06,1.08c-.23,3.83-.35,7.76-.4,11.68Zm2.06-22.43c.24-1.4.44-2.8.74-4.13.46-2.92,1-5.78,1.56-8.62H398.31c-.85,4.32-1.47,8.58-2,12.75ZM418,429.85c.44-1.69,1-3.31,1.46-4.91l2.3-7.83h-18q-1.83,6.36-3.34,12.74Zm6.9-22.48,1.52-4.6,0-.2c1-2.66,2.06-5.31,3.15-8H411.35c-1.63,4.2-3.13,8.52-4.6,12.76Zm8.89-22.44c.66-1.44,1.32-2.89,2-4.36,1.35-2.77,2.76-5.58,4.15-8.37H421.06c-2,4.12-3.87,8.37-5.75,12.73Zm11.29-22.41c.56-1,1.15-2,1.68-3,1.74-3.31,3.57-6.6,5.53-9.86h-19c-1.1,1.8-2.18,3.53-3.3,5.33-1.34,2.4-2.73,4.91-4.06,7.49ZM458.46,340c.31-.4.56-.84.84-1.24,2.68-3.86,5.48-7.72,8.28-11.52h-19c-1.35,1.84-2.74,3.75-4,5.66-1.68,2.33-3.3,4.74-4.91,7.1Z"/><path class="cls-1" d="M372.13,252.91Q337.78,272,312.4,306.31,266.32,368,266.3,454.19q0,97.29,69.14,167.5T502,691.92q84.8,0,162.77-64.65v5.93Q595.65,700.08,502,700.08q-99.58,0-171.7-72.81T258.12,454.19q0-91.38,50.54-155.26,20-25.24,58.25-51.68Z"/><path class="cls-2" d="M613.45,245.3c-25.73-17.23-56-16.33-84.09-5.21a150.54,150.54,0,0,0-14.71,6.71,105.36,105.36,0,0,0-13.55,7.44c-.71.45-1.46,1-2.18,1.46l0,.06,10.87,12.8c3.9,4.53,7.74,9,11.53,13.54.94,1.17,1.85,2.29,2.81,3.41.73-.51,1.43-1.07,2.17-1.58,3.23-2.33,6.75-4.69,10.57-6.92q5.31-3,10.87-5.71a85.3,85.3,0,0,1,11.75-4.75,74,74,0,0,1,24.62-4c2.24.22,4.35.45,6.37.68a27.51,27.51,0,0,1,5.93,1.33c32.19,9.07,29.45,36,22.66,56.32a85.25,85.25,0,0,1-4.64,11.92c-1.83,3.69-3.85,7.43-6.15,11.12a146.7,146.7,0,0,1-16.44,21c-6.18,6.59,12.15-5,21.26-18.8a99.64,99.64,0,0,0,12.14-23.43C635.41,297.87,639.11,266.39,613.45,245.3Zm-12.9,7.27a44.69,44.69,0,0,0-9-2c-2.17-.29-4.37-.5-6.54-.72l-.78-.07h-.85a88.65,88.65,0,0,0-29.54,4.87,101.84,101.84,0,0,0-13.43,5.42c-4,1.91-8,4-11.76,6.22-.73.39-1.46.83-2.17,1.29-1.86-2.18-3.76-4.32-5.61-6.5l-1.6-1.9c.75-.38,1.6-.73,2.4-1.11L522,258l.22-.17c4.38-2.23,8.84-4.25,13.49-6.09,21.14-8.45,44.7-10.68,65.48,1C600.93,252.68,600.73,252.62,600.55,252.57Z"/><path class="cls-3" d="M516,207.83h8.84l8.83-.78c3.08-.51,5.94-1.07,8.56-1.68s5.49-1.46,8.53-2.46A80.59,80.59,0,0,0,579.41,186a64.52,64.52,0,0,0,10.52-11.85,73.45,73.45,0,0,0,7.42-14.1,34.64,34.64,0,0,0,2.06-7.55c.45-2.52.87-5.15,1.32-7.89a58.89,58.89,0,0,0,.59-7.94,29.29,29.29,0,0,0-1-7.49c-.35-1.29-.62-2.52-.87-3.8a13.07,13.07,0,0,0-1.26-3.75,28.81,28.81,0,0,0-3.35-7.16A44.76,44.76,0,0,0,583.92,102c-23.39-18.57-51.36-14.43-72.86,1.5-2,1.51-4.09,3.14-6.26,4.92a82.64,82.64,0,0,0-10.74,11.3,87.35,87.35,0,0,0-14.59,26c-.76,2.46-1.4,4.87-2.16,7.1A59.84,59.84,0,0,0,475.6,160l-1.27,7.55c0,.5,0,1.06-.08,1.67a8,8,0,0,0-.12,2.08l.06,1.51a1,1,0,0,1-.18.79,1.93,1.93,0,0,0-.12,1.1c.12,2.52.3,5,.4,7.34a63,63,0,0,0,.84,7.38c.68,2.23,1.3,4.59,1.85,6.93a51.93,51.93,0,0,0,2.35,7.38,93.08,93.08,0,0,0,6.27,13.94,133.51,133.51,0,0,0,8.32,13.13c1.55,2.3,3.17,4.53,4.82,6.82s3.42,4.49,5.22,6.77l10.86,12.81c3.91,4.53,7.79,9,11.52,13.53s7.51,9.18,11.13,13.92,7.23,9.63,10.77,14.54a124.92,124.92,0,0,1,9.55,15.62c21.82,39,22.5,80.85,6.66,119.39-1.22,2.76-2.58,5.35-4,7.89-25.3,45.13-80,66.72-135.77,66.16-.84-3.59-1.62-7.42-2.29-11.58,22.87-3.35,44.49-12.75,59.09-26.52a87.1,87.1,0,0,0,18.07-24.42,76.21,76.21,0,0,0,3.41-6.83c1-2.24,2-4.66,3-7.15l4.23-14.65c.44-2.54.85-5,1.31-7.41s.84-4.92,1.23-7.71l.84-7.47-.18-3.83a12.87,12.87,0,0,0,.24-3.75c-.18-2.51-.36-5-.45-7.53s-.45-5-.84-7.52-.84-4.95-1.3-7.36a66.46,66.46,0,0,0-1.68-7.33c-.64-2.51-1.46-5-2.28-7.32A67.92,67.92,0,0,0,504,342.5c-1-2.24-2-4.54-3.13-6.95a48.52,48.52,0,0,0-4.05-7,112.65,112.65,0,0,0-8.53-13.7q-4.81-6.62-9.87-13.42c-3.29-4.26-6.9-8.56-10.65-13s-7.58-8.83-11.49-13.36c-1.81-2.24-3.73-4.54-5.66-6.77a82.43,82.43,0,0,1-5.65-7.16c-1.87-2.23-3.65-4.59-5.48-7a58.4,58.4,0,0,1-5.12-7.72c-1.49-2.52-3.05-5.08-4.61-7.71s-3.16-5.32-4.72-8.06a67.71,67.71,0,0,1-4-8.5c-1.19-2.91-2.25-5.71-3.26-8.51s-1.83-5.91-2.55-8.83a78.15,78.15,0,0,1-1.82-8.84,98.56,98.56,0,0,1-1-18.06,4.4,4.4,0,0,0,.29-2.29l-.07-1.52.4-.71-.06-.4a13.21,13.21,0,0,1,.62-4.14,40.66,40.66,0,0,1,1.64-8.68c.64-3,1.43-5.86,2.28-8.66a62.49,62.49,0,0,1,3.07-8.28,103.31,103.31,0,0,1,19.87-29.75c29.17-28.19,87.7-42.95,131.79-26.22a64.27,64.27,0,0,1,16.56,10.18,48.06,48.06,0,0,1,11.81,14.31c.62,1.23,1.28,2.58,1.9,3.91s1.27,2.86,2,4.36l2.13,8.28a59.07,59.07,0,0,1,.7,8.5,56,56,0,0,1-.62,8.45,53.35,53.35,0,0,1-4.11,16.55,76.76,76.76,0,0,1-19.14,27.92,85.3,85.3,0,0,1-30.22,18.45A100.86,100.86,0,0,1,516.39,215a2.85,2.85,0,0,1-2.8-.79,6.64,6.64,0,0,1-1.63-2.63c-.11-2.52,1.24-3.74,4-3.74Zm-132.36,296c-2.73-.56-5.54-1.24-8.23-1.9-3.18-1-6.23-2-9.27-3a57.67,57.67,0,0,1-8.86-3.73,76.56,76.56,0,0,1-16.18-9.78,64.68,64.68,0,0,1-13-13.21,81.63,81.63,0,0,1-9.34-15.45c-19.31-53.39,9.45-116.15,61-144A155.67,155.67,0,0,1,396.45,305c2.75-1.23,4.87-.51,6.43,2.3,1,2.51.24,4.36-2.16,5.63h-.46l-7.85,3-7.81,3.36C337.09,345,302.12,403.75,325,454.85a66.93,66.93,0,0,0,8.35,13.92,68.21,68.21,0,0,0,26.93,20.36,94.38,94.38,0,0,0,22,6.93c.38,2.58.84,5.21,1.34,7.79Zm77.4-351H438.37a37.68,37.68,0,0,0-1.44,4.09c-.78,2.58-1.46,5.19-2,7.82l-.13.41-.11.33c-.09.45-.22.89-.34,1.34h24.36V167a24.19,24.19,0,0,0-.18,4.08,17.52,17.52,0,0,0-.2,3.68l.15,2.81H433.11v.38l-.44,1a25.76,25.76,0,0,1-.34,2.9,89.67,89.67,0,0,0,.34,9.8H459.8l.07.05.22.78c.61,2.08,1.18,4.08,1.62,6.16.27,1.22.62,2.4,1,3.63H434.41c.1.5.2,1,.34,1.51.64,2.63,1.44,5.21,2.28,7.72.55,1.62,1.18,3.19,1.8,4.75H468c1.11,2.41,2.34,4.8,3.61,7.16.62,1.17,1.3,2.29,2,3.46h-30c1.34,2.4,2.74,4.82,4.14,7.22s2.69,4.53,4.1,6.76h30.95c1,1.4,1.95,2.74,3,4.08,1.66,2.25,3.36,4.43,5,6.55h-31.6c.84,1.12,1.73,2.18,2.57,3.3l.25.28.2.23a74.87,74.87,0,0,0,4.87,6.2c1.16,1.34,2.29,2.63,3.41,4h32.18c3,3.52,6,7.11,9.06,10.63H479.61c1.58,1.9,3.2,3.75,4.75,5.59,2.42,2.8,4.78,5.6,7.06,8.45H523.1c.56.66,1.12,1.4,1.62,2.07,2.2,2.85,4.32,5.64,6.37,8.55H499.53c2.07,2.75,4.07,5.49,6,8.22,1.41,1.91,2.76,3.81,4,5.77h31.11c1,1.78,2,3.57,3,5.43l.1.21.12.23c.88,1.56,1.72,3.19,2.52,4.75H515.94a64.06,64.06,0,0,1,3.62,6.72c1.09,2.29,2.15,4.63,3.14,7l.17.28h29.67c1.28,3.52,2.39,7.1,3.29,10.63H527.17c.61,2,1.23,3.87,1.75,5.81a80.39,80.39,0,0,1,1.9,8.22h27.85c.48,3.52.8,7.06,1,10.58h-27c.29,2.08.44,4.07.57,6.15.16,2.51.27,5.05.43,7.54v.34h25.86c-.28,3.54-.68,7.11-1.24,10.63H533.4l-.75,6.38v.16c-.37,2.52-.77,5-1.21,7.43h23.74c-1,3.6-2.14,7.13-3.44,10.63H529.36l-4,13.88v.1H545.1a96.23,96.23,0,0,1-7.41,10.62H520.8c-.85,1.7-1.68,3.38-2.61,5a98.13,98.13,0,0,1-5.12,9h11A117.68,117.68,0,0,1,509.27,473h-4c-1.3,1.52-2.64,3-4,4.41-3.52,1.81-7.1,3.43-10.81,4.92.9-.77,1.8-1.55,2.63-2.4a97.21,97.21,0,0,0,20.67-27.86c1.33-2.44,2.63-4.95,3.75-7.53s2.18-5,3.17-7.59l.22-.58,4.6-15.88.12-.66c.38-2.4.84-4.82,1.24-7.23.48-2.67,1-5.42,1.32-8.09l.06-.24.94-8.79-.16-3.28a25.17,25.17,0,0,0,.11-5.28c-.11-2.51-.27-5-.4-7.53a71.83,71.83,0,0,0-1-8.88c-.44-2.48-.82-5-1.26-7.45-.52-2.85-1.18-5.77-1.95-8.61s-1.65-5.43-2.6-8.17a68.69,68.69,0,0,0-3.64-8.56c-1-2.35-2.06-4.69-3.18-7a54.18,54.18,0,0,0-4.63-8.23,127.71,127.71,0,0,0-9.29-14.83c-3.3-4.51-6.61-9-9.94-13.48l-.09-.15-.12-.18c-3.58-4.52-7.26-9.05-11.08-13.47s-7.58-8.84-11.41-13.26c-1.91-2.34-3.85-4.69-5.81-7-1.74-1.95-3.37-4-5-6.15l-.13-.28-.22-.29c-1.82-2.17-3.53-4.4-5.27-6.65a50.74,50.74,0,0,1-4-6.09l-.14-.22-.17-.22c-1.51-2.47-3-5-4.47-7.5s-3.07-5.2-4.6-7.83a70.66,70.66,0,0,1-3.22-6.77c-1-2.62-2-5.31-3-7.94-.84-2.57-1.64-5.14-2.24-7.72a66.86,66.86,0,0,1-1.51-7.66,87.15,87.15,0,0,1-1-14.31,10.5,10.5,0,0,0,.35-2.91l.5-.89-.23-3.3c0-.06.09-.06.09-.12l.43-1.46.11-1.56a28.5,28.5,0,0,1,1.17-6l.06-.33.11-.34c.57-2.63,1.24-5.26,2-7.83a58.34,58.34,0,0,1,2.61-6.82,90.28,90.28,0,0,1,17.18-25.91c9.69-9.34,23.18-16.94,38.18-22-1.58,1.51-3.07,3-4.55,4.59a102.62,102.62,0,0,0-21.32,12h11.87a96.62,96.62,0,0,0-6.41,10.6h-17a89.4,89.4,0,0,0-9.63,14H464.1c-.54,2.07-1.16,4.14-1.83,6.21-.45,1.45-.84,2.91-1.23,4.41Z"/><path class="cls-3" d="M710.68,470.51q27.86-45.81,24.8-106-3.81-72.74-58.1-122.47-25.93-23.76-56.06-35.3l3.12-5.1q30.22,12,56.64,36,56.56,51.6,60.49,126.5,3.18,62.43-26,109.29Z"/><path class="cls-2" d="M608.13,414.67a11.26,11.26,0,0,0-3.58,0c-8.47,1.37-15.75,8.52-20.93,14.92-5.71,7.07-10,15.12-14.52,23-6.31,11-12.24,22.17-18.64,33.1-4.66,8-9.7,15.67-14.61,23.46q-3.87,5.18-8,10.39c-2.77,3.46-5.72,6.94-9,10.4-23.7,28.31-68.9,22.07-85.36-5.76a69.15,69.15,0,0,1-4.73-9.8A40.12,40.12,0,0,1,425.5,504c-.65-3.57-1.18-7.21-1.68-10.78a10.62,10.62,0,0,1-.55-2.9c-.07-.8-.11-1.65-.17-2.54l-.34-5.75.26-10.81a197.79,197.79,0,0,1,7.64-43.88l3.16-10.8.76-2.69,1.06-2.74,1.83-5.37q4-10.81,8.89-21.13c3.31-6.84,6.83-13.66,10.69-20.43a191.79,191.79,0,0,1,12-19.73c4.32-6.32,8.89-12.53,13.78-18.74-3.08-4.19-6.2-8.5-9.42-12.81s-6.87-8.61-10.67-13c-2.13-2.53-4.37-5.09-6.56-7.68-3.19,3.31-6.33,6.78-9.46,10.46q-9.15,10.75-16.89,21.76c-5.22,7.34-10.18,14.94-15,22.88-18.2,32-34.37,75.86-36.17,113.13-.21,4.47-.34,9-.39,13.43a47.61,47.61,0,0,0-.13,6.65c.13,2.23.31,4.5.41,6.71a24.66,24.66,0,0,0,.39,3.36,17,17,0,0,1,.44,3.35l1.3,6.72C396.51,572.46,471.74,594,524.17,533c17.63-19.23,29.41-42.61,40.43-66,5.93-12.6,13.91-24.76,23.94-34.49,6.29-6.1,13.07-9.67,21.26-12.42,1.92-.65,2.54-2.44,1.14-4A4.82,4.82,0,0,0,608.13,414.67ZM440.84,554.17c-26.93-7.27-41.14-32.64-46.18-55.29L393.54,493a24,24,0,0,0-.59-4.25,7.59,7.59,0,0,1-.18-1.62c-.12-2.21-.27-4.48-.39-6.71a38.25,38.25,0,0,1,0-5.13l.08-.35v-.39c.05-4.36.15-8.72.39-13,1.68-35.41,17.07-77,34.62-108q6.83-11.25,14.45-22.09c4.54-6.38,9.27-12.59,14.31-18.68,1.86,2.24,3.71,4.53,5.44,6.77,1.33,1.78,2.69,3.58,4,5.43q-4.59,6.12-8.93,12.4a197.75,197.75,0,0,0-12.59,20.76c-3.92,6.86-7.57,13.88-11,21s-6.49,14.6-9.29,22.05l-.06.17-1.74,5.27-1.28,3-.84,3.3-3.14,10.65a209.25,209.25,0,0,0-8,46.4l-.06.16-.22,11.47.32,6.15c.05.84.14,1.68.17,2.54a18.78,18.78,0,0,0,.78,4.63c.46,3.46,1,6.93,1.55,10.39a54.38,54.38,0,0,0,4.17,13.16A80.22,80.22,0,0,0,421,529.68a63,63,0,0,0,30.06,25.61l1.67.67A50.32,50.32,0,0,1,440.84,554.17Z"/><text class="cls-4" transform="translate(137.37 820.66)">Smart Chemistry</text></svg>