<svg width="353" height="255" viewBox="0 0 353 255" fill="none" xmlns="http://www.w3.org/2000/svg">
<g clip-path="url(#clip0_331_234)">
<path d="M224.95 191.166V252.636H70.4182C52.8114 252.636 38.4863 238.848 38.4863 221.901C38.4863 204.954 52.8114 191.166 70.4182 191.166H224.95Z" fill="#F2F2F2"/>
<path d="M228.745 252.163C228.744 252.79 228.494 253.391 228.05 253.834C227.605 254.278 227.002 254.527 226.372 254.527H67.6647C59.045 254.527 50.7784 251.115 44.6833 245.04C38.5882 238.966 35.1641 230.727 35.1641 222.137C35.1641 213.547 38.5882 205.308 44.6833 199.234C50.7784 193.16 59.045 189.747 67.6647 189.747H226.372C227.002 189.747 227.605 189.996 228.05 190.44C228.495 190.883 228.745 191.484 228.745 192.111C228.745 192.738 228.495 193.34 228.05 193.783C227.605 194.226 227.002 194.476 226.372 194.476H67.6647C60.3034 194.476 53.2435 197.39 48.0382 202.577C42.833 207.765 39.9087 214.801 39.9087 222.137C39.9087 229.473 42.833 236.509 48.0382 241.697C53.2435 246.884 60.3034 249.799 67.6647 249.799H226.372C227.002 249.799 227.605 250.048 228.05 250.491C228.494 250.935 228.744 251.536 228.745 252.163Z" fill="#5F27CD"/>
<path d="M224.948 205.351H58.8866C58.7607 205.351 58.6401 205.301 58.5511 205.213C58.4621 205.124 58.4121 205.004 58.4121 204.878C58.4121 204.753 58.4621 204.633 58.5511 204.544C58.6401 204.455 58.7607 204.405 58.8866 204.405H224.948C225.074 204.405 225.195 204.455 225.284 204.544C225.373 204.633 225.423 204.753 225.423 204.878C225.423 205.004 225.373 205.124 225.284 205.213C225.195 205.301 225.074 205.351 224.948 205.351Z" fill="#CCCCCC"/>
<path d="M224.948 216.699H58.8866C58.7607 216.699 58.6401 216.65 58.5511 216.561C58.4621 216.472 58.4121 216.352 58.4121 216.227C58.4121 216.101 58.4621 215.981 58.5511 215.892C58.6401 215.804 58.7607 215.754 58.8866 215.754H224.948C225.074 215.754 225.195 215.804 225.284 215.892C225.373 215.981 225.423 216.101 225.423 216.227C225.423 216.352 225.373 216.472 225.284 216.561C225.195 216.65 225.074 216.699 224.948 216.699Z" fill="#CCCCCC"/>
<path d="M224.948 228.048H58.8866C58.7607 228.048 58.6401 227.998 58.5511 227.909C58.4621 227.821 58.4121 227.7 58.4121 227.575C58.4121 227.449 58.4621 227.329 58.5511 227.241C58.6401 227.152 58.7607 227.102 58.8866 227.102H224.948C225.074 227.102 225.195 227.152 225.284 227.241C225.373 227.329 225.423 227.449 225.423 227.575C225.423 227.7 225.373 227.821 225.284 227.909C225.195 227.998 225.074 228.048 224.948 228.048Z" fill="#CCCCCC"/>
<path d="M224.948 239.396H58.8866C58.7607 239.396 58.6401 239.346 58.5511 239.258C58.4621 239.169 58.4121 239.049 58.4121 238.923C58.4121 238.798 58.4621 238.678 58.5511 238.589C58.6401 238.5 58.7607 238.45 58.8866 238.45H224.948C225.074 238.45 225.195 238.5 225.284 238.589C225.373 238.678 225.423 238.798 225.423 238.923C225.423 239.049 225.373 239.169 225.284 239.258C225.195 239.346 225.074 239.396 224.948 239.396Z" fill="#CCCCCC"/>
<path d="M344.38 202.737L305.68 250.602L185.349 153.976C171.639 142.966 169.165 123.273 179.834 110.076C190.503 96.8801 210.339 95.1008 224.049 106.11L344.38 202.737Z" fill="#F2F2F2"/>
<path d="M308.934 252.607C308.539 253.095 307.966 253.407 307.34 253.474C306.715 253.541 306.088 253.358 305.598 252.965L182.015 153.727C175.303 148.338 171.015 140.511 170.093 131.97C169.171 123.429 171.691 114.873 177.099 108.184C182.508 101.495 190.361 97.2205 198.931 96.3017C207.501 95.3829 216.087 97.8947 222.799 103.284L346.381 202.522C346.624 202.717 346.826 202.957 346.975 203.23C347.125 203.502 347.219 203.802 347.252 204.11C347.286 204.419 347.258 204.731 347.17 205.03C347.082 205.328 346.937 205.605 346.741 205.847C346.546 206.089 346.304 206.29 346.031 206.439C345.757 206.588 345.457 206.682 345.147 206.715C344.837 206.748 344.524 206.72 344.225 206.632C343.926 206.544 343.647 206.399 343.404 206.204L219.822 106.966C216.984 104.686 213.723 102.984 210.225 101.96C206.727 100.935 203.06 100.608 199.435 100.996C195.81 101.384 192.297 102.479 189.097 104.221C185.897 105.962 183.073 108.314 180.785 111.144C178.498 113.973 176.792 117.224 175.766 120.71C174.739 124.197 174.412 127.851 174.802 131.463C175.193 135.076 176.294 138.576 178.042 141.765C179.791 144.953 182.152 147.767 184.992 150.045L308.575 249.283C309.065 249.677 309.377 250.248 309.445 250.871C309.512 251.495 309.328 252.119 308.934 252.607Z" fill="#CCCCCC"/>
<path d="M335.449 213.783L206.14 109.946C206.091 109.908 206.051 109.859 206.021 109.805C205.991 109.75 205.972 109.691 205.966 109.629C205.959 109.567 205.965 109.505 205.982 109.445C206 109.386 206.029 109.33 206.068 109.282C206.107 109.233 206.155 109.193 206.21 109.163C206.265 109.134 206.325 109.115 206.387 109.108C206.449 109.102 206.511 109.107 206.571 109.125C206.631 109.142 206.687 109.171 206.735 109.21L336.044 213.046C336.093 213.085 336.133 213.133 336.163 213.188C336.193 213.242 336.212 213.302 336.219 213.364C336.225 213.426 336.22 213.488 336.202 213.548C336.185 213.607 336.155 213.663 336.116 213.711C336.077 213.76 336.029 213.8 335.974 213.83C335.919 213.86 335.859 213.878 335.797 213.885C335.735 213.891 335.673 213.886 335.613 213.868C335.553 213.851 335.497 213.822 335.449 213.783Z" fill="#CCCCCC"/>
<path d="M328.304 222.619L198.995 118.783C198.897 118.704 198.834 118.59 198.821 118.466C198.808 118.341 198.845 118.216 198.923 118.119C199.002 118.021 199.117 117.959 199.242 117.945C199.367 117.932 199.492 117.968 199.59 118.047L328.899 221.883C328.948 221.922 328.988 221.97 329.018 222.024C329.048 222.079 329.067 222.139 329.074 222.201C329.08 222.262 329.075 222.325 329.057 222.384C329.04 222.444 329.01 222.5 328.971 222.548C328.932 222.597 328.884 222.637 328.829 222.666C328.774 222.696 328.714 222.715 328.652 222.722C328.59 222.728 328.528 222.723 328.468 222.705C328.408 222.687 328.352 222.658 328.304 222.619Z" fill="#CCCCCC"/>
<path d="M321.16 231.456L191.851 127.62C191.753 127.541 191.69 127.427 191.677 127.302C191.663 127.178 191.7 127.053 191.779 126.955C191.858 126.857 191.972 126.795 192.098 126.782C192.223 126.768 192.348 126.805 192.446 126.884L321.755 230.72C321.804 230.759 321.844 230.807 321.874 230.861C321.904 230.916 321.922 230.975 321.929 231.037C321.936 231.099 321.93 231.161 321.913 231.221C321.895 231.281 321.866 231.336 321.827 231.384C321.788 231.433 321.739 231.473 321.685 231.503C321.63 231.533 321.57 231.551 321.508 231.558C321.446 231.565 321.383 231.559 321.324 231.541C321.264 231.524 321.208 231.495 321.16 231.456Z" fill="#CCCCCC"/>
<path d="M314.015 240.293L184.706 136.457C184.658 136.418 184.617 136.37 184.587 136.315C184.557 136.261 184.539 136.201 184.532 136.139C184.525 136.077 184.531 136.015 184.549 135.955C184.566 135.896 184.595 135.84 184.634 135.792C184.673 135.743 184.722 135.703 184.776 135.673C184.831 135.644 184.891 135.625 184.953 135.618C185.015 135.612 185.078 135.617 185.137 135.635C185.197 135.652 185.253 135.681 185.301 135.72L314.611 239.556C314.659 239.595 314.7 239.643 314.729 239.698C314.759 239.752 314.778 239.812 314.785 239.874C314.792 239.936 314.786 239.998 314.769 240.058C314.751 240.118 314.722 240.173 314.683 240.222C314.644 240.27 314.595 240.31 314.541 240.34C314.486 240.37 314.426 240.388 314.364 240.395C314.302 240.402 314.239 240.396 314.179 240.378C314.119 240.361 314.064 240.332 314.015 240.293Z" fill="#CCCCCC"/>
<path d="M352.526 255H0.474462C0.348627 255 0.227945 254.95 0.138966 254.862C0.0499875 254.773 0 254.653 0 254.527C0 254.402 0.0499875 254.281 0.138966 254.193C0.227945 254.104 0.348627 254.054 0.474462 254.054H352.526C352.651 254.054 352.772 254.104 352.861 254.193C352.95 254.281 353 254.402 353 254.527C353 254.653 352.95 254.773 352.861 254.862C352.772 254.95 352.651 255 352.526 255Z" fill="#CCCCCC"/>
<path d="M160.406 184.705L154.982 184.704L152.402 163.853L160.408 163.854L160.406 184.705Z" fill="#FFB8B8"/>
<path d="M151.108 183.16H161.569V189.724H144.521C144.521 188.862 144.692 188.008 145.023 187.212C145.354 186.415 145.839 185.692 146.451 185.082C147.062 184.473 147.788 183.989 148.587 183.659C149.387 183.329 150.243 183.16 151.108 183.16Z" fill="#2F2E41"/>
<path d="M104.992 184.705L99.5679 184.704L96.9883 163.853L104.994 163.854L104.992 184.705Z" fill="#FFB8B8"/>
<path d="M95.6939 183.16H106.155V189.724H89.1074C89.1074 188.862 89.2778 188.008 89.6088 187.212C89.9398 186.415 90.4249 185.692 91.0365 185.082C91.6482 184.473 92.3742 183.989 93.1734 183.659C93.9725 183.329 94.8289 183.16 95.6939 183.16Z" fill="#2F2E41"/>
<path d="M123.109 30.0415V27.6772C123.109 23.6328 124.721 19.7541 127.591 16.8943C130.461 14.0345 134.353 12.4279 138.411 12.4279C142.469 12.4279 146.361 14.0345 149.231 16.8943C152.1 19.7541 153.712 23.6328 153.712 27.6772V30.0415C153.712 32.9572 152.55 35.7535 150.481 37.8152C148.412 39.8769 145.607 41.0352 142.681 41.0352H134.141C132.692 41.0352 131.258 40.7508 129.919 40.1983C128.581 39.6458 127.365 38.836 126.34 37.8152C125.316 36.7943 124.503 35.5824 123.949 34.2486C123.395 32.9147 123.109 31.4852 123.109 30.0415Z" fill="#2F2E41"/>
<path d="M138.411 41.8487C144.847 41.8487 150.064 36.6491 150.064 30.235C150.064 23.821 144.847 18.6214 138.411 18.6214C131.975 18.6214 126.758 23.821 126.758 30.235C126.758 36.6491 131.975 41.8487 138.411 41.8487Z" fill="#FFB8B8"/>
<path d="M75.0247 70.1495C75.4977 69.7045 76.0627 69.3682 76.6801 69.1644C77.2976 68.9606 77.9523 68.8941 78.5983 68.9697C79.2442 69.0453 79.8657 69.2612 80.4189 69.6021C80.9722 69.943 81.4436 70.4006 81.8002 70.9427L91.7898 69.0595L94.4188 74.8304L80.274 77.2924C79.3205 77.8289 78.2025 77.9983 77.1321 77.7683C76.0616 77.5383 75.113 76.925 74.4659 76.0446C73.8189 75.1641 73.5184 74.0777 73.6214 72.9912C73.7244 71.9047 74.2237 70.8937 75.0247 70.1495Z" fill="#FFB8B8"/>
<path d="M129.455 49.3598L113.074 60.1144L85.4325 68.9109C85.0661 69.0283 84.7518 69.2685 84.5432 69.5908C84.3345 69.9131 84.2444 70.2975 84.2881 70.6786L84.8911 75.8547C84.9179 76.0837 84.9924 76.3047 85.1098 76.5035C85.2273 76.7022 85.3851 76.8742 85.5732 77.0086C85.7612 77.143 85.9754 77.2367 86.202 77.2838C86.4285 77.3309 86.6624 77.3302 86.8887 77.2819L112.903 71.7247C114.162 71.4573 115.353 70.9349 116.401 70.1901L134.804 57.1409C135.471 56.6653 136.004 56.0257 136.349 55.2843C136.695 54.543 136.843 53.7251 136.777 52.9101C136.71 52.0941 136.43 51.3096 135.966 50.6339C135.502 49.9582 134.87 49.4144 134.131 49.0562C133.392 48.698 132.573 48.5376 131.753 48.5908C130.933 48.6441 130.141 48.9091 129.455 49.3598Z" fill="#CCCCCC"/>
<path d="M155.08 178.788C154.664 178.788 154.256 178.667 153.908 178.44C153.559 178.213 153.284 177.89 153.117 177.51L128.25 116.276C128.192 116.143 128.095 116.032 127.971 115.956C127.847 115.88 127.703 115.843 127.558 115.851C127.413 115.86 127.274 115.912 127.159 116.001C127.045 116.09 126.96 116.213 126.918 116.351L106.631 175.965C106.545 176.242 106.403 176.499 106.214 176.72C106.025 176.941 105.793 177.121 105.531 177.249C105.27 177.377 104.985 177.45 104.694 177.465C104.403 177.479 104.113 177.434 103.84 177.332L97.0369 174.789C96.6676 174.653 96.3437 174.416 96.101 174.107C95.8584 173.798 95.7065 173.428 95.6624 173.038C92.6019 146.467 119.291 79.3997 119.561 78.7255L119.635 78.5388L143.964 83.9022L144.015 83.9571C153.721 94.5101 161.7 161.07 163.201 174.306C163.257 174.784 163.148 175.267 162.891 175.675C162.635 176.083 162.247 176.392 161.791 176.55L155.786 178.667C155.559 178.747 155.321 178.788 155.08 178.788Z" fill="#2F2E41"/>
<path d="M134.116 86.0609C128.222 86.0609 121.65 84.8897 119.627 80.0554L119.581 79.9444L119.644 79.8414C121.24 77.2306 123.351 72.7769 122.216 71.9408C119.982 70.2944 118.898 67.5859 118.994 63.8904C119.203 55.8682 124.688 48.7457 132.642 46.167C134.863 45.4588 137.122 44.879 139.41 44.4305C141.077 44.0951 142.799 44.132 144.45 44.5385C146.102 44.945 147.643 45.7109 148.962 46.7813C150.298 47.8588 151.378 49.2177 152.124 50.7605C152.87 52.3033 153.264 53.9916 153.278 55.7042C153.361 64.2774 152.037 76.2179 145.253 84.4156C144.936 84.796 144.493 85.0524 144.004 85.1397C140.741 85.728 137.433 86.0362 134.116 86.0609Z" fill="#CCCCCC"/>
<path d="M131.924 85.7399C132.245 84.5931 133.007 83.6188 134.044 83.0288C135.082 82.4387 136.311 82.2806 137.465 82.5888C137.7 82.6544 137.93 82.7392 138.152 82.8423L145.737 75.963L151.012 79.5047L140.165 89.0708C139.675 89.9509 138.904 90.6425 137.974 91.0355C137.045 91.4285 136.01 91.5003 135.035 91.2396C134.466 91.0846 133.935 90.819 133.47 90.4579C133.006 90.0969 132.618 89.6477 132.328 89.1363C132.039 88.6249 131.854 88.0614 131.785 87.4784C131.716 86.8955 131.763 86.3046 131.924 85.7399Z" fill="#FFB8B8"/>
<path d="M144.535 85.8273C144.043 85.8276 143.566 85.658 143.185 85.3473L140.194 82.9112C139.945 82.7081 139.745 82.4515 139.609 82.1605C139.473 81.8694 139.405 81.5516 139.41 81.2307C139.415 80.9098 139.493 80.5942 139.638 80.3075C139.783 80.0208 139.99 79.7705 140.246 79.5752L152.792 69.9859C152.94 69.8717 153.038 69.7037 153.063 69.5182C153.088 69.3328 153.039 69.145 152.926 68.9955L145.183 58.7932C144.283 57.6119 143.832 56.1514 143.909 54.6703C143.986 53.1892 144.586 51.7831 145.604 50.7008C146.675 49.5474 148.143 48.8377 149.715 48.7124C151.287 48.5871 152.849 49.0553 154.091 50.0243L154.14 50.0758L162.225 61.6144C163.1 62.2976 163.804 63.173 164.283 64.1722C164.761 65.1714 165.002 66.2675 164.985 67.3746C164.969 68.4818 164.696 69.5702 164.187 70.5548C163.679 71.5393 162.949 72.3935 162.055 73.0504L145.806 85.41C145.438 85.681 144.993 85.8273 144.535 85.8273Z" fill="#CCCCCC"/>
<path d="M128.088 26.9679V21.2057L138.41 16.7137L148.253 21.2057V26.9679C148.253 27.2187 148.153 27.4593 147.975 27.6366C147.797 27.814 147.555 27.9136 147.304 27.9136H129.037C128.785 27.9136 128.544 27.814 128.366 27.6366C128.188 27.4593 128.088 27.2187 128.088 26.9679Z" fill="#2F2E41"/>
<path d="M137.936 13.1923C136.419 8.35102 139.606 2.80272 144.318 0.88642C149.03 -1.02987 154.668 0.309674 158.644 3.47568C162.62 6.64169 165.087 11.3838 166.394 16.2857C167.701 21.1876 167.949 26.2991 168.191 31.3654C173.98 32.4253 177.919 39.2687 175.913 44.784C173.907 50.2994 166.484 53.0394 161.358 50.1567C156.231 47.274 154.746 39.5249 158.446 34.9623C160.197 32.8035 161.175 30.1242 161.225 27.3488C161.275 24.5735 160.395 21.8607 158.724 19.6402C157.052 17.4197 154.686 15.8184 151.998 15.0899C149.31 14.3614 146.456 14.5473 143.886 15.6183C141.033 16.8075 137.452 13.7177 137.936 13.1923Z" fill="#2F2E41"/>
<path d="M72.884 47.7968C65.9524 47.7514 59.1075 46.2574 52.7914 43.4111C52.4154 43.2441 52.0963 42.9718 51.8729 42.6272C51.6495 42.2827 51.5315 41.8808 51.5332 41.4706V24.2504C51.5338 23.6863 51.759 23.1454 52.1593 22.7465C52.5595 22.3476 53.1022 22.1233 53.6683 22.1226H92.0998C92.6658 22.1233 93.2085 22.3476 93.6088 22.7466C94.0091 23.1455 94.2342 23.6863 94.2348 24.2504V41.4706C94.2366 41.8808 94.1185 42.2827 93.8951 42.6272C93.6717 42.9718 93.3526 43.2442 92.9766 43.4112C86.6606 46.2574 79.8156 47.7514 72.884 47.7968Z" fill="#5F27CD"/>
<path d="M72.878 33.8464C72.5931 33.8466 72.311 33.7901 72.0483 33.6801L41.5727 20.8661C41.1797 20.7009 40.8453 20.4221 40.6128 20.0658C40.3802 19.7094 40.2601 19.2918 40.2679 18.8668C40.2758 18.4418 40.4112 18.0288 40.6567 17.6812C40.9022 17.3336 41.2465 17.0672 41.6453 16.9164L72.1214 5.39422C72.6122 5.20779 73.1549 5.20894 73.645 5.39745L103.713 16.9196C104.109 17.0716 104.451 17.3381 104.695 17.6849C104.939 18.0317 105.073 18.4431 105.081 18.8664C105.089 19.2897 104.97 19.7058 104.739 20.0613C104.508 20.4169 104.176 20.6957 103.786 20.8622L73.7178 33.676C73.4522 33.7887 73.1666 33.8466 72.878 33.8464Z" fill="#5F27CD"/>
<path d="M55.0909 44.5829C56.6631 44.5829 57.9377 43.3127 57.9377 41.7458C57.9377 40.1789 56.6631 38.9087 55.0909 38.9087C53.5187 38.9087 52.2441 40.1789 52.2441 41.7458C52.2441 43.3127 53.5187 44.5829 55.0909 44.5829Z" fill="#3F3D56"/>
<path opacity="0.2" d="M103.89 19.0434L73.8217 31.8571C73.5873 31.957 73.3351 32.0088 73.0802 32.0094C72.8252 32.0101 72.5728 31.9595 72.3379 31.8607L41.8622 19.0471C41.4795 18.89 41.1602 18.6103 40.9548 18.2522C40.8204 18.4844 40.7371 18.7425 40.7105 19.0092C40.6839 19.276 40.7145 19.5454 40.8003 19.7994C40.8861 20.0535 41.0252 20.2864 41.2083 20.4828C41.3914 20.6792 41.6143 20.8345 41.8622 20.9385L72.3379 33.7521C72.5728 33.8509 72.8252 33.9014 73.0802 33.9008C73.3351 33.9002 73.5873 33.8484 73.8217 33.7485L103.89 20.9347C104.137 20.8299 104.358 20.6741 104.54 20.4776C104.722 20.2811 104.86 20.0484 104.945 19.7949C105.03 19.5414 105.06 19.2728 105.033 19.0069C105.006 18.7409 104.923 18.4837 104.789 18.2522C104.585 18.6074 104.269 18.8856 103.89 19.0434Z" fill="black"/>
<path d="M55.3319 41.7347C55.4577 41.7347 55.5784 41.6849 55.6674 41.5962C55.7564 41.5075 55.8064 41.3872 55.8064 41.2618V25.4397L71.4547 19.7584C71.5805 19.7602 71.7019 19.7122 71.7922 19.6248C71.8826 19.5375 71.9343 19.418 71.9362 19.2926C71.9381 19.1672 71.8899 19.0461 71.8023 18.9561C71.7146 18.8661 71.5947 18.8145 71.4688 18.8127L55.8205 24.494C55.6946 24.4911 55.5694 24.5137 55.4525 24.5605C55.3356 24.6072 55.2294 24.6771 55.1404 24.766C55.0505 24.8537 54.9791 24.9586 54.9305 25.0743C54.8819 25.19 54.857 25.3142 54.8574 25.4397V41.2618C54.8574 41.3872 54.9074 41.5075 54.9964 41.5962C55.0854 41.6849 55.2061 41.7347 55.3319 41.7347Z" fill="#3F3D56"/>
</g>
<defs>
<clipPath id="clip0_331_234">
<rect width="353" height="255" fill="white"/>
</clipPath>
</defs>
</svg>
