<svg width="191" height="222" viewBox="0 0 191 222" fill="none" xmlns="http://www.w3.org/2000/svg">
<g clip-path="url(#clip0_349_396)">
<path d="M184.827 81.8233H6.00968C4.41638 81.8214 2.88886 81.1899 1.76222 80.0672C0.635588 78.9445 0.00183975 77.4223 0 75.8346V5.98863C0.00183975 4.4009 0.635588 2.87873 1.76222 1.75603C2.88886 0.633335 4.41638 0.0018028 6.00968 -3.05176e-05H184.827C186.42 0.0018028 187.948 0.633335 189.074 1.75603C190.201 2.87873 190.835 4.4009 190.836 5.98863V75.8346C190.835 77.4223 190.201 78.9445 189.074 80.0672C187.948 81.1899 186.42 81.8214 184.827 81.8233Z" fill="#F2F2F2"/>
<path d="M143.123 78.0038H34.3943C26.292 77.9947 18.5242 74.7833 12.795 69.0742C7.0658 63.365 3.84313 55.6243 3.83398 47.5504V34.2762C3.84312 26.2022 7.06578 18.4616 12.795 12.7524C18.5241 7.04316 26.292 3.83171 34.3943 3.82256H156.443C164.546 3.83171 172.314 7.04316 178.043 12.7524C183.772 18.4616 186.995 26.2022 187.004 34.2762C186.991 45.8695 182.363 56.9842 174.137 65.1818C165.91 73.3795 154.757 77.9907 143.123 78.0038Z" fill="white"/>
<path d="M115.075 23.8172H43.2042C42.7931 23.8172 42.3989 23.6544 42.1082 23.3648C41.8176 23.0752 41.6543 22.6823 41.6543 22.2727C41.6543 21.8631 41.8176 21.4702 42.1082 21.1806C42.3989 20.8909 42.7931 20.7282 43.2042 20.7282H115.075C115.486 20.7282 115.88 20.8909 116.171 21.1806C116.462 21.4702 116.625 21.8631 116.625 22.2727C116.625 22.6823 116.462 23.0752 116.171 23.3648C115.88 23.6544 115.486 23.8172 115.075 23.8172Z" fill="#E6E6E6"/>
<path d="M151.457 40.2957H43.2042C42.7931 40.2957 42.3989 40.133 42.1082 39.8434C41.8176 39.5537 41.6543 39.1609 41.6543 38.7512C41.6543 38.3416 41.8176 37.9488 42.1082 37.6591C42.3989 37.3695 42.7931 37.2068 43.2042 37.2068H151.457C151.868 37.2068 152.263 37.3695 152.553 37.6591C152.844 37.9488 153.007 38.3416 153.007 38.7512C153.007 39.1609 152.844 39.5537 152.553 39.8434C152.263 40.133 151.868 40.2957 151.457 40.2957Z" fill="#E6E6E6"/>
<path d="M151.457 56.7743H43.2042C42.7931 56.7743 42.3989 56.6116 42.1082 56.3219C41.8176 56.0323 41.6543 55.6394 41.6543 55.2298C41.6543 54.8202 41.8176 54.4273 42.1082 54.1377C42.3989 53.8481 42.7931 53.6853 43.2042 53.6853H151.457C151.868 53.6853 152.263 53.8481 152.553 54.1377C152.844 54.4273 153.007 54.8202 153.007 55.2298C153.007 55.6394 152.844 56.0323 152.553 56.3219C152.263 56.6116 151.868 56.7743 151.457 56.7743Z" fill="#E6E6E6"/>
<path d="M151.457 56.7743H43.2042C42.7931 56.7743 42.3989 56.6116 42.1082 56.3219C41.8176 56.0323 41.6543 55.6394 41.6543 55.2298C41.6543 54.8202 41.8176 54.4273 42.1082 54.1377C42.3989 53.8481 42.7931 53.6853 43.2042 53.6853H151.457C151.868 53.6853 152.263 53.8481 152.553 54.1377C152.844 54.4273 153.007 54.8202 153.007 55.2298C153.007 55.6394 152.844 56.0323 152.553 56.3219C152.263 56.6116 151.868 56.7743 151.457 56.7743Z" fill="#E6E6E6"/>
<path d="M107.491 42.187C107.508 42.6523 107.628 43.1081 107.841 43.5223C108.054 43.9366 108.356 44.2993 108.725 44.5848C109.094 44.8703 109.521 45.0717 109.977 45.1749C110.432 45.278 110.905 45.2804 111.362 45.1818L117.272 54.8444L119.788 49.5249L113.789 41.1646C113.572 40.4113 113.085 39.7635 112.421 39.3439C111.757 38.9244 110.961 38.7622 110.185 38.8883C109.408 39.0143 108.705 39.4197 108.209 40.0277C107.713 40.6357 107.457 41.404 107.491 42.187Z" fill="#FFB6B6"/>
<path d="M151.846 69.8796L131.477 58.8694L125.052 52.8626C125.052 52.8626 122.259 52.1174 123.287 51.2124C124.315 50.3074 121.385 49.4346 121.385 49.4346L117.936 46.2099L113.035 49.6656L114.454 51.8567C114.454 51.8567 114.356 55.4838 116.35 54.786C118.344 54.0882 117.846 57.0965 117.846 57.0965L129.747 75.4813L151.846 69.8796Z" fill="#3F3D56"/>
<path d="M91.7183 59.5064C102.707 59.5064 111.614 50.6297 111.614 39.6799C111.614 28.73 102.707 19.8534 91.7183 19.8534C80.73 19.8534 71.8223 28.73 71.8223 39.6799C71.8223 50.6297 80.73 59.5064 91.7183 59.5064Z" fill="#5F27CD"/>
<path d="M151.91 214.292H147.773L145.805 198.391H151.91V214.292Z" fill="#FFB6B6"/>
<path d="M154.093 221.434H151.127L150.597 218.643L149.241 221.434H141.372C140.995 221.434 140.628 221.314 140.324 221.091C140.02 220.869 139.796 220.555 139.684 220.196C139.571 219.837 139.577 219.452 139.7 219.097C139.823 218.742 140.057 218.435 140.367 218.221L146.651 213.897V211.075L153.26 211.468L154.093 221.434Z" fill="#2F2E41"/>
<path d="M118.822 214.292H114.685L112.717 198.391H118.822V214.292Z" fill="#FFB6B6"/>
<path d="M121.006 221.434H118.039L117.509 218.643L116.153 221.434H108.284C107.907 221.434 107.54 221.314 107.236 221.091C106.932 220.869 106.708 220.555 106.596 220.196C106.484 219.837 106.489 219.452 106.612 219.097C106.735 218.742 106.969 218.435 107.279 218.221L113.563 213.897V211.075L120.172 211.468L121.006 221.434Z" fill="#2F2E41"/>
<path d="M147.521 94.0349H126.641V117.723H147.521V94.0349Z" fill="#FFB6B6"/>
<path d="M127.122 105.719L123.588 109.88L117.485 122.685L102.106 159.148L98.8535 166.86L101.48 180.492C101.48 180.492 101.905 190.096 101.905 191.668C101.905 194.87 104.592 196.643 104.592 196.643L106.563 206.874L125.676 206.073C125.676 206.073 125.01 194.797 121.006 191.952C117.003 189.108 115.163 174.283 115.163 174.283L112.988 167.706L134.189 142.661L134.326 151.416L134.392 155.653C134.392 155.653 131.287 183.212 134.907 188.561C138.526 193.909 134.98 193.28 134.98 193.28L135.153 204.313L157.8 204.473L152.804 172.709C152.804 172.709 150.267 170.713 151.624 168.706C152.981 166.7 150.308 164.242 150.308 164.242L151.507 139.445C151.507 139.445 150.18 135.162 151.741 134.605C153.303 134.049 151.946 130.365 151.946 130.365L152.178 125.566L147.52 110.681L127.122 105.719Z" fill="#2F2E41"/>
<path d="M147.842 94.0349L150.09 87.3126L151.697 85.0718L152.339 78.6696C152.339 61.3837 148.47 64.2621 148.47 64.2621L146.236 58.1825L135.956 57.8624L129.371 64.1046L123.91 66.0253L121.771 77.0979L125.677 88.9131L126.64 95.3153C124.802 98.6972 124.958 97.0976 126.48 99.6368L144.629 104.599C151.054 106.839 151.054 101.077 149.766 99.6368C148.478 98.1963 147.842 94.0349 147.842 94.0349Z" fill="#3F3D56"/>
<path d="M139.768 55.7136C145.031 55.7136 149.297 51.462 149.297 46.2175C149.297 40.9729 145.031 36.7214 139.768 36.7214C134.505 36.7214 130.238 40.9729 130.238 46.2175C130.238 51.462 134.505 55.7136 139.768 55.7136Z" fill="#FFB6B6"/>
<path d="M152.489 58.8932C152.579 59.0441 152.633 59.2134 152.648 59.3882C152.663 59.563 152.638 59.739 152.576 59.903C152.513 60.067 152.414 60.2148 152.286 60.3354C152.158 60.4559 152.005 60.5462 151.837 60.5994C150.558 61.0219 149.771 62.2543 148.853 63.2403C147.937 64.223 146.463 65.0393 145.293 64.3703C144.127 63.7044 144.047 62.0047 143.07 61.0827C142.119 60.1864 140.539 60.2953 139.421 60.9771L139.388 60.9976C139.195 61.123 138.969 61.1892 138.739 61.1882C138.508 61.1871 138.283 61.1188 138.092 60.9917C137.9 60.8646 137.75 60.6843 137.66 60.473C137.57 60.2617 137.544 60.0288 137.585 59.8029C137.977 57.7271 138.368 55.6515 138.759 53.5762C137.731 56.0443 136.238 58.2936 134.362 60.2024C133.845 60.7969 133.19 61.2563 132.454 61.5405C131.785 61.7518 131.137 61.0635 130.488 61.1884C132.1 59.7831 137.523 50.7752 136.552 44.7539C135.412 44.882 134.272 45.01 133.131 45.1381C133.008 44.6002 132.744 44.1044 132.367 43.7008C132.413 44.2242 132.346 44.7513 132.171 45.2469C131.695 45.3013 131.217 45.3525 130.741 45.4069C130.08 45.4806 129.36 45.5446 128.792 45.1989C127.844 44.6227 127.815 43.259 128.085 42.1834C128.875 39.056 131.271 36.4407 134.204 35.0706C137.137 33.7037 138.004 36.748 141.095 35.7749C147.198 33.8542 151.875 37.1385 153.523 43.2334C154.908 48.3456 153.902 53.7714 152.489 58.8932Z" fill="#2F2E41"/>
<path d="M178.871 221.641H167.202L167.152 221.55C167.003 221.281 166.859 220.995 166.724 220.701C165.522 218.137 165.014 215.204 164.566 212.617L164.229 210.667C164.188 210.43 164.218 210.187 164.317 209.969C164.415 209.75 164.577 209.566 164.782 209.439C164.986 209.313 165.223 209.25 165.464 209.259C165.704 209.267 165.936 209.347 166.131 209.488C167.904 210.774 169.678 212.059 171.453 213.342C172.125 213.83 172.892 214.393 173.627 215.003C173.698 214.66 173.772 214.315 173.846 213.976C173.898 213.742 174.018 213.528 174.191 213.362C174.365 213.196 174.585 213.085 174.822 213.045C175.059 213.004 175.303 213.034 175.523 213.132C175.742 213.231 175.928 213.392 176.055 213.595L177.42 215.781C178.416 217.377 179.295 218.95 179.116 220.647C179.116 220.667 179.115 220.688 179.111 220.708C179.075 220.987 179.009 221.261 178.913 221.525L178.871 221.641Z" fill="#F0F0F0"/>
<path d="M190.584 221.892L79.7017 222C79.591 221.999 79.4851 221.955 79.407 221.877C79.329 221.799 79.2852 221.693 79.2852 221.583C79.2852 221.473 79.329 221.367 79.407 221.289C79.4851 221.21 79.591 221.166 79.7017 221.166L190.584 221.058C190.694 221.059 190.8 221.103 190.878 221.181C190.957 221.259 191 221.365 191 221.475C191 221.585 190.957 221.691 190.878 221.769C190.8 221.848 190.694 221.892 190.584 221.892Z" fill="#CACACA"/>
<path d="M89.9109 66.3649L77.7144 56.101C77.2975 55.7493 77.0376 55.2473 76.9917 54.7049C76.9458 54.1626 77.1177 53.6243 77.4696 53.2081L79.7144 50.5592C80.0672 50.1437 80.5711 49.8847 81.1153 49.839C81.6596 49.7933 82.1998 49.9646 82.6175 50.3153L94.814 60.5792C95.2309 60.9308 95.4908 61.4329 95.5367 61.9752C95.5826 62.5175 95.4107 63.0559 95.0588 63.4721L92.814 66.121C92.4611 66.5364 91.9573 66.7954 91.4131 66.8411C90.8688 66.8869 90.3286 66.7156 89.9109 66.3649Z" fill="#3F3D56"/>
<path d="M78.3533 53.4216C78.1636 53.6459 78.071 53.936 78.0957 54.2283C78.1205 54.5205 78.2605 54.7911 78.4851 54.9806L90.6817 65.2445C90.9068 65.4335 91.1979 65.5257 91.4912 65.5011C91.7845 65.4765 92.056 65.3369 92.2461 65.113L94.4909 62.4642C94.6806 62.2399 94.7732 61.9498 94.7485 61.6575C94.7237 61.3653 94.5837 61.0947 94.359 60.9052L82.1625 50.6413C81.9374 50.4523 81.6463 50.3601 81.353 50.3847C81.0597 50.4093 80.7882 50.5489 80.5981 50.7728L78.3533 53.4216Z" fill="white"/>
<path d="M85.5129 57.4116C85.4705 57.4707 85.415 57.519 85.3507 57.553C85.2863 57.5869 85.2149 57.6054 85.1421 57.607L83.2258 57.6509C83.1642 57.6523 83.103 57.6416 83.0456 57.6194C82.9882 57.5973 82.9357 57.564 82.8911 57.5216C82.8466 57.4792 82.8109 57.4285 82.786 57.3724C82.7612 57.3163 82.7476 57.2558 82.7462 57.1944C82.7448 57.1331 82.7555 57.0721 82.7778 57.0149C82.8 56.9576 82.8334 56.9053 82.8759 56.861C82.9185 56.8166 82.9694 56.781 83.0257 56.7562C83.082 56.7315 83.1427 56.718 83.2043 56.7166L84.4579 56.6878L83.2233 53.4414C83.1796 53.3256 83.1837 53.1973 83.2349 53.0845C83.286 52.9717 83.3799 52.8838 83.496 52.8399C83.6121 52.7961 83.741 52.7999 83.8543 52.8506C83.9675 52.9012 84.056 52.9946 84.1003 53.1102L85.5699 56.9743C85.5965 57.0442 85.6058 57.1194 85.5972 57.1936C85.5886 57.2679 85.5622 57.339 85.5203 57.401L85.5129 57.4116Z" fill="#5F27CD"/>
<path d="M85.759 58.2275C86.2212 58.2951 86.6629 58.4629 87.053 58.7191C87.4431 58.9753 87.772 59.3136 88.0167 59.7101C88.2614 60.1067 88.4159 60.5519 88.4693 61.0144C88.5226 61.4769 88.4736 61.9454 88.3255 62.387L97.3219 69.2927L91.7419 71.2063L84.0543 64.3551C83.3263 64.0581 82.733 63.5054 82.3867 62.8017C82.0404 62.0979 81.9652 61.2921 82.1754 60.5368C82.3855 59.7815 82.8664 59.1292 83.5268 58.7036C84.1873 58.278 84.9815 58.1086 85.759 58.2275Z" fill="#FFB6B6"/>
<path d="M132.596 61.642L109.562 75.7545C109.562 75.7545 100.276 72.3303 102.091 70.7452C103.906 69.16 98.1277 68.0884 98.1277 68.0884L91.7448 63.8092L88.041 68.0986C88.041 68.0986 88.7159 75.066 89.8642 73.8596C91.0124 72.6531 92.7289 75.9487 92.7289 75.9487C92.7289 75.9487 93.236 79.6286 96.5048 78.7025C99.7736 77.7765 108.545 87.4832 108.545 87.4832L136.892 76.9476L132.596 61.642Z" fill="#3F3D56"/>
<path d="M91.0185 47.6331C90.7515 47.6331 90.4881 47.5711 90.2493 47.4521C90.0105 47.333 89.8028 47.1602 89.6426 46.9473L85.424 41.3421C85.2885 41.1621 85.1899 40.9572 85.1339 40.7391C85.0778 40.5211 85.0654 40.2942 85.0974 40.0713C85.1293 39.8485 85.205 39.6341 85.3201 39.4405C85.4352 39.2468 85.5874 39.0776 85.7681 38.9425C86.1331 38.6698 86.5918 38.5527 87.0434 38.617C87.267 38.6488 87.4821 38.7243 87.6765 38.839C87.8708 38.9536 88.0406 39.1053 88.1761 39.2854L90.9361 42.9522L98.0246 32.3567C98.2776 31.9785 98.6711 31.7159 99.1184 31.6268C99.5658 31.5376 100.03 31.6292 100.41 31.8813C100.789 32.1335 101.053 32.5256 101.142 32.9714C101.232 33.4172 101.14 33.8801 100.887 34.2583L92.4498 46.8698C92.2972 47.0978 92.092 47.2861 91.8512 47.4189C91.6105 47.5516 91.3414 47.6248 91.0664 47.6325C91.0504 47.6328 91.0345 47.6331 91.0185 47.6331Z" fill="white"/>
</g>
<defs>
<clipPath id="clip0_349_396">
<rect width="191" height="222" fill="white"/>
</clipPath>
</defs>
</svg>
