<svg width="296" height="196" viewBox="0 0 296 196" fill="none" xmlns="http://www.w3.org/2000/svg">
<g clip-path="url(#clip0_349_167)">
<path d="M106.176 112.8C116.32 95.02 135.67 81.3681 156.153 82.6833C141.044 99.0543 132.233 120.223 131.281 142.443C130.944 151.014 131.466 160.582 125.754 166.999C122.201 170.993 116.769 172.927 111.428 173.332C106.087 173.738 100.747 172.776 95.4773 171.819L94.199 172.21C93.7124 151.764 96.0319 130.579 106.176 112.8Z" fill="#F0F0F0"/>
<path d="M156.183 83.1114C141.036 90.3768 128.12 102.511 120.192 117.309C118.478 120.509 117.018 123.903 116.382 127.492C115.745 131.082 116.19 134.5 117.42 137.91C118.546 141.027 120.059 144.086 120.404 147.422C120.767 150.938 119.469 154.226 117.132 156.835C114.272 160.027 110.432 162.005 106.609 163.81C102.364 165.813 97.9236 167.827 94.9171 171.567C94.5529 172.02 93.8686 171.43 94.2323 170.978C99.463 164.472 108.417 163.249 114.625 158.008C117.523 155.563 119.698 152.233 119.56 148.331C119.44 144.918 117.883 141.763 116.716 138.616C115.491 135.312 114.88 131.99 115.319 128.467C115.769 124.863 117.098 121.405 118.723 118.176C122.386 110.894 127.4 104.208 133.144 98.429C139.745 91.7859 147.438 86.3168 155.89 82.2584C156.414 82.0074 156.703 82.862 156.183 83.1114Z" fill="white"/>
<path d="M122.514 112.364C120.192 110.672 118.549 108.213 117.879 105.426C117.208 102.638 117.554 99.7042 118.855 97.1475C119.12 96.6311 119.937 97.017 119.672 97.5341C118.457 99.9126 118.135 102.646 118.765 105.24C119.394 107.834 120.934 110.119 123.105 111.681C123.577 112.022 122.983 112.702 122.514 112.364Z" fill="white"/>
<path d="M116.64 136.404C122.459 135.557 127.743 132.556 131.44 127.999C131.806 127.547 132.49 128.137 132.125 128.588C128.269 133.323 122.764 136.435 116.707 137.303C116.129 137.385 116.066 136.486 116.64 136.404Z" fill="white"/>
<path d="M140.191 92.895C140.953 93.7361 141.912 94.3756 142.983 94.756C144.054 95.1365 145.203 95.2459 146.327 95.0745C146.903 94.9849 146.965 95.8844 146.393 95.9735C145.151 96.1571 143.882 96.0347 142.698 95.617C141.513 95.1993 140.45 94.499 139.6 93.5773C139.513 93.4971 139.459 93.3868 139.45 93.2687C139.442 93.1507 139.479 93.0337 139.553 92.9417C139.632 92.8517 139.743 92.7963 139.863 92.7876C139.982 92.7789 140.1 92.8175 140.191 92.895Z" fill="white"/>
<path d="M196.908 138.772C196.55 138.838 196.192 138.904 195.83 138.977C191.02 139.891 186.293 141.193 181.695 142.87C181.338 142.994 180.977 143.125 180.624 143.259C169.589 147.417 159.425 153.58 150.649 161.435C147.159 164.564 143.914 167.952 140.94 171.572C136.834 176.571 132.781 182.316 127.415 185.575C126.859 185.922 126.282 186.233 125.687 186.509L94.7757 173.733C94.7201 173.669 94.6612 173.612 94.6053 173.548L93.3477 173.094C93.4879 172.896 93.6377 172.695 93.778 172.497C93.8589 172.383 93.9466 172.271 94.0275 172.156C94.0836 172.08 94.1401 172.005 94.1864 171.933C94.205 171.908 94.2239 171.883 94.2396 171.865C94.2859 171.793 94.3365 171.732 94.3798 171.667C95.2137 170.538 96.057 169.412 96.9098 168.29C96.9127 168.283 96.9127 168.283 96.9225 168.279C103.442 159.748 110.733 151.684 119.021 144.979C119.271 144.777 119.523 144.568 119.786 144.372C123.539 141.371 127.531 138.68 131.724 136.326C134.024 135.045 136.388 133.88 138.806 132.837C145.059 130.154 151.697 128.467 158.476 127.839C171.991 126.588 185.757 129.658 196.122 138.118C196.387 138.334 196.646 138.548 196.908 138.772Z" fill="#F0F0F0"/>
<path d="M196.675 139.134C180.191 135.848 162.546 137.789 147.274 144.848C143.972 146.375 140.755 148.209 138.079 150.693C135.401 153.177 133.691 156.173 132.613 159.634C131.627 162.798 130.987 166.148 129.247 169.019C127.413 172.044 124.39 173.89 120.947 174.571C116.735 175.405 112.473 174.681 108.33 173.828C103.73 172.881 98.9678 171.826 94.3078 173.008C93.7432 173.151 93.5531 172.27 94.1169 172.127C102.224 170.07 110.112 174.465 118.237 174.005C122.028 173.79 125.776 172.436 128.025 169.238C129.991 166.442 130.654 162.988 131.624 159.775C132.642 156.402 134.162 153.383 136.641 150.834C139.178 148.226 142.329 146.263 145.577 144.659C152.902 141.042 160.946 138.712 169.024 137.543C178.309 136.199 187.756 136.447 196.957 138.277C197.526 138.391 197.241 139.247 196.675 139.134Z" fill="white"/>
<path d="M152.118 142.293C151.286 139.549 151.46 136.6 152.609 133.972C153.758 131.344 155.807 129.209 158.39 127.948C158.914 127.695 159.334 128.493 158.809 128.747C156.402 129.917 154.493 131.906 153.428 134.355C152.363 136.804 152.212 139.552 153.002 142.102C153.173 142.657 152.288 142.844 152.118 142.293Z" fill="white"/>
<path d="M132.901 157.964C138.059 160.778 144.092 161.552 149.797 160.131C150.362 159.99 150.552 160.871 149.987 161.012C144.048 162.48 137.772 161.662 132.411 158.722C131.9 158.441 132.393 157.685 132.901 157.964Z" fill="white"/>
<path d="M177.995 137.353C178.095 138.481 178.475 139.567 179.1 140.513C179.725 141.46 180.576 142.236 181.577 142.774C182.091 143.048 181.598 143.803 181.087 143.531C179.984 142.932 179.045 142.073 178.352 141.03C177.659 139.986 177.233 138.789 177.111 137.543C177.09 137.426 177.114 137.306 177.178 137.207C177.243 137.107 177.343 137.036 177.458 137.007C177.575 136.983 177.697 137.005 177.798 137.07C177.899 137.135 177.97 137.236 177.995 137.353Z" fill="white"/>
<path d="M138.024 159.848C133.695 138.992 128.284 132.039 128.284 132.039L126.217 130.442L123.73 128.518L123.742 128.27L123.153 128.07L123.014 127.963L122.787 127.79L122.751 127.829L122.674 127.908L111.424 124.098L97.152 119.268L90.5431 110.709C89.4667 109.315 88.081 108.188 86.4945 107.417C84.908 106.646 83.1638 106.252 81.3987 106.265L60.292 106.42C57.4381 106.441 54.6954 107.525 52.603 109.459L38.7299 122.281L17.1129 132.567L17.0764 132.531L16.8494 132.693L13.5094 134.284L13.6472 134.999L11.58 136.485C11.58 136.485 6.16864 142.955 1.83956 162.361C0.738297 167.299 0.196213 177.891 0.000549855 190.944C-0.00927829 191.604 0.112734 192.26 0.359488 192.873C0.606242 193.486 0.972818 194.044 1.4379 194.514C1.90298 194.984 2.45729 195.358 3.0686 195.613C3.6799 195.868 4.33601 196 4.99877 196H120.459L134.87 196C135.532 196 136.188 195.868 136.799 195.613C137.41 195.359 137.964 194.985 138.429 194.516C138.894 194.046 139.261 193.488 139.508 192.876C139.755 192.264 139.877 191.609 139.868 190.949C139.677 176.746 139.135 165.203 138.024 159.848Z" fill="#3F3D56"/>
<path d="M152.838 18.188C148.346 18.188 144.038 19.9661 140.861 23.1309C137.685 26.2958 135.9 30.5883 135.9 35.0641C135.9 39.5399 137.685 43.8324 140.861 46.9973C144.038 50.1622 148.346 51.9402 152.838 51.9402H279.062C283.554 51.9402 287.862 50.1622 291.039 46.9973C294.215 43.8324 296 39.5399 296 35.0641C296 30.5883 294.215 26.2958 291.039 23.1309C287.862 19.9661 283.554 18.188 279.062 18.188H152.838Z" fill="#E5E5E5"/>
<path d="M152.838 21.6035C149.255 21.6035 145.819 23.0216 143.285 25.546C140.751 28.0704 139.328 31.4942 139.328 35.0641C139.328 38.6341 140.751 42.0579 143.285 44.5823C145.819 47.1067 149.255 48.5248 152.838 48.5248H279.062C282.645 48.5248 286.081 47.1067 288.615 44.5823C291.148 42.0579 292.572 38.6341 292.572 35.0641C292.572 31.4942 291.148 28.0704 288.615 25.546C286.081 23.0216 282.645 21.6035 279.062 21.6035H152.838Z" fill="white"/>
<path d="M74.1596 98.3639C89.4313 98.3639 101.811 86.0286 101.811 70.8123C101.811 55.5959 89.4313 43.2606 74.1596 43.2606C58.888 43.2606 46.5078 55.5959 46.5078 70.8123C46.5078 86.0286 58.888 98.3639 74.1596 98.3639Z" fill="#9E616A"/>
<path d="M67.0858 97.0149C66.9677 96.7557 66.8499 96.4957 66.7324 96.2347C66.7777 96.2362 66.8225 96.2427 66.8678 96.2438L67.0858 97.0149Z" fill="#2F2E41"/>
<path d="M45.7382 44.5135C47.1368 43.4019 48.7714 42.3791 50.5595 42.4366C52.3475 42.494 54.1608 44.1031 53.7903 45.847C57.0747 40.0529 62.3024 35.5965 68.5558 33.2601C74.8092 30.9238 81.6888 30.8567 87.9869 33.0707C92.431 34.6329 96.7892 37.7583 97.8101 42.3424C98.0721 43.5191 98.1284 44.8094 98.8658 45.7649C99.7956 46.9697 101.574 47.2422 103.039 46.8184C103.054 46.8142 103.068 46.8099 103.083 46.8055C103.331 46.7213 103.598 46.7131 103.85 46.7818C104.102 46.8505 104.328 46.993 104.498 47.1909C104.668 47.3889 104.774 47.6331 104.804 47.892C104.833 48.1509 104.783 48.4126 104.662 48.6432L103.404 50.9798C104.989 51.3319 106.636 51.297 108.205 50.8781C108.466 50.81 108.741 50.8239 108.993 50.9179C109.246 51.0119 109.463 51.1814 109.615 51.4031C109.766 51.6248 109.846 51.8879 109.841 52.1563C109.837 52.4247 109.75 52.6852 109.591 52.9022C105.445 58.5742 98.5178 62.2369 91.4488 62.1939C86.4246 62.1633 81.3487 60.4381 76.459 61.5892C74.5674 62.0346 72.7998 62.8963 71.286 64.111C69.7722 65.3258 68.5505 66.8629 67.7107 68.6094C66.8708 70.356 66.434 72.2677 66.4324 74.2044C66.4308 76.1411 66.8644 78.0535 67.7013 79.8015C66.1992 78.1644 63.2954 78.552 61.7588 80.1571C60.2223 81.7622 59.8246 84.1579 59.9794 86.3707C60.2161 89.7551 61.547 92.9441 62.95 96.048C51.1872 95.679 40.0615 87.4575 36.3166 76.3377C32.556 65.1713 36.4973 51.8586 45.7382 44.5135Z" fill="#2F2E41"/>
<path opacity="0.2" d="M27.2168 153.552L34.9725 195.596L39.6261 196L27.2168 153.552Z" fill="black"/>
<path opacity="0.2" d="M112.648 150.381L104.892 195.566L100.238 196L112.648 150.381Z" fill="black"/>
<path d="M52.3547 30.3635C50.8676 30.9822 49.3159 30.3042 48.6652 28.7514C48.0045 27.1749 48.6216 25.5745 50.1325 24.9459C51.6435 24.3173 53.1675 24.997 53.8389 26.5989C54.5002 28.1768 53.8898 29.7248 52.3547 30.3635ZM49.5061 21.8428L48.3237 22.3348C48.0284 22.4562 47.698 22.4627 47.398 22.3531C47.098 22.2435 46.8503 22.0257 46.7037 21.7427L46.6453 21.6288C45.373 19.3427 45.2274 16.5642 46.2146 13.375C47.1291 10.5141 47.509 8.50206 46.7451 6.67924C45.8619 4.57172 43.9758 3.91154 41.5707 4.86789C40.6379 5.25599 40.3411 5.2498 39.607 5.97538C39.4474 6.13512 39.257 6.2612 39.0474 6.34608C38.8378 6.43096 38.6131 6.4729 38.3869 6.46942C38.1681 6.46685 37.9522 6.42043 37.7518 6.33291C37.5515 6.24539 37.3709 6.11857 37.2208 5.96001C36.9317 5.65445 36.7697 5.25095 36.7676 4.831C36.7655 4.41106 36.9234 4.00595 37.2094 3.69749C38.4432 2.41056 39.9314 1.39244 41.5801 0.707363C46.7476 -1.44259 49.3489 1.73151 50.5393 4.57203C51.7037 7.35039 51.0487 9.92824 49.9963 13.2668C49.1144 16.041 49.1658 18.0966 50.1676 20.1405C50.2399 20.295 50.2802 20.4625 50.2859 20.6329C50.2916 20.8033 50.2627 20.9731 50.201 21.1321C50.1392 21.2911 50.0458 21.436 49.9264 21.5581C49.807 21.6803 49.664 21.7771 49.5061 21.8428Z" fill="#5F27CD"/>
<path d="M180.719 43.1129H155.605C155.525 43.1134 155.446 43.0982 155.372 43.0682C155.299 43.0381 155.231 42.9938 155.175 42.9378C155.118 42.8818 155.073 42.8152 155.043 42.7418C155.012 42.6684 154.996 42.5897 154.996 42.5102C154.996 42.4307 155.012 42.352 155.043 42.2786C155.073 42.2052 155.118 42.1385 155.175 42.0825C155.231 42.0265 155.299 41.9822 155.372 41.9522C155.446 41.9221 155.525 41.9069 155.605 41.9075H180.719C180.879 41.9085 181.032 41.9725 181.144 42.0854C181.257 42.1983 181.32 42.351 181.32 42.5102C181.32 42.6693 181.257 42.822 181.144 42.9349C181.032 43.0478 180.879 43.1118 180.719 43.1129Z" fill="#5F27CD"/>
<path d="M212.578 43.3138H187.465C187.385 43.3143 187.306 43.2991 187.232 43.2691C187.158 43.239 187.091 43.1947 187.034 43.1387C186.978 43.0827 186.933 43.0161 186.902 42.9427C186.871 42.8693 186.855 42.7906 186.855 42.7111C186.855 42.6316 186.871 42.5528 186.902 42.4795C186.933 42.4061 186.978 42.3394 187.034 42.2834C187.091 42.2274 187.158 42.1831 187.232 42.153C187.306 42.123 187.385 42.1078 187.465 42.1083H212.578C212.658 42.1078 212.737 42.123 212.811 42.153C212.885 42.1831 212.952 42.2274 213.009 42.2834C213.065 42.3394 213.11 42.4061 213.141 42.4795C213.172 42.5528 213.187 42.6316 213.187 42.7111C213.187 42.7906 213.172 42.8693 213.141 42.9427C213.11 43.0161 213.065 43.0827 213.009 43.1387C212.952 43.1947 212.885 43.239 212.811 43.2691C212.737 43.2991 212.658 43.3143 212.578 43.3138Z" fill="#5F27CD"/>
<path d="M244.437 43.5147H219.323C219.164 43.5136 219.011 43.4496 218.898 43.3367C218.786 43.2238 218.723 43.0711 218.723 42.912C218.723 42.7528 218.786 42.6001 218.898 42.4872C219.011 42.3743 219.164 42.3103 219.323 42.3092H244.437C244.517 42.3087 244.596 42.3239 244.67 42.3539C244.744 42.384 244.811 42.4283 244.868 42.4843C244.924 42.5403 244.969 42.607 245 42.6804C245.031 42.7538 245.046 42.8325 245.046 42.912C245.046 42.9915 245.031 43.0702 245 43.1436C244.969 43.217 244.924 43.2836 244.868 43.3396C244.811 43.3956 244.744 43.4399 244.67 43.47C244.596 43.5 244.517 43.5152 244.437 43.5147Z" fill="#5F27CD"/>
<path d="M276.295 43.7156H251.181C251.021 43.7145 250.868 43.6505 250.756 43.5376C250.643 43.4247 250.58 43.272 250.58 43.1129C250.58 42.9537 250.643 42.801 250.756 42.6881C250.868 42.5752 251.021 42.5112 251.181 42.5101H276.295C276.455 42.5112 276.607 42.5752 276.72 42.6881C276.832 42.801 276.896 42.9537 276.896 43.1129C276.896 43.272 276.832 43.4247 276.72 43.5376C276.607 43.6505 276.455 43.7145 276.295 43.7156Z" fill="#5F27CD"/>
<path d="M168.107 37.566C170.685 37.566 172.775 35.4838 172.775 32.9153C172.775 30.3468 170.685 28.2646 168.107 28.2646C165.529 28.2646 163.439 30.3468 163.439 32.9153C163.439 35.4838 165.529 37.566 168.107 37.566Z" fill="#5F27CD"/>
<path d="M200.158 37.566C202.736 37.566 204.825 35.4838 204.825 32.9153C204.825 30.3468 202.736 28.2646 200.158 28.2646C197.58 28.2646 195.49 30.3468 195.49 32.9153C195.49 35.4838 197.58 37.566 200.158 37.566Z" fill="#5F27CD"/>
<path d="M232.209 37.566C234.786 37.566 236.876 35.4838 236.876 32.9153C236.876 30.3468 234.786 28.2646 232.209 28.2646C229.631 28.2646 227.541 30.3468 227.541 32.9153C227.541 35.4838 229.631 37.566 232.209 37.566Z" fill="#5F27CD"/>
<path d="M264.259 37.566C266.837 37.566 268.927 35.4838 268.927 32.9153C268.927 30.3468 266.837 28.2646 264.259 28.2646C261.682 28.2646 259.592 30.3468 259.592 32.9153C259.592 35.4838 261.682 37.566 264.259 37.566Z" fill="#5F27CD"/>
</g>
<defs>
<clipPath id="clip0_349_167">
<rect width="296" height="196" fill="white"/>
</clipPath>
</defs>
</svg>
