<svg width="297" height="226" viewBox="0 0 297 226" fill="none" xmlns="http://www.w3.org/2000/svg">
<path d="M276.555 215.889C315.071 176.507 298.397 115.402 223.777 101.461C149.157 87.5206 133.067 4.01422 65.2055 21.4325C-2.65562 38.8501 -28.4199 167.097 41.2208 215.889H276.555Z" fill="#FFF8F8"/>
<path d="M271.809 205.788H276.555V86.9517H271.809V205.788Z" fill="#3B364D"/>
<path d="M97.4812 215.889C97.4812 217.612 82.3814 219.008 63.7543 219.008C45.1278 219.008 30.0273 217.612 30.0273 215.889C30.0273 214.167 45.1271 212.771 63.7543 212.771C82.3814 212.771 97.4812 214.167 97.4812 215.889Z" fill="#FFE5E2"/>
<path d="M188.825 225.679C225.029 225.679 254.377 222.789 254.377 219.224C254.377 215.66 225.029 212.77 188.825 212.77C152.622 212.77 123.273 215.66 123.273 219.224C123.273 222.789 152.622 225.679 188.825 225.679Z" fill="#FFE5E2"/>
<path d="M101.202 94.8516H9.7688C5.47028 94.8516 1.98633 91.3669 1.98633 87.0691V7.78246C1.98633 3.48395 5.47101 0 9.7688 0H101.202C105.501 0 108.985 3.48467 108.985 7.78246V87.0691C108.985 91.3669 105.501 94.8516 101.202 94.8516Z" fill="#AAB2C8"/>
<path d="M101.732 7.84106H9.24219V87.0105H101.732V7.84106Z" fill="#E0E7FF"/>
<path d="M55.4863 7.84106V87.0105" stroke="#AAB2C8" stroke-miterlimit="10"/>
<path d="M101.732 47.4254H9.24219" stroke="#AAB2C8" stroke-miterlimit="10"/>
<path opacity="0.54" d="M49.7033 7.84106L18.6855 86.9519H32.4036L63.7556 7.84106H49.7033Z" fill="white"/>
<path opacity="0.54" d="M73.6877 7.84106L42.6699 86.9519H56.388L87.7399 7.84106H73.6877Z" fill="white"/>
<path d="M294.223 82.7041H203.148V91.1991H294.223V82.7041Z" fill="#773C4D"/>
<path d="M294.224 82.7041H236.135V91.1991H294.224V82.7041Z" fill="#965363"/>
<path d="M269.324 82.7041H222.865C221.247 82.7041 219.936 81.3925 219.936 79.775V71.9896C219.936 70.3721 221.247 69.0605 222.865 69.0605H269.324V82.7041Z" fill="#61648A"/>
<path d="M270.115 71.9455H223.52V79.8206H270.115V71.9455Z" fill="#EDF1FC"/>
<path d="M256.669 71.9455H223.408V79.8206H256.669V71.9455Z" fill="#E0E7FF"/>
<path d="M261.697 69.0613H215.238C213.62 69.0613 212.309 67.7497 212.309 66.1322V58.3468C212.309 56.7293 213.62 55.4177 215.238 55.4177H261.697V69.0613Z" fill="#FFC55A"/>
<path d="M262.375 58.3019H215.779V66.177H262.375V58.3019Z" fill="#EDF1FC"/>
<path d="M249.272 58.3019H215.779V66.177H249.272V58.3019Z" fill="#E0E7FF"/>
<path d="M272.233 55.4177H225.773C224.155 55.4177 222.844 54.1062 222.844 52.4886V44.7032C222.844 43.0857 224.155 41.7742 225.773 41.7742H272.233V55.4177Z" fill="#AF2F48"/>
<path d="M273.066 44.6591H226.471V52.5342H273.066V44.6591Z" fill="#EDF1FC"/>
<path d="M257.721 44.6591H226.314V52.5342H257.721V44.6591Z" fill="#E0E7FF"/>
<path d="M220.492 152.964C220.555 163.115 219.598 172.786 216.975 181.493C216.975 181.5 216.968 181.506 216.968 181.512C209.617 205.887 189.177 222.682 141.38 221.125C76.5104 219.013 64.7267 158.696 59.2859 102.299C54.8666 56.539 68.623 22.8591 109.92 11.775C119.522 9.19601 130.618 7.84107 143.316 7.84107C201.692 7.84107 220.247 114.373 220.492 152.964Z" fill="#FFC55A"/>
<path d="M216.968 181.512C209.617 205.887 189.177 222.682 141.38 221.125C76.5104 219.013 64.7267 158.696 59.2859 102.299C54.8666 56.539 68.623 22.8591 109.92 11.775C74.4551 33.3941 65.6476 72.7803 80.1419 132.694C94.6304 192.608 131.198 210.035 154.879 210.072C178.553 210.117 208.274 202.388 216.968 181.512Z" fill="#F49947"/>
<path d="M126.875 64.3974C80.6037 72.6349 100.79 138.729 111.018 157.236C121.246 175.744 125.606 197.661 149.239 198.635C172.873 199.609 203.069 188.894 205.991 181.101C208.913 173.309 195.542 132.69 195.542 132.69C195.542 132.69 193.693 91.5832 180.885 80.7878C168.079 69.993 142.245 61.6615 126.875 64.3974Z" fill="#F49947"/>
<path d="M188.829 175.867C180.377 191.666 151.568 197.219 141.696 194.719C135.885 193.244 128.913 187.968 122.574 180.394C118.526 173.262 115.283 164.951 111.02 157.236C109.417 154.336 107.573 150.276 105.78 145.454C102.254 128.482 102.358 108.328 108.986 101.46C117.985 92.1475 126.72 85.5876 127.347 79.8191C127.833 75.292 122.697 69.321 123.729 65.0767C124.737 64.8184 125.787 64.5913 126.875 64.401C139.534 62.1469 159.29 67.3989 173.025 75.3535C174.346 80.3595 174.462 87.0677 177.571 89.2423C182.35 92.5714 189.739 113.451 191.613 123.254C193.479 133.058 188.829 175.867 188.829 175.867Z" fill="#F27C49"/>
<path d="M251.674 200.929C252.048 206.876 269.251 199.286 271.528 195.998C271.528 195.998 262.107 223.067 257.204 223.067C252.301 223.067 238.934 208.968 238.934 208.968L240.538 200.929H251.674Z" fill="#AF2F48"/>
<path d="M257.203 223.067C251.867 225.357 265.202 191.697 271.527 192.456C277.852 193.215 264.095 220.111 257.203 223.067Z" fill="#D35473"/>
<path d="M253.718 161.955C253.372 179.356 248.851 200.931 248.851 200.931H237.711C237.711 200.931 230.864 186.247 227.655 171.469C226.847 167.761 226.274 164.048 226.091 160.561C226.091 160.561 208.829 165.781 192.128 162.648C185.18 161.35 177.312 159.143 170.49 157.006C160.919 154.017 153.41 151.168 153.41 151.168L153.977 150.449L166.158 135.04L198.943 130.11L202.783 129.53L226.092 136.755C246.764 138.987 254.071 144.554 253.718 161.955Z" fill="#31344C"/>
<path opacity="0.54" d="M227.653 171.469C226.846 167.761 226.272 164.048 226.09 160.561C226.09 160.561 208.827 165.781 192.127 162.648C185.179 161.35 177.31 159.143 170.489 157.006L153.977 150.449L152.533 149.875L149.797 138.476L185.06 126.157L198.943 130.11L222.264 136.745C216.627 146.871 227.97 158.847 230.46 162.447C232.951 166.047 240.031 160.234 244.52 162.447C249.008 164.659 231.222 163.6 227.653 171.469Z" fill="#232433"/>
<path d="M234.234 210.673C239.357 221.802 246.947 227.114 250.994 225.344L249.223 206.876L241.89 203.713L234.234 210.673Z" fill="#AF2F48"/>
<path d="M250.993 225.344C241.979 226.847 243.656 209.403 244.163 200.93C244.668 192.457 251.753 193.215 252.512 199.793C253.27 206.37 257.066 224.332 250.993 225.344Z" fill="#D35473"/>
<path d="M241.887 203.711L234.234 210.672C202.911 201.624 184.47 173.089 184.47 173.089C167.069 193.271 147.581 197.798 131.9 173.089C131.9 173.089 132.89 162.106 145.607 153.639C148.072 151.987 150.985 150.436 154.414 149.081C168.014 143.696 186.102 142.65 197.249 142.587C203.976 142.549 210.275 145.828 214.158 151.319C220.715 160.587 226.963 172.081 231.869 181.941C237.896 194.065 241.887 203.711 241.887 203.711Z" fill="#383952"/>
<path opacity="0.54" d="M241.887 203.711L234.234 210.672C202.911 201.624 184.47 173.089 184.47 173.089C167.069 193.271 147.581 197.798 131.9 173.089C131.9 173.089 132.89 162.107 145.607 153.639L158.733 151.212C143.413 181.299 180.245 174.281 186.891 168.796C193.536 163.304 199.809 157.807 202.779 157.504C205.748 157.202 190.087 168.771 201.133 181.942C212.172 195.119 237.65 203.327 231.869 181.942C237.896 194.065 241.887 203.711 241.887 203.711Z" fill="#232433"/>
<path d="M165.552 53.866H165.085C165.085 53.866 160.444 71.6265 152.532 78.2464C151.107 79.4379 149.576 80.2705 147.942 80.5729C137.268 82.5464 127.969 70.3844 126.21 62.0434C125.226 57.3781 126.96 54.5156 128.681 52.9075C130.031 51.6212 131.38 51.1235 131.38 51.1235C131.38 51.1235 132.079 37.9654 136.663 38.2048C141.07 38.432 140.332 40.1783 140.276 40.3107C140.559 39.9323 150.149 27.1844 156.743 28.5711C163.439 29.9832 158.742 39.8441 158.742 39.8441C158.742 39.8441 167.197 31.276 170.015 36.206C172.833 41.1361 164.498 47.1259 164.498 47.1259C164.498 47.1259 171.661 47.0124 172.367 49.5971C173.067 52.1761 172.014 54.6473 165.552 53.866Z" fill="#6D3744"/>
<path d="M152.532 78.2464C151.107 79.4379 149.576 80.2705 147.942 80.5729C137.268 82.5464 127.969 70.3844 126.21 62.0434C125.226 57.3781 126.96 54.5156 128.681 52.9075C130.27 54.9692 132.395 59.1049 137.243 53.866H139.494L152.532 78.2464Z" fill="#542633"/>
<path d="M180.885 131.08L132.143 176.267C129.772 174.135 127.711 171.91 125.927 169.596H125.92C122.61 165.321 120.227 160.757 118.537 155.997C117.27 152.422 116.387 148.74 115.807 144.988C114.47 136.427 114.653 127.474 115.196 118.584C116.463 97.7655 122.755 83.863 147.747 83.51C147.747 83.51 159.203 80.3074 167.683 84.8779C174.353 88.4653 178.697 114.996 180.248 126.155C180.67 129.183 180.885 131.08 180.885 131.08Z" fill="#5F27CD"/>
<path opacity="0.36" d="M170.503 110.501C144.844 120.124 134.221 101.461 134.221 101.461L125.924 131.285L143.678 136.756L174.588 133.538L170.503 110.501Z" fill="#383952"/>
<path opacity="0.36" d="M180.886 131.08L132.144 176.267C129.773 174.135 127.712 171.91 125.928 169.596C134.408 168.953 152.622 148.676 147.837 147.617C143.556 146.678 128.822 156.703 118.539 155.997C117.271 152.422 116.389 148.74 115.809 144.988L131.47 131.282L180.249 126.156C180.671 129.183 180.886 131.08 180.886 131.08Z" fill="#383952"/>
<path d="M153.41 125.078C159.135 121.208 165.799 124.433 168.164 126.153C170.528 127.872 168.164 132.387 168.164 132.387C168.164 132.387 165.584 130.882 164.725 130.667C163.865 130.452 159.72 133.676 151.475 132.387C143.228 131.096 153.41 125.078 153.41 125.078Z" fill="#F4B8AB"/>
<path d="M119.962 98.0773C131.189 89.7045 137.548 97.0616 137.005 111.532C136.462 126.002 136.462 126.002 136.462 126.002C136.462 126.002 150.78 121.433 154.283 121.433C154.283 121.433 154.588 131.333 154.283 134.887C154.283 134.887 136.97 151.642 125.546 152.911C114.122 154.181 116.407 131.587 115.391 121.179C114.376 110.77 116.061 100.986 119.962 98.0773Z" fill="#5F27CD"/>
<path d="M166.182 133.056L174.698 98.5591C175.566 95.0419 178.722 92.5707 182.345 92.5707H231.215C234.423 92.5707 236.772 95.5946 235.978 98.7038L226.116 134.776L166.182 133.056Z" fill="#C3C9F4"/>
<path d="M169.604 133.056L178.12 98.5591C178.988 95.0419 182.144 92.5707 185.767 92.5707H234.637C237.845 92.5707 240.194 95.5946 239.4 98.7038L229.537 134.776L169.604 133.056Z" fill="#E0E7FF"/>
<path d="M215.421 136.496H153.247C152.297 136.496 151.527 135.726 151.527 134.776C151.527 133.826 152.297 133.056 153.247 133.056H215.421C216.37 133.056 217.14 133.826 217.14 134.776C217.139 135.725 216.37 136.496 215.421 136.496Z" fill="#C3C9F4"/>
<path d="M230.076 136.496H167.903C166.953 136.496 166.184 135.726 166.184 134.776C166.184 133.826 166.953 133.056 167.903 133.056H230.076C231.026 133.056 231.796 133.826 231.796 134.776C231.796 135.725 231.026 136.496 230.076 136.496Z" fill="#E0E7FF"/>
<path d="M209.288 113.575C208.468 118.06 206.435 121.446 204.747 121.138C203.058 120.829 202.354 116.943 203.174 112.458C203.994 107.973 206.026 104.587 207.715 104.895C209.403 105.204 210.107 109.091 209.288 113.575Z" fill="#C3C9F4"/>
<path d="M168.339 56.7509C169.422 72.6342 166.895 79.673 157.871 80.5758V84.276C157.871 87.0178 155.648 89.2394 152.907 89.2394C150.166 89.2394 147.944 87.0171 147.944 84.276V80.5758C147.944 80.5758 140.724 77.5071 139.28 72.9952C137.836 68.4832 139.28 72.2732 139.28 72.2732L138.639 53.8631H168.574L168.339 56.7509Z" fill="#F4B8AB"/>
<path d="M139.736 65.3552C137.466 61.2166 134.797 62.952 134.262 65.3552C133.728 67.7584 138.534 73.6086 139.736 71.5512C140.938 69.4939 139.736 65.3552 139.736 65.3552Z" fill="#F4B8AB"/>
<path d="M134.76 51.8259C139.592 57.6979 153.293 60.7514 158.251 59.3422C163.209 57.933 156.163 53.3531 156.163 53.3531C156.163 53.3531 165.358 59.6945 169.568 57.5807C173.778 55.4669 162.427 50.2995 162.427 50.2995L134.76 51.8259Z" fill="#6D3744"/>
<path d="M151.174 64.3974C151.174 65.2467 151.022 65.9347 150.834 65.9347C150.646 65.9347 150.494 65.246 150.494 64.3974C150.494 63.5481 150.647 62.8594 150.834 62.8594C151.022 62.8602 151.174 63.5481 151.174 64.3974Z" stroke="#191918" stroke-width="2" stroke-miterlimit="10"/>
<path d="M160.933 64.3974C160.933 65.2467 160.78 65.9347 160.593 65.9347C160.405 65.9347 160.252 65.246 160.252 64.3974C160.252 63.5481 160.405 62.8594 160.593 62.8594C160.78 62.8602 160.933 63.5481 160.933 64.3974Z" stroke="#191918" stroke-width="2" stroke-miterlimit="10"/>
<path d="M157.001 72.9764C152.329 73.0834 148.705 69.7188 148.705 69.7188" stroke="#E56A85" stroke-miterlimit="10" stroke-linecap="round"/>
<path opacity="0.53" d="M157.872 80.5758C153.875 80.9353 149.238 80.7885 149.238 80.7885L157.872 84.2753V80.5758Z" fill="#DD6595"/>
<path opacity="0.53" d="M139.494 66.4649C137.47 64.341 136.477 65.2134 136.612 67.4206C136.747 69.6277 139.408 71.2098 140.269 70.5768C141.131 69.9445 139.494 66.4649 139.494 66.4649Z" fill="#DD6595"/>
<path d="M60.3519 177.075C51.3758 173.778 46.4299 175.061 43.6816 171.397C43.6816 171.397 51.0091 170.114 55.0392 171.397L60.3519 177.075Z" fill="#7C9E1E"/>
<path d="M55.0386 171.397C44.1309 165.697 40.8958 159.227 38.123 154.76C35.3502 150.293 33.81 146.596 32.7314 146.288C31.6528 145.979 37.1985 147.058 42.436 152.296C47.6735 157.533 49.83 158.304 53.9889 162.462C58.1478 166.621 61.8451 172.742 62.3074 177.076H60.3506L55.0386 171.397Z" fill="#B7AC15"/>
<path d="M58.1482 169.856C52.2553 160.811 57.5441 155.616 50.446 145.363C42.1275 133.348 44.7463 121.333 45.9789 113.785C45.9789 113.785 44.1342 122.569 51.372 131.116C58.6104 139.663 65.6963 142.974 66.3119 155.722C66.9282 168.47 64.4636 177.075 64.4636 177.075H60.3503L58.1482 169.856Z" fill="#7C9E1E"/>
<path d="M63.512 177.075C61.5371 168.603 65.3885 154.144 65.6967 139.818C66.0049 125.492 57.9945 114.863 69.8556 101.462C69.8556 101.462 67.3909 103.927 70.7801 113.785C74.1693 123.644 81.7174 133.965 78.02 147.212C74.3226 160.46 66.3564 171.31 66.4114 177.075H63.512Z" fill="#B7AC15"/>
<path d="M66.4108 177.075C65.1781 166.909 75.554 151.063 84.3348 147.52C84.3348 147.52 85.2586 155.308 79.5595 161.658C73.8598 168.008 69.6227 177.076 69.6227 177.076H66.4108V177.075Z" fill="#A88F14"/>
<path d="M69.625 177.075C70.0113 170.318 75.8652 167.949 81.8724 166.207C81.8724 166.207 74.6325 173.512 73.4005 177.075H69.625Z" fill="#426313"/>
<path opacity="0.36" d="M72.4428 177.847C73.4664 172.728 75.7741 171.119 75.3516 170.827C74.9291 170.534 72.3032 174.841 70.9836 177.075C70.9836 177.075 69.2258 171.237 71.8583 166.207C74.4907 161.176 76.9764 157.374 76.9764 157.374C76.9764 157.374 68.4951 167.171 68.056 172.124C68.056 172.124 67.1785 167.147 68.6412 160.725C70.1033 154.303 73.9055 148.161 72.5166 140.558C71.1276 132.953 69.6244 124.838 69.6244 124.838C69.6244 124.838 70.2559 132.57 70.9844 139.269C71.7128 145.968 69.7278 149.478 67.7956 156.643C65.8633 163.809 66.9448 174.004 66.1115 173.952C65.2781 173.899 63.9622 175.8 63.9622 175.8C63.9622 175.8 63.0796 164.832 61.7659 155.474C60.4522 146.115 60.5991 144.854 54.8957 139.269C49.1923 133.684 48.4617 130.271 48.4617 130.271C48.4617 130.271 52.3131 137.925 55.5055 142.897C58.6979 147.869 59.7216 150.062 59.7216 158.837C59.7216 167.611 60.16 172.542 60.8913 173.952C61.6227 175.362 55.4809 165.614 50.655 162.298C45.8292 158.983 41.8808 154.45 41.4424 153.719C41.004 152.987 46.1221 162.2 49.9237 164.686C53.7259 167.173 60.3524 175.654 60.3524 175.654L49.4853 172.729L61.7667 177.847L72.4428 177.847Z" fill="#426313"/>
<path d="M82.1292 179.805L76.3477 213.106C76.2783 213.512 76.1394 213.883 75.9419 214.22C75.3559 215.229 74.2665 215.889 73.0367 215.889H52.2371C50.5906 215.889 49.1814 214.695 48.9203 213.071L43.499 179.769C43.1684 177.722 44.7455 175.867 46.8216 175.867H78.8124C80.9001 175.867 82.4837 177.746 82.1292 179.805Z" fill="#3A3852"/>
<path opacity="0.54" d="M75.9438 214.22C75.3579 215.229 74.2684 215.889 73.0386 215.889H52.2391C50.5926 215.889 49.1834 214.695 48.9222 213.071L43.501 179.769C43.1704 177.722 44.7474 175.867 46.8236 175.867H57.8238C47.623 191.709 64.6362 210.12 75.9438 214.22Z" fill="#232433"/>
<path d="M111.019 157.235C115.282 164.95 118.525 173.262 122.573 180.393C118.138 175.104 114.017 168.691 110.81 161.658C108.758 157.161 107.038 151.51 105.779 145.454C107.573 150.276 109.416 154.336 111.019 157.235Z" fill="#FFC55A"/>
</svg>
