<svg width="274" height="192" viewBox="0 0 274 192" fill="none" xmlns="http://www.w3.org/2000/svg">
<g clip-path="url(#clip0_349_247)">
<path d="M54.5927 192C84.7434 192 109.185 190.13 109.185 187.824C109.185 185.518 84.7434 183.648 54.5927 183.648C24.442 183.648 0 185.518 0 187.824C0 190.13 24.442 192 54.5927 192Z" fill="#E6E6E6"/>
<path d="M41.7305 42.6014C51.2312 38.5315 63.0646 41.1102 74.6212 42.8999C74.7287 40.7325 76.0322 38.0948 74.6668 36.5828C73.0078 34.7458 73.1606 32.8156 74.1588 30.8743C76.7115 25.9102 73.0542 20.628 69.3615 16.236C68.5292 15.2483 67.4773 14.4722 66.2912 13.9709C65.1052 13.4695 63.8184 13.257 62.5355 13.3505L55.695 13.8426C54.0305 13.9623 52.4419 14.5912 51.1419 15.6451C49.8419 16.699 48.8925 18.1276 48.4207 19.7398C46.7874 21.9771 45.9132 24.2082 46.4636 26.4277C44.017 28.1116 43.606 30.1443 44.7054 32.4357C45.6376 33.8784 45.6277 35.2828 44.663 36.6484C43.396 38.3893 42.4256 40.3305 41.7916 42.3924L41.7305 42.6014Z" fill="#2F2E41"/>
<path d="M267.507 165.981H73.8697C72.1477 165.981 70.4963 165.292 69.2786 164.066C68.061 162.839 67.377 161.176 67.377 159.442C137.57 151.225 206.445 151.225 274 159.442C274 161.176 273.316 162.839 272.098 164.066C270.881 165.292 269.229 165.981 267.507 165.981Z" fill="#2F2E41"/>
<path d="M274 159.826L67.377 159.442L91.3238 118.86L91.4384 118.668V29.2303C91.4383 28.1448 91.6506 27.0698 92.063 26.0668C92.4754 25.0639 93.08 24.1526 93.8422 23.3849C94.6043 22.6173 95.5092 22.0084 96.505 21.593C97.5008 21.1777 98.5682 20.9639 99.646 20.964H240.585C241.663 20.9639 242.73 21.1777 243.726 21.593C244.722 22.0084 245.627 22.6173 246.389 23.3849C247.151 24.1526 247.756 25.0639 248.168 26.0668C248.58 27.0698 248.793 28.1448 248.793 29.2303V119.283L274 159.826Z" fill="#3F3D56"/>
<path d="M99.4586 26.7339C98.7498 26.7347 98.0703 27.0186 97.5691 27.5234C97.0679 28.0282 96.786 28.7126 96.7852 29.4265V110.974C96.786 111.688 97.0679 112.373 97.5691 112.878C98.0703 113.382 98.7498 113.666 99.4586 113.667H241.918C242.627 113.666 243.306 113.382 243.807 112.878C244.308 112.373 244.59 111.688 244.591 110.974V29.4265C244.59 28.7126 244.308 28.0282 243.807 27.5235C243.306 27.0187 242.627 26.7347 241.918 26.7339H99.4586Z" fill="white"/>
<path d="M100.056 124.438C99.8369 124.438 99.6225 124.501 99.4381 124.62C99.2537 124.739 99.1068 124.909 99.0149 125.109L91.6362 141.265C91.5558 141.441 91.5207 141.634 91.534 141.827C91.5473 142.02 91.6086 142.207 91.7122 142.37C91.8159 142.533 91.9586 142.667 92.1271 142.76C92.2957 142.853 92.4848 142.901 92.6769 142.901H247.849C248.044 142.901 248.236 142.851 248.407 142.755C248.577 142.659 248.721 142.521 248.823 142.354C248.926 142.187 248.984 141.996 248.993 141.799C249.002 141.603 248.961 141.407 248.873 141.231L240.853 125.075C240.758 124.883 240.612 124.722 240.431 124.609C240.25 124.496 240.041 124.437 239.828 124.438H100.056Z" fill="#2F2E41"/>
<path d="M170.115 25.3876C171.064 25.3876 171.834 24.6126 171.834 23.6566C171.834 22.7006 171.064 21.9256 170.115 21.9256C169.166 21.9256 168.396 22.7006 168.396 23.6566C168.396 24.6126 169.166 25.3876 170.115 25.3876Z" fill="white"/>
<path d="M154.864 145.979C154.612 145.979 154.367 146.063 154.167 146.217C153.967 146.371 153.823 146.588 153.758 146.832L151.907 153.756C151.861 153.927 151.855 154.107 151.889 154.28C151.923 154.454 151.996 154.618 152.103 154.758C152.21 154.899 152.348 155.013 152.506 155.091C152.664 155.17 152.837 155.21 153.013 155.21H188.213C188.395 155.21 188.575 155.166 188.738 155.082C188.9 154.998 189.04 154.876 189.146 154.726C189.252 154.576 189.321 154.403 189.347 154.221C189.373 154.038 189.355 153.853 189.295 153.679L186.916 146.755C186.838 146.528 186.691 146.332 186.497 146.193C186.303 146.053 186.071 145.979 185.833 145.979H154.864Z" fill="#2F2E41"/>
<path d="M248.793 117.321V118.86H91.3242L91.4427 118.668V117.321H248.793Z" fill="#2F2E41"/>
<path d="M244.401 53.8524C259.166 53.8524 271.136 41.7972 271.136 26.9262C271.136 12.0553 259.166 0 244.401 0C229.636 0 217.666 12.0553 217.666 26.9262C217.666 41.7972 229.636 53.8524 244.401 53.8524Z" fill="#5F27CD"/>
<path d="M255.476 38.6584H233.325C232.92 38.658 232.531 38.4957 232.245 38.2073C231.958 37.9188 231.797 37.5277 231.797 37.1197V23.6566C231.797 23.2487 231.958 22.8576 232.245 22.5691C232.531 22.2806 232.92 22.1184 233.325 22.118H255.476C255.881 22.1184 256.27 22.2806 256.556 22.5691C256.843 22.8576 257.004 23.2487 257.004 23.6566V37.1197C257.004 37.5277 256.843 37.9188 256.556 38.2073C256.27 38.4957 255.881 38.658 255.476 38.6584ZM233.325 23.6566V37.1197H255.478L255.476 23.6566L233.325 23.6566Z" fill="white"/>
<path d="M251.275 23.6566H237.525V17.502C237.525 13.0443 240.417 9.80884 244.4 9.80884C248.383 9.80884 251.275 13.0443 251.275 17.502L251.275 23.6566ZM239.053 22.118H249.747V17.502C249.747 13.8784 247.548 11.3475 244.4 11.3475C241.252 11.3475 239.053 13.8784 239.053 17.502L239.053 22.118Z" fill="white"/>
<path d="M244.401 31.5421C245.244 31.5421 245.928 30.8533 245.928 30.0035C245.928 29.1537 245.244 28.4649 244.401 28.4649C243.557 28.4649 242.873 29.1537 242.873 30.0035C242.873 30.8533 243.557 31.5421 244.401 31.5421Z" fill="white"/>
<path d="M225.738 86.0069H115.64C115.1 86.0062 114.582 85.7897 114.199 85.4047C113.817 85.0198 113.602 84.4978 113.602 83.9534V56.4475C113.602 55.9031 113.817 55.3812 114.199 54.9963C114.582 54.6113 115.1 54.3948 115.64 54.3941H225.738C226.278 54.3948 226.797 54.6113 227.179 54.9963C227.561 55.3812 227.776 55.9031 227.777 56.4475V83.9534C227.776 84.4978 227.561 85.0198 227.179 85.4047C226.797 85.7897 226.278 86.0062 225.738 86.0069ZM115.64 55.2155C115.316 55.2159 115.005 55.3458 114.776 55.5768C114.546 55.8077 114.417 56.1209 114.417 56.4476V83.9534C114.417 84.2801 114.546 84.5933 114.776 84.8242C115.005 85.0552 115.316 85.1851 115.64 85.1855H225.738C226.062 85.1851 226.373 85.0552 226.603 84.8242C226.832 84.5933 226.961 84.2801 226.961 83.9534V56.4475C226.961 56.1209 226.832 55.8077 226.603 55.5767C226.373 55.3458 226.062 55.2158 225.738 55.2155L115.64 55.2155Z" fill="#E6E6E6"/>
<path d="M132.747 77.5097C137.333 77.5097 141.052 73.7647 141.052 69.1451C141.052 64.5255 137.333 60.7805 132.747 60.7805C128.16 60.7805 124.441 64.5255 124.441 69.1451C124.441 73.7647 128.16 77.5097 132.747 77.5097Z" fill="#E6E6E6"/>
<path d="M151.927 63.5687C151.745 63.5684 151.565 63.6043 151.397 63.6742C151.229 63.7441 151.076 63.8468 150.947 63.9763C150.818 64.1058 150.716 64.2595 150.647 64.4288C150.577 64.5981 150.541 64.7796 150.541 64.9628C150.541 65.1461 150.577 65.3275 150.647 65.4968C150.716 65.6661 150.818 65.8199 150.947 65.9494C151.076 66.0789 151.229 66.1815 151.397 66.2514C151.565 66.3214 151.745 66.3572 151.927 66.3569H217.182C217.549 66.3569 217.901 66.21 218.161 65.9486C218.42 65.6871 218.566 65.3326 218.566 64.9628C218.566 64.5931 218.42 64.2385 218.161 63.977C217.901 63.7156 217.549 63.5687 217.182 63.5687H151.927Z" fill="#E6E6E6"/>
<path d="M151.927 71.9333C151.56 71.9333 151.208 72.0802 150.948 72.3416C150.689 72.603 150.543 72.9576 150.543 73.3274C150.543 73.6971 150.689 74.0517 150.948 74.3132C151.208 74.5746 151.56 74.7215 151.927 74.7215H180.006C180.374 74.7215 180.726 74.5746 180.985 74.3132C181.245 74.0517 181.391 73.6971 181.391 73.3274C181.391 72.9576 181.245 72.603 180.985 72.3416C180.726 72.0802 180.374 71.9333 180.006 71.9333H151.927Z" fill="#E6E6E6"/>
<path d="M91.0534 72.4972L70.701 83.3949L70.4434 74.3135C77.0862 73.1966 83.4063 71.2521 89.25 68.0863L91.3786 62.7898C91.6105 62.2126 91.9875 61.7062 92.4725 61.3201C92.9575 60.934 93.5338 60.6816 94.145 60.5876C94.7561 60.4936 95.381 60.5613 95.9583 60.784C96.5356 61.0067 97.0454 61.3768 97.4378 61.8579C98.0119 62.5618 98.2989 63.4592 98.2406 64.3682C98.1824 65.2773 97.7832 66.1301 97.1239 66.7538L91.0534 72.4972Z" fill="#FFB8B8"/>
<path d="M41.3244 135.416C41.176 134.868 41.1444 134.294 41.2319 133.733C41.3194 133.171 41.524 132.634 41.8321 132.158L46.3029 125.248C47.3604 123.613 48.983 122.433 50.8559 121.935C52.7288 121.437 54.7185 121.658 56.4389 122.554C54.5599 125.776 54.8218 128.601 57.0878 131.057C53.5702 132.787 50.3191 135.019 47.4352 137.685C46.9088 138.046 46.3041 138.276 45.6718 138.354C45.0394 138.433 44.3975 138.358 43.7996 138.136C43.2018 137.914 42.6652 137.551 42.2347 137.078C41.8041 136.605 41.4921 136.036 41.3244 135.416Z" fill="#2F2E41"/>
<path d="M91.9804 126.381C91.3039 127.517 90.3489 128.458 89.2071 129.115C88.0653 129.772 86.775 130.122 85.4601 130.132L55.7588 130.359L54.4707 122.834L67.6096 118.942L56.5317 110.38L68.64 96.1088L90.6326 116.753C91.918 117.96 92.7532 119.575 92.9985 121.327C93.2439 123.079 92.8845 124.863 91.9804 126.381Z" fill="#2F2E41"/>
<path d="M51.1202 177.841H44.1643C37.919 134.725 31.5618 91.4891 50.3474 75.3514L72.5031 78.9839L69.6692 97.9251L57.3032 112.196L51.1202 177.841Z" fill="#2F2E41"/>
<path d="M57.2363 187.608C56.6918 187.758 56.122 187.79 55.5644 187.702C55.0068 187.614 54.474 187.408 54.0011 187.097L46.4485 186.075C44.8255 185.01 43.6532 183.376 43.159 181.49C42.6648 179.603 42.8839 177.599 43.7738 175.867C46.9722 177.759 49.7779 177.495 52.2161 175.212C53.9389 178.716 56.7773 178.502 59.4882 181.454C59.8471 181.984 60.0751 182.593 60.1531 183.23C60.231 183.867 60.1568 184.513 59.9364 185.115C59.7161 185.717 59.3561 186.258 58.8865 186.692C58.4168 187.125 57.851 187.44 57.2363 187.608Z" fill="#2F2E41"/>
<path d="M67.6098 46.5504L54.7285 43.4368C56.8679 39.0263 57.0441 34.1188 56.0166 28.9066L64.7759 28.6471C65.0503 35.1286 65.8807 41.1841 67.6098 46.5504Z" fill="#FFB8B8"/>
<path d="M71.1489 86.7964C61.7719 93.2319 55.1463 87.0165 50.0902 77.4271C50.7928 71.5593 49.6552 64.5372 47.5483 56.9071C46.6113 53.5417 46.9611 49.9448 48.5287 46.8265C50.0963 43.7082 52.7677 41.2951 56.0156 40.0637L67.0935 44.7341C76.4999 52.4563 78.3513 60.8209 74.8222 69.6431L71.1489 86.7964Z" fill="#5F27CD"/>
<path d="M44.1651 53.0371L33.8601 58.486L52.1515 69.3836L54.6967 75.7065C54.8665 76.1285 54.9493 76.581 54.9399 77.0363C54.9305 77.4916 54.8291 77.9401 54.6419 78.3547C54.4547 78.7692 54.1857 79.141 53.8512 79.4474C53.5167 79.7538 53.1238 79.9884 52.6963 80.1368C52.2104 80.3056 51.6924 80.3587 51.1827 80.2922C50.6729 80.2256 50.1855 80.0411 49.7584 79.7531C49.3313 79.4651 48.9762 79.0814 48.7209 78.6321C48.4656 78.1829 48.3171 77.6802 48.2869 77.1634L48.0295 72.7567L24.7814 65.0299C23.9981 64.7696 23.2839 64.3332 22.6929 63.7537C22.1019 63.1742 21.6496 62.4668 21.3702 61.6852C20.9629 60.5458 20.9422 59.3027 21.3112 58.1502C21.6803 56.9977 22.4182 56.001 23.4097 55.316L42.1042 42.3989L44.1651 53.0371Z" fill="#FFB8B8"/>
<path d="M54.4703 54.075C50.1725 52.178 46.2644 54.2387 41.3315 55.8913L40.5586 42.1394C45.4568 39.5101 50.1269 38.8012 54.4703 40.8421L54.4703 54.075Z" fill="#5F27CD"/>
<path d="M59.6109 35.4589C64.153 35.4589 67.8351 31.7504 67.8351 27.1758C67.8351 22.6012 64.153 18.8928 59.6109 18.8928C55.0688 18.8928 51.3867 22.6012 51.3867 27.1758C51.3867 31.7504 55.0688 35.4589 59.6109 35.4589Z" fill="#FFB8B8"/>
<path d="M69.4495 26.1307C61.3068 26.9339 55.1022 25.5927 51.1367 21.7738V18.6983H68.7584L69.4495 26.1307Z" fill="#2F2E41"/>
</g>
<defs>
<clipPath id="clip0_349_247">
<rect width="274" height="192" fill="white"/>
</clipPath>
</defs>
</svg>
